<?xml version="1.0" encoding="UTF-8"?>
<svg width="70px" height="70px" viewBox="0 0 70 70" version="1.1" xmlns="http://www.w3.org/2000/svg" xmlns:xlink="http://www.w3.org/1999/xlink">
    <!-- Generator: Sketch 40.3 (33839) - http://www.bohemiancoding.com/sketch -->
    <title>Group</title>
    <desc>Created with Sketch.</desc>
    <defs></defs>
    <g id="Page-1" stroke="none" stroke-width="1" fill="none" fill-rule="evenodd">
        <g id="TM---Home---1.0-Copy" transform="translate(-1120.000000, -4326.000000)">
            <g id="Group-7" transform="translate(210.000000, 3811.000000)">
                <g id="Group-22" transform="translate(720.000000, 515.000000)">
                    <text id="Mobile-apps" font-family="Lora-Regular, Lora" font-size="28" font-weight="normal" fill="#212121">
                        <tspan x="0" y="93">Mobile apps</tspan>
                    </text>
                    <g id="Group" transform="translate(190.000000, 0.000000)">
                        <path d="M53.735,2.81214286 C61.0671429,2.81214286 67.0321429,8.77714286 67.0321429,16.1092857 L67.0321429,53.8907143 C67.0321429,61.2228571 61.0671429,67.1878571 53.735,67.1878571 L15.9535714,67.1878571 C8.62142857,67.1878571 2.65642857,61.2228571 2.65642857,53.8907143 L2.65642857,16.1092857 C2.65642857,8.77714286 8.62142857,2.81214286 15.9535714,2.81214286 L53.735,2.81214286 L53.735,2.81214286 Z M53.735,0.669285714 L15.9535714,0.669285714 C7.42642857,0.669285714 0.513571429,7.58214286 0.513571429,16.1092857 L0.513571429,53.8907143 C0.513571429,62.4178571 7.42642857,69.3307143 15.9535714,69.3307143 L53.735,69.3307143 C62.2621429,69.3307143 69.175,62.4178571 69.175,53.8907143 L69.175,16.1092857 C69.175,7.58214286 62.2621429,0.669285714 53.735,0.669285714 L53.735,0.669285714 L53.735,0.669285714 Z" id="Shape" fill="#000000"></path>
                        <path d="M0.0228571429,69.8214286 L69.6657143,0.178571429" id="Shape" stroke="#000000" stroke-width="0.25"></path>
                        <path d="M0.0228571429,0.178571429 L69.6657143,69.8214286" id="Shape" stroke="#000000" stroke-width="0.25"></path>
                        <g transform="translate(0.714286, 22.142857)" id="Shape" stroke="#000000" stroke-width="0.25">
                            <path d="M0.457857143,25.5357143 L67.8021429,25.5357143"></path>
                            <path d="M0.457857143,12.8571429 L67.8021429,12.8571429"></path>
                            <path d="M0.457857143,0.178571429 L67.8021429,0.178571429"></path>
                        </g>
                        <g transform="translate(22.142857, 0.714286)" id="Shape" stroke="#000000" stroke-width="0.25">
                            <path d="M25.38,67.9578571 L25.38,0.613571429"></path>
                            <path d="M12.7014286,67.9578571 L12.7014286,0.613571429"></path>
                            <path d="M0.0228571429,67.9578571 L0.0228571429,0.613571429"></path>
                        </g>
                        <g transform="translate(5.000000, 0.000000)" id="Shape" stroke="#000000" stroke-width="0.25">
                            <path d="M59.6657143,69.3307143 L59.6657143,0.669285714"></path>
                            <path d="M0.0228571429,69.3307143 L0.0228571429,0.669285714"></path>
                        </g>
                        <g transform="translate(0.000000, 5.000000)" id="Shape" stroke="#000000" stroke-width="0.25">
                            <path d="M69.175,0.178571429 L0.513571429,0.178571429"></path>
                            <path d="M69.175,59.8214286 L0.513571429,59.8214286"></path>
                        </g>
                        <circle id="Oval" stroke="#000000" stroke-width="0.25" cx="34.8442857" cy="35" r="29.7857143"></circle>
                        <circle id="Oval" stroke="#000000" stroke-width="0.25" cx="34.8442857" cy="35" r="17.9728571"></circle>
                        <ellipse id="Oval" stroke="#000000" stroke-width="0.25" cx="34.8442857" cy="35" rx="12.6785714" ry="12.6785714"></ellipse>
                    </g>
                </g>
            </g>
        </g>
    </g>
</svg>