<?xml version="1.0" encoding="UTF-8" standalone="no"?>
<svg width="80px" height="12px" viewBox="0 0 80 12" version="1.1" xmlns="http://www.w3.org/2000/svg" xmlns:xlink="http://www.w3.org/1999/xlink">
    <!-- Generator: Sketch 43.1 (39012) - http://www.bohemiancoding.com/sketch -->
    <title>arrow</title>
    <desc>Created with Sketch.</desc>
    <defs></defs>
    <g id="Page-1" stroke="none" stroke-width="1" fill="none" fill-rule="evenodd" opacity="0.843866604">
        <g id="arrow" transform="translate(40.000000, 6.000000) rotate(90.000000) translate(-40.000000, -6.000000) translate(34.000000, -34.000000)" fill-rule="nonzero" fill="#212121">
            <g id="Page-1">
                <g id="arrow">
                    <g id="Page-1">
                        <g id="TM---Home---1.0-Copy">
                            <g id="Group-18">
                                <path d="M8.227865,75.6985485 C7.263478,76.9946032 6.454732,78.4284061 5.801602,80 C5.168882,78.4692267 4.370341,77.0558339 3.405954,75.7597791 C2.441566,74.4637244 1.30626,73.2748416 0,72.1930952 C0.102052,72.18289 0.196448,72.1752362 0.283192,72.1701337 C0.369935,72.1650311 0.454127,72.1624798 0.535768,72.1624798 C1.301155,72.1624798 2.089491,72.3716824 2.900801,72.7900938 C3.712111,73.2085051 4.541267,73.8361128 5.388295,74.6729355 L5.388295,0 C4.520857,0.857233054 7.123167,0.877643364 6.214909,0 L6.214909,74.6729355 C7.061936,73.8361128 7.891093,73.2085051 8.702403,72.7900938 C9.513713,72.3716824 10.302049,72.1624798 11.067436,72.1624798 C11.159282,72.1624798 11.248576,72.1650311 11.33532,72.1701337 C11.422064,72.1752362 11.511357,72.18289 11.603204,72.1930952 C10.317354,73.234021 9.192253,74.4024938 8.227865,75.6985485 Z" id="↕"></path>
                            </g>
                        </g>
                    </g>
                </g>
            </g>
        </g>
    </g>
</svg>