<?xml version="1.0" encoding="UTF-8" standalone="no"?>
<svg width="321px" height="397px" viewBox="0 0 321 397" version="1.1" xmlns="http://www.w3.org/2000/svg" xmlns:xlink="http://www.w3.org/1999/xlink">
    <!-- Generator: Sketch 46.2 (44496) - http://www.bohemiancoding.com/sketch -->
    <title>Group 2</title>
    <desc>Created with Sketch.</desc>
    <defs></defs>
    <g id="Page-1" stroke="none" stroke-width="1" fill="none" fill-rule="evenodd">
        <g id="Group-2">
            <g id="Page-1">
                <g id="Group-2">
                    <g id="zhuomian" transform="translate(160.500000, 199.000000) scale(-1, 1) translate(-160.500000, -199.000000) ">
                        <path d="M22,200.062276 L11.4334975,259.257231 C10.9162562,260.937604 7.73891626,261.472268 7,260.555701 L8.03448276,260.40294 C7.36945813,259.868276 7,259.028089 7.14778325,258.187903 L17.862069,198 L22,200.062276 Z" id="Shape" fill="#613C00" fill-rule="nonzero"></path>
                        <path d="M21,200.137136 L10.3161132,259.290005 C10.0172633,260.81653 8.29887588,261.503467 7.10347597,260.587551 L7.10347597,260.587551 C6.28163852,259.976941 5.83336355,258.908373 6.05750104,257.839805 L16.8161003,198 L21,200.137136 Z" id="Shape" fill="#9D6548" fill-rule="nonzero"></path>
                        <path d="M202,305 L202,372.039329 C202,373.24453 203.527273,374.299082 204.763636,373.922456 L204.254545,373.621156 C205.272727,373.169205 206,372.114654 206,370.909453 L206,305.075325 L202,305.075325 L202,305 Z" id="Shape" fill="#613C00" fill-rule="nonzero"></path>
                        <path d="M203,305 L203,372.324527 C203,373.534855 204.163636,374.366956 205.254545,373.837438 L205.254545,373.837438 C206.272727,373.383564 207,372.324527 207,371.114198 L207,305 L203,305 Z" id="Shape" fill="#9D6548" fill-rule="nonzero"></path>
                        <path d="M301,248.189009 L312.06159,307.820645 C312.292039,309.254823 314.442904,309.17934 315.287887,308.650958 L315.287887,307.896128 C316.440135,307.141297 315.902419,306.537432 315.67197,305.178737 L305.07128,246 L301,248.189009 Z" id="Shape" fill="#613C00" fill-rule="nonzero"></path>
                        <path d="M303,248.120241 L314.331197,307.941319 C314.488574,308.849994 315.590218,309.304331 316.377107,308.774271 L316.377107,308.774271 C317.55744,308.017042 318.186951,306.729753 317.950884,305.366741 L307.091821,246 L303,248.120241 Z" id="Shape" fill="#9D6548" fill-rule="nonzero"></path>
                        <path d="M0.00603435774,182 L0.00603435774,188.438607 C0.00603435774,188.438607 -0.144824586,189.499084 1.06204696,190.029322 L200.271282,305.09102 C200.271282,305.09102 204.193614,307.136225 207.7388,305.09102 C211.283985,303.045816 211.283985,303.045816 211.283985,303.045816 L317.941258,241.159438 C317.941258,241.159438 320.581289,239.568723 320.883007,236.008552 C321.184725,232.448381 320.807578,229.039707 320.807578,229.039707 L0.00603435774,182 Z" id="Shape" fill="#DBA978" fill-rule="nonzero"></path>
                        <path d="M1.28395592,184.155075 C1.28395592,184.155075 -1.88662911,182.183605 1.73689664,179.529703 C5.28493228,176.875801 109.763258,116.670141 115.953448,113.106329 C116.179918,112.954678 116.481879,112.803026 116.783839,112.727201 C118.142661,112.19642 121.841677,111.134859 125.540693,113.333807 L317.965009,225.10099 C318.56893,225.404293 319.097361,225.859248 319.474811,226.390028 C320.682653,227.830718 322.267946,230.787923 319.323831,234.351734 C318.87089,234.882515 318.342459,235.337469 317.814029,235.640772 L209.938647,298.348683 C209.938647,298.348683 204.050418,302.064146 198.539639,298.348683 L1.28395592,184.155075 Z" id="Shape" fill="#FFDAA4" fill-rule="nonzero"></path>
                        <path d="M188.531983,219 C188.531983,219 189.801621,221.924725 188.15856,223.925853 C187.038291,225.311249 142.750335,253.173104 141.107274,250.86411 C139.464213,248.555117 157.239144,238.087679 157.239144,238.087679 L188.531983,219 Z" id="Shape" fill="#95CDFF" fill-rule="nonzero"></path>
                        <path d="M70.568144,208.593824 C70.568144,208.593824 69.2898199,207.46351 70.568144,205.881071 C71.8464681,204.298632 73.3503789,203.168318 74.0271387,202.716193 C74.628703,202.339421 115.384683,178.602834 115.384683,178.602834 C115.384683,178.602834 117.490158,177.246458 120.648371,178.602834 C123.881779,179.95921 188.249157,217.93775 188.249157,217.93775 C188.249157,217.93775 190.505023,219.595544 187.19642,221.780817 C182.609492,224.870341 145.162115,246.647718 145.162115,246.647718 C145.162115,246.647718 143.05664,247.551969 142.229489,249.586534 C142.229489,249.586534 141.928707,250.340076 141.101556,249.812596 C140.424796,249.360471 70.568144,208.593824 70.568144,208.593824 Z" id="Shape" fill="#DBF0FF" fill-rule="nonzero"></path>
                        <g id="keyboard" transform="translate(84.000000, 182.000000)" fill-rule="nonzero" fill="#95CDFF">
                            <polygon id="Shape" points="36.6666667 27.0415584 36.6666667 26.2883117 29.1666667 22.7480519 24.5454545 24.7064935 24.5454545 25.4597403 32.0454545 29.7532468"></polygon>
                            <polygon id="Shape" points="45.4545455 32.1636364 45.4545455 31.4103896 37.5757576 27.6441558 32.9545455 29.5272727 32.9545455 30.2805195 40.8333333 34.8"></polygon>
                            <polygon id="Shape" points="61.6666667 41.5038961 61.6666667 40.7506494 54.9242424 37.587013 50.3030303 39.4701299 50.3030303 40.2233766 57.0454545 44.1402597"></polygon>
                            <polygon id="Shape" points="53.9393939 37.0597403 53.9393939 36.3064935 46.3636364 32.6909091 41.7424242 34.574026 41.7424242 35.3272727 49.3939394 39.6961039"></polygon>
                            <polygon id="Shape" points="69.0151515 37.2857143 69.0151515 36.5324675 62.1969697 33.3688312 57.4242424 35.4025974 57.4242424 36.1558442 64.2424242 40.0727273"></polygon>
                            <polygon id="Shape" points="76.5151515 41.6545455 76.5151515 40.9012987 70.3030303 38.038961 65.530303 40.0727273 65.530303 40.825974 71.8181818 44.4415584"></polygon>
                            <polygon id="Shape" points="78.6363636 31.7116883 83.3333333 29 83.3333333 28.2467532 76.5151515 25.1584416 71.8939394 27.1168831 71.8939394 27.8701299"></polygon>
                            <polygon id="Shape" points="86.1363636 36.0805195 90.9090909 33.2935065 90.9090909 32.5402597 84.6212121 29.7532468 79.9242424 31.7116883 79.9242424 32.4649351"></polygon>
                            <polygon id="Shape" points="83.6363636 37.5116883 83.6363636 36.7584416 77.3484848 33.9714286 72.8030303 35.8545455 72.8030303 36.6077922 79.0909091 40.1480519"></polygon>
                            <polygon id="Shape" points="76.0606061 33.2181818 76.0606061 32.4649351 69.3181818 29.3012987 64.7727273 31.1844156 64.7727273 31.9376623 71.5151515 35.8545455"></polygon>
                            <polygon id="Shape" points="52.6515152 27.8701299 52.6515152 27.1168831 44.9242424 23.425974 40.1515152 25.3844156 40.1515152 26.1376623 47.9545455 30.6571429"></polygon>
                            <polygon id="Shape" points="70.7575758 27.1922078 75.3030303 24.4805195 75.3030303 23.7272727 67.8787879 20.3376623 63.3333333 22.1454545 63.3333333 22.8987013"></polygon>
                            <polygon id="Shape" points="56.2121212 27.0415584 63.7121212 31.3350649 68.2575758 28.6987013 68.2575758 27.9454545 60.8333333 24.4051948 56.2121212 26.2883117"></polygon>
                            <polygon id="Shape" points="47.4242424 21.9948052 55.2272727 26.438961 59.6969697 23.7272727 59.6969697 22.974026 52.0454545 19.3584416 47.4242424 21.2415584"></polygon>
                            <polygon id="Shape" points="31.7424242 21.3168831 39.1666667 25.6103896 43.8636364 22.8233766 43.8636364 22.0701299 36.5151515 18.6051948 31.7424242 20.5636364"></polygon>
                            <polygon id="Shape" points="23.8636364 16.7974026 30.4545455 20.5636364 35.2272727 17.8519481 35.2272727 17.0987013 28.6363636 14.0103896 23.8636364 16.0441558"></polygon>
                            <polygon id="Shape" points="39.0151515 17.0987013 46.4393939 21.3922078 50.9090909 18.6805195 50.9090909 17.9272727 43.5606061 14.4623377 39.0151515 16.3454545"></polygon>
                            <polygon id="Shape" points="16.6666667 20.8649351 23.2575758 24.7064935 27.8787879 21.9948052 27.8787879 21.2415584 21.2878788 18.2285714 16.6666667 20.1116883"></polygon>
                            <polygon id="Shape" points="61.2121212 32.7662338 61.2121212 32.012987 53.7121212 28.4727273 48.9393939 30.4311688 48.9393939 31.1844156 56.4393939 35.5532468"></polygon>
                            <polygon id="Shape" points="80.3787879 40.9012987 87.6515152 45.1194805 92.1969697 42.4831169 92.1969697 41.7298701 84.9242424 38.2649351 80.3787879 40.1480519"></polygon>
                            <polygon id="Shape" points="73.030303 45.1194805 80.3030303 49.3376623 85.0757576 46.5506494 85.0757576 45.7974026 77.8030303 42.4077922 73.030303 44.3662338"></polygon>
                            <polygon id="Shape" points="65.9090909 49.2623377 73.1818182 53.4051948 77.8030303 50.7688312 77.8030303 50.0155844 70.530303 46.625974 65.9090909 48.5090909"></polygon>
                            <polygon id="Shape" points="69.2424242 45.8727273 69.2424242 45.1194805 63.030303 42.2571429 58.4090909 44.2155844 58.4090909 44.9688312 64.6969697 48.5844156"></polygon>
                            <polygon id="Shape" points="41.2121212 5.1974026 41.2121212 4.44415584 32.8787879 0.451948052 28.6363636 2.18441558 28.6363636 2.93766234 36.969697 7.68311688"></polygon>
                            <polygon id="Shape" points="58.7121212 53.4051948 65.9090909 57.6233766 70.6060606 54.9116883 70.6060606 54.1584416 63.4090909 50.7688312 58.7121212 52.6519481"></polygon>
                            <polygon id="Shape" points="4.62121212 16.8727273 0.227272727 18.6051948 0.227272727 19.3584416 8.48484848 24.1792208 12.8787879 21.6181818 12.8787879 20.8649351"></polygon>
                            <polygon id="Shape" points="92.1969697 34.0467532 87.4242424 36.0805195 87.4242424 36.8337662 94.6969697 40.9766234 99.5454545 38.1896104 99.5454545 37.4363636"></polygon>
                            <polygon id="Shape" points="55.8333333 46.4 51.2121212 48.3584416 51.2121212 49.1116883 57.5 52.7272727 62.1212121 50.0155844 62.1212121 49.2623377"></polygon>
                            <polygon id="Shape" points="14.1666667 22.3714286 9.6969697 24.1792208 9.6969697 24.9324675 16.2121212 28.6987013 20.6818182 26.1376623 20.6818182 25.3844156"></polygon>
                            <polygon id="Shape" points="44.9242424 12.2779221 49.3181818 9.79220779 49.3181818 9.03896104 42.5757576 5.95064935 38.2575758 7.68311688 38.2575758 8.43636364"></polygon>
                            <polygon id="Shape" points="31.1363636 12.5792208 37.8030303 16.4207792 42.3484848 13.7844156 42.3484848 13.0311688 35.7575758 9.94285714 31.1363636 11.825974"></polygon>
                            <polygon id="Shape" points="34.3939394 9.18961039 34.3939394 8.43636364 26.0606061 4.36883117 21.5151515 6.25194805 21.5151515 7.00519481 29.8484848 11.825974"></polygon>
                            <polygon id="Shape" points="22.0454545 26.8909091 17.5757576 28.774026 17.5757576 29.5272727 49.9242424 48.2831169 54.5454545 45.6467532 54.5454545 44.8935065"></polygon>
                            <polygon id="Shape" points="53.4848485 17.2493506 57.8787879 14.612987 57.8787879 13.8597403 50.530303 10.4701299 46.1363636 12.2779221 46.1363636 13.0311688"></polygon>
                            <polygon id="Shape" points="62.1969697 22.2961039 66.7424242 19.6597403 66.7424242 18.9064935 59.0909091 15.2909091 54.5454545 17.0987013 54.5454545 17.8519481"></polygon>
                            <polygon id="Shape" points="27.3484848 13.2571429 27.3484848 12.5038961 19.0151515 8.51168831 14.2424242 10.4701299 14.2424242 11.2233766 22.5757576 16.0441558"></polygon>
                            <polygon id="Shape" points="20.0757576 17.4753247 20.0757576 16.7220779 11.7424242 12.7298701 7.12121212 14.612987 7.12121212 15.3662338 15.4545455 20.187013"></polygon>
                        </g>
                        <g id="Group" transform="translate(84.000000, 182.000000)" fill-rule="nonzero" fill="#FFFFFF">
                            <polygon id="Shape" points="36.6666667 27.0415584 29.1666667 22.7480519 24.5454545 25.4597403 32.0454545 29.7532468"></polygon>
                            <polygon id="Shape" points="45.4545455 32.1636364 37.5757576 27.6441558 32.9545455 30.2805195 40.8333333 34.8"></polygon>
                            <polygon id="Shape" points="61.6666667 41.5038961 54.9242424 37.587013 50.3030303 40.2233766 57.0454545 44.1402597"></polygon>
                            <polygon id="Shape" points="53.9393939 37.0597403 46.3636364 32.6909091 41.7424242 35.3272727 49.3939394 39.6961039"></polygon>
                            <polygon id="Shape" points="69.0151515 37.2857143 62.1969697 33.3688312 57.4242424 36.1558442 64.2424242 40.0727273"></polygon>
                            <polygon id="Shape" points="76.5151515 41.6545455 70.3030303 38.038961 65.530303 40.825974 71.8181818 44.4415584"></polygon>
                            <polygon id="Shape" points="78.6363636 31.7116883 83.3333333 29 76.5151515 25.1584416 71.8939394 27.8701299"></polygon>
                            <polygon id="Shape" points="86.1363636 36.0805195 90.9090909 33.2935065 84.6212121 29.7532468 79.9242424 32.4649351"></polygon>
                            <polygon id="Shape" points="83.6363636 37.5116883 77.3484848 33.9714286 72.8030303 36.6077922 79.0909091 40.1480519"></polygon>
                            <polygon id="Shape" points="76.0606061 33.2181818 69.3181818 29.3012987 64.7727273 31.9376623 71.5151515 35.8545455"></polygon>
                            <polygon id="Shape" points="52.6515152 27.8701299 44.9242424 23.425974 40.1515152 26.1376623 47.9545455 30.6571429"></polygon>
                            <polygon id="Shape" points="70.7575758 27.1922078 75.3030303 24.4805195 67.8787879 20.3376623 63.3333333 22.8987013"></polygon>
                            <polygon id="Shape" points="56.2121212 27.0415584 63.7121212 31.3350649 68.2575758 28.6987013 60.8333333 24.4051948"></polygon>
                            <polygon id="Shape" points="47.4242424 21.9948052 55.2272727 26.438961 59.6969697 23.7272727 52.0454545 19.3584416"></polygon>
                            <polygon id="Shape" points="31.7424242 21.3168831 39.1666667 25.6103896 43.8636364 22.8233766 36.5151515 18.6051948"></polygon>
                            <polygon id="Shape" points="23.8636364 16.7974026 30.4545455 20.5636364 35.2272727 17.8519481 28.6363636 14.0103896"></polygon>
                            <polygon id="Shape" points="39.0151515 17.0987013 46.4393939 21.3922078 50.9090909 18.6805195 43.5606061 14.4623377"></polygon>
                            <polygon id="Shape" points="16.6666667 20.8649351 23.2575758 24.7064935 27.8787879 21.9948052 21.2878788 18.2285714"></polygon>
                            <polygon id="Shape" points="61.2121212 32.7662338 53.7121212 28.4727273 48.9393939 31.1844156 56.4393939 35.5532468"></polygon>
                            <polygon id="Shape" points="80.3787879 40.9012987 87.6515152 45.1194805 92.1969697 42.4831169 84.9242424 38.2649351"></polygon>
                            <polygon id="Shape" points="73.030303 45.1194805 80.3030303 49.3376623 85.0757576 46.5506494 77.8030303 42.4077922"></polygon>
                            <polygon id="Shape" points="65.9090909 49.2623377 73.1818182 53.4051948 77.8030303 50.7688312 70.530303 46.625974"></polygon>
                            <polygon id="Shape" points="69.2424242 45.8727273 63.030303 42.2571429 58.4090909 44.9688312 64.6969697 48.5844156"></polygon>
                            <polygon id="Shape" points="41.2121212 5.1974026 32.8787879 0.451948052 28.6363636 2.93766234 36.969697 7.68311688"></polygon>
                            <polygon id="Shape" points="58.7121212 53.4051948 65.9090909 57.6233766 70.6060606 54.9116883 63.4090909 50.7688312"></polygon>
                            <polygon id="Shape" points="4.62121212 16.8727273 0.227272727 19.3584416 8.48484848 24.1792208 12.8787879 21.6181818"></polygon>
                            <polygon id="Shape" points="92.1969697 34.0467532 87.4242424 36.8337662 94.6969697 40.9766234 99.5454545 38.1896104"></polygon>
                            <polygon id="Shape" points="55.8333333 46.4 51.2121212 49.1116883 57.5 52.7272727 62.1212121 50.0155844"></polygon>
                            <polygon id="Shape" points="14.1666667 22.3714286 9.6969697 24.9324675 16.2121212 28.6987013 20.6818182 26.1376623"></polygon>
                            <polygon id="Shape" points="44.9242424 12.2779221 49.3181818 9.79220779 42.5757576 5.95064935 38.2575758 8.43636364"></polygon>
                            <polygon id="Shape" points="31.1363636 12.5792208 37.8030303 16.4207792 42.3484848 13.7844156 35.7575758 9.94285714"></polygon>
                            <polygon id="Shape" points="34.3939394 9.18961039 26.0606061 4.36883117 21.5151515 7.00519481 29.8484848 11.825974"></polygon>
                            <polygon id="Shape" points="22.0454545 26.8909091 17.5757576 29.5272727 49.9242424 48.2831169 54.5454545 45.6467532"></polygon>
                            <polygon id="Shape" points="53.4848485 17.2493506 57.8787879 14.612987 50.530303 10.4701299 46.1363636 13.0311688"></polygon>
                            <polygon id="Shape" points="62.1969697 22.2961039 66.7424242 19.6597403 59.0909091 15.2909091 54.5454545 17.8519481"></polygon>
                            <polygon id="Shape" points="27.3484848 13.2571429 19.0151515 8.51168831 14.2424242 11.2233766 22.5757576 16.0441558"></polygon>
                            <polygon id="Shape" points="20.0757576 17.4753247 11.7424242 12.7298701 7.12121212 15.3662338 15.4545455 20.187013"></polygon>
                        </g>
                        <path d="M226,263.259259 L224.191781,260.296296 L221.40411,260.296296 C219.59589,257.851852 214.09589,256 207.541096,256 C199.554795,256 193,258.666667 193,262 C193,265.333333 199.479452,268 207.541096,268 C214.171233,268 219.746575,266.148148 221.479452,263.62963 L226,263.259259 Z" id="Shape" fill="#F5C487" fill-rule="nonzero"></path>
                        <ellipse id="Oval" fill="#F9F9F9" fill-rule="nonzero" cx="206.5" cy="237" rx="12.5" ry="5"></ellipse>
                        <path d="M198,238.5 C199.904762,239.368421 202.8,240 206,240 C209.2,240 212.095238,239.447368 214,238.5 C212.095238,237.631579 209.2,237 206,237 C202.8,237 199.904762,237.631579 198,238.5 Z" id="Shape" fill="#B66F3F" fill-rule="nonzero"></path>
                        <path d="M206.5,232 C199.564024,232 194,234.238806 194,237 C194,239.761194 199.564024,242 206.5,242 C213.435976,242 219,239.761194 219,237 C219,234.238806 213.359756,232 206.5,232 Z M206.42378,240.58209 C200.707317,240.58209 196.057927,238.865672 196.057927,236.850746 C196.057927,234.835821 200.707317,233.119403 206.42378,233.119403 C212.140244,233.119403 216.789634,234.835821 216.789634,236.850746 C216.789634,238.865672 212.140244,240.58209 206.42378,240.58209 Z" id="Shape" fill="#DBF0FF" fill-rule="nonzero"></path>
                        <g id="Group" transform="translate(193.000000, 236.000000)" fill-rule="nonzero">
                            <path d="M0.688235294,0.376766091 L0.688235294,0.376766091 L0.688235294,0.376766091 C0.688235294,0.452119309 0.688235294,0.452119309 0.688235294,0.376766091 Z" id="Shape" fill="#000000"></path>
                            <path d="M25.8470588,0.376766091 C25.8470588,0.452119309 25.8470588,0.452119309 25.8470588,0.376766091 C25.8470588,3.16483516 20.2647059,5.42543171 13.3058824,5.42543171 C6.34705882,5.42543171 0.764705882,3.16483516 0.764705882,0.376766091 L0.764705882,25.9215071 C0.764705882,28.7095761 6.34705882,30.9701727 13.3058824,30.9701727 C20.2647059,30.9701727 25.8470588,28.7095761 25.8470588,25.9215071 L25.8470588,0.376766091 L25.8470588,0.376766091 Z" id="Shape" fill="#FFFFFF"></path>
                        </g>
                        <path d="M214,257.428571 C214,257.428571 216.64,256.952381 217.36,256 L220,256.380952 L218.32,259.714286 L216.32,260 L214,257.428571 Z" id="Shape" fill="#DBF0FF" fill-rule="nonzero"></path>
                        <path d="M214,248.373494 L214,247 L217.709677,248.807229 C217.709677,248.807229 218.83871,249.096386 218.677419,250.108434 L219,257.409639 C219,257.409639 218.677419,258.855422 217.467742,259 C217.467742,259 217.064516,259 216.580645,258.710843 L214.241935,257.409639 L214.241935,256.325301 L216.66129,257.626506 C216.66129,257.626506 217.548387,258.13253 217.629032,257.26506 L217.629032,250.614458 C217.629032,250.614458 217.629032,249.891566 216.983871,249.674699 L214,248.373494 Z" id="Shape" fill="#ACD2E5" fill-rule="nonzero"></path>
                        <path d="M214,246.870056 C214,246.870056 216.404875,246.632768 216.987876,246 L220.121501,247.661017 C220.121501,247.661017 221.068876,247.977401 220.996001,249.163842 L220.996001,257.231638 C220.996001,257.231638 220.996001,257.864407 220.267251,258.418079 L217.352251,260 C217.352251,260 218.226751,259.60452 218.153876,258.022599 C218.153876,257.152542 218.153876,250.429379 218.153876,250.429379 C218.153876,250.429379 218.299626,249.638418 217.498001,249.163842 L214,246.870056 Z" id="Shape" fill="#DBF0FF" fill-rule="nonzero"></path>
                        <g id="Group" stroke-linecap="round" transform="translate(198.000000, 220.000000)" stroke="#FFFFFF" stroke-width="0.72">
                            <path d="M8.76190476,0.517391304 C8.76190476,0.517391304 9.82857143,1.55217391 9.82857143,3.03043478 C9.82857143,4.50869565 9.21904762,5.02608696 8.68571429,5.69130435 C8.15238095,6.35652174 7.39047619,7.24347826 7.39047619,8.72173913 C7.39047619,10.2 8.76190476,11.0130435 8.76190476,11.0130435" id="Shape"></path>
                            <path d="M2.05714286,6.20869565 C2.05714286,6.20869565 3.12380952,7.24347826 3.12380952,8.72173913 C3.12380952,10.2 2.51428571,10.7173913 1.98095238,11.3826087 C1.44761905,12.0478261 0.685714286,12.9347826 0.685714286,14.4130435 C0.685714286,15.8913043 2.05714286,16.7043478 2.05714286,16.7043478" id="Shape"></path>
                            <path d="M14.4,5.24782609 C14.4,5.24782609 15.4666667,6.2826087 15.4666667,7.76086957 C15.4666667,9.23913043 14.8571429,9.75652174 14.3238095,10.4217391 C13.7904762,11.0869565 13.0285714,11.973913 13.0285714,13.4521739 C13.0285714,14.9304348 14.4,15.7434783 14.4,15.7434783" id="Shape"></path>
                        </g>
                        <path d="M69.0513682,187.658065 C68.902448,187.658065 68.7535277,187.658065 68.6046075,187.658065 L68.6046075,187.658065 C68.6046075,187.658065 66.0729633,187.580645 66.519724,185.8 C66.5941842,185.645161 66.6686443,185.412903 66.8920246,185.258065 C66.8920246,185.258065 66.8920246,185.258065 66.8920246,185.258065 C67.4132455,184.793548 67.7855461,184.251613 67.7855461,183.632258 C67.7855461,182.16129 65.9985032,181 63.7646995,181 C61.5308958,181 59.7438528,182.16129 59.7438528,183.632258 C59.7438528,183.941935 59.8183129,184.329032 60.0416933,184.63871 L60.0416933,184.63871 C60.0416933,184.63871 60.1161534,184.716129 60.1906136,184.870968 C60.2650737,184.948387 60.2650737,185.103226 60.2650737,185.103226 C60.488454,185.722581 60.7118344,187.348387 57.3611289,187.270968 C57.3611289,187.270968 57.3611289,187.270968 57.2866687,187.270968 C57.2866687,187.270968 57.2122086,187.270968 57.2122086,187.270968 C56.839908,187.193548 56.4676074,187.193548 56.0208467,187.193548 C53.787043,187.193548 52,188.432258 52,189.903226 C52,191.374194 53.787043,192.612903 56.0208467,192.612903 C57.435589,192.612903 58.7014111,192.148387 59.3715522,191.374194 C59.3715522,191.374194 59.4460123,191.296774 59.5204724,191.219355 C59.8183129,191.064516 61.4564356,190.135484 63.8391596,190.832258 C64.3603805,190.987097 64.7326811,191.219355 65.3283621,191.529032 L65.3283621,191.529032 C65.3283621,191.529032 65.4028222,191.529032 65.4772823,191.683871 L65.4772823,191.683871 C66.1474234,192.458065 67.4877056,193 68.9769081,193 C71.2107118,193 72.9977547,191.83871 72.9977547,190.367742 C73.0722149,188.896774 71.2851719,187.658065 69.0513682,187.658065 Z" id="Shape" fill="#3A75D6" fill-rule="nonzero"></path>
                        <ellipse id="Oval" fill="#103966" fill-rule="nonzero" cx="63" cy="183" rx="3" ry="2"></ellipse>
                        <ellipse id="Oval" fill="#103966" fill-rule="nonzero" cx="56" cy="189" rx="3" ry="2"></ellipse>
                        <ellipse id="Oval" fill="#103966" fill-rule="nonzero" cx="68" cy="190" rx="3" ry="2"></ellipse>
                        <ellipse id="Oval" fill="#103966" fill-rule="nonzero" cx="63" cy="187" rx="3" ry="2"></ellipse>
                        <circle id="Oval" fill="#FFFFFF" fill-rule="nonzero" cx="62" cy="182.5" r="1"></circle>
                        <circle id="Oval" fill="#FFFFFF" fill-rule="nonzero" cx="55" cy="188.5" r="1"></circle>
                        <circle id="Oval" fill="#FFFFFF" fill-rule="nonzero" cx="69" cy="188.5" r="1"></circle>
                        <g id="Group" transform="translate(52.000000, 183.000000)" fill-rule="nonzero" fill="#11416D">
                            <path d="M15.5517241,1.38461538 C15.5517241,1.38461538 15.5517241,1.38461538 15.5517241,1.38461538 C15.3241379,1.61538462 15.1724138,1.84615385 15.1724138,2 C15.0965517,2.23076923 15.0965517,2.46153846 15.1724138,2.69230769 C15.1724138,2.61538462 15.1724138,2.61538462 15.1724138,2.53846154 C15.2482759,2.38461538 15.3241379,2.15384615 15.5517241,2 C15.5517241,2 15.5517241,2 15.5517241,2 C16.0827586,1.53846154 16.462069,1 16.462069,0.384615385 C16.462069,0.307692308 16.462069,0.153846154 16.462069,0.0769230769 C16.3862069,0.538461538 16.0827586,1 15.5517241,1.38461538 Z" id="Shape"></path>
                            <path d="M17.7517241,9.07692308 C16.2344828,9.07692308 14.8689655,8.53846154 14.1862069,7.76923077 L14.1862069,7.76923077 C14.0344828,7.61538462 14.0344828,7.61538462 14.0344828,7.61538462 L14.0344828,7.61538462 C13.4275862,7.30769231 13.0482759,7.07692308 12.5172414,6.92307692 C10.0896552,6.23076923 8.49655172,7.07692308 8.11724138,7.30769231 C8.04137931,7.38461538 8.04137931,7.38461538 7.96551724,7.46153846 C7.20689655,8.15384615 5.99310345,8.69230769 4.55172414,8.69230769 C2.42758621,8.69230769 0.682758621,7.61538462 0.455172414,6.30769231 C0.455172414,6.38461538 0.455172414,6.46153846 0.455172414,6.53846154 C0.455172414,8 2.27586207,9.23076923 4.55172414,9.23076923 C5.99310345,9.23076923 7.28275862,8.76923077 7.96551724,8 C7.96551724,8 8.04137931,7.92307692 8.11724138,7.84615385 C8.42068966,7.69230769 10.0896552,6.76923077 12.5172414,7.46153846 C13.0482759,7.61538462 13.4275862,7.84615385 14.0344828,8.15384615 L14.0344828,8.15384615 C14.0344828,8.15384615 14.1103448,8.15384615 14.1862069,8.30769231 L14.1862069,8.30769231 C14.8689655,9.07692308 16.2344828,9.61538462 17.7517241,9.61538462 C20.0275862,9.61538462 21.8482759,8.46153846 21.8482759,7 C21.8482759,6.92307692 21.8482759,6.84615385 21.8482759,6.76923077 C21.6206897,8.07692308 19.8758621,9.07692308 17.7517241,9.07692308 Z" id="Shape"></path>
                            <path d="M8.57241379,1.30769231 C8.57241379,1.30769231 8.64827586,1.38461538 8.72413793,1.53846154 C8.8,1.61538462 8.8,1.76923077 8.8,1.76923077 C8.8,1.84615385 8.87586207,2 8.87586207,2.15384615 C8.95172414,1.84615385 8.87586207,1.46153846 8.8,1.30769231 C8.8,1.30769231 8.72413793,1.23076923 8.72413793,1.07692308 C8.64827586,1 8.57241379,0.846153846 8.57241379,0.846153846 L8.57241379,0.846153846 C8.42068966,0.615384615 8.34482759,0.384615385 8.26896552,0.0769230769 C8.26896552,0.153846154 8.26896552,0.307692308 8.26896552,0.384615385 C8.26896552,0.692307692 8.34482759,1 8.57241379,1.30769231 L8.57241379,1.30769231 Z" id="Shape"></path>
                        </g>
                        <g id="Group" transform="translate(82.000000, 107.000000)" fill-rule="nonzero">
                            <polygon id="Shape" fill="#E5C6A6" points="0.149253731 13.4771429 20.9701493 24.8342857 20.9701493 52.3185714 0.149253731 40.8857143"></polygon>
                            <polygon id="Shape" fill="#F5C487" points="20.9701493 52.3185714 50 39.75 44.0298507 36.4185714"></polygon>
                            <polygon id="Shape" fill="#E8B98C" points="44.0298507 11.5085714 20.9701493 24.8342857 20.9701493 52.3185714 44.0298507 39.4471429"></polygon>
                            <polygon id="Shape" fill="#B8956F" points="0.149253731 13.4771429 23.0597015 0.151428571 44.0298507 11.5085714 20.9701493 24.8342857"></polygon>
                        </g>
                        <path d="M89.5199103,129.485198 C90.5991835,128.800804 91.9868206,128.876847 93.1431848,129.485198 C95.0704584,130.397723 97.9228234,132.831124 97.9999143,138.610451 C97.9999143,138.610451 98.0770053,144.846041 93.6057304,144.998129 C93.6057304,144.998129 89.1344556,145.302304 87.3613638,138.154189 C86.9759091,136.709357 86.8988181,135.188481 87.130091,133.743649 C87.3613638,132.222774 87.9780914,130.473767 89.5199103,129.485198 Z" id="Shape" fill="#FFFFFF" fill-rule="nonzero"></path>
                        <path d="M88.9211024,130.447764 C89.8151717,129.824788 90.9327584,129.90266 91.9013335,130.369892 C93.4659548,131.148611 95.8501397,133.251154 95.9991512,138.312831 C95.9991512,138.312831 96.1481628,143.841739 92.4973797,143.997483 C92.4973797,143.997483 88.9211024,144.308971 87.3564811,138.001343 C87.058458,136.755392 86.9094464,135.431569 87.058458,134.107745 C87.2074695,132.861794 87.6545042,131.304355 88.9211024,130.447764 Z" id="Shape" fill="#444447" fill-rule="nonzero"></path>
                        <path d="M90.3988214,133.308582 C91.0167058,132.911481 91.7032439,132.911481 92.3211282,133.229162 C93.3509354,133.785103 94.9299731,135.294085 94.9986269,138.947412 C94.9986269,138.947412 95.1359346,142.918419 92.6643973,142.997839 C92.6643973,142.997839 90.2615138,143.236099 89.2317066,138.709151 C89.0257452,137.83553 88.9570914,136.882488 89.0257452,135.929447 C89.2317066,135.055825 89.5749757,133.943943 90.3988214,133.308582 Z" id="Shape" fill="#FFFFFF" fill-rule="nonzero"></path>
                        <g id="Group" transform="translate(89.000000, 130.000000)" fill-rule="nonzero" fill="#444447">
                            <polygon id="Shape" points="0.572727273 3.3 3.76363636 10.4133333 4.33636364 10.56 0.9 2.86"></polygon>
                            <polygon id="Shape" points="1.8 1.39333333 5.80909091 10.9266667 6.54545455 10.7066667 2.45454545 0.953333333"></polygon>
                            <polygon id="Shape" points="4.41818182 0.293333333 3.84545455 0.733333333 7.85454545 10.2666667 8.59090909 10.0466667"></polygon>
                        </g>
                        <g id="Group" transform="translate(91.000000, 145.000000)" fill-rule="nonzero">
                            <path d="M0.8,0.571428571 C1.12,0.428571429 1.52,0.428571429 1.84,0.571428571 C2.4,0.785714286 3.28,1.42857143 3.28,2.92857143 C3.28,2.92857143 3.36,4.57142857 2,4.64285714 C2,4.64285714 0.72,4.71428571 0.16,2.85714286 C0.08,2.5 6.44623244e-15,2.07142857 0.08,1.71428571 C0.16,1.28571429 0.4,0.785714286 0.8,0.571428571 Z" id="Shape" fill="#444447"></path>
                            <path d="M1.2,1.42857143 C1.36,1.35714286 1.6,1.35714286 1.84,1.42857143 C2.16,1.57142857 2.64,1.92857143 2.64,2.78571429 C2.64,2.78571429 2.64,3.71428571 1.92,3.71428571 C1.92,3.71428571 1.2,3.78571429 0.88,2.71428571 C0.8,2.5 0.8,2.28571429 0.8,2.07142857 C0.88,1.78571429 0.96,1.57142857 1.2,1.42857143 Z" id="Shape" fill="#FFFFFF"></path>
                        </g>
                        <polygon id="Shape" fill="#613C00" fill-rule="nonzero" points="86 119.330935 105.822835 108 124 117.669065 104.027559 129"></polygon>
                        <polygon id="Shape" fill="#F5C487" fill-rule="nonzero" points="199 199.841379 219.677278 193.241379 250.428101 205 268 195.213793 251.715697 185.731034 209.830955 172"></polygon>
                        <path d="M101.11828,121.053613 C101.11828,121.053613 99.6129032,122.420992 96.5268817,122.041164 C93.516129,121.661337 89.827957,117.559201 89,112.317583 C89,112.317583 91.3333333,116.343753 92.311828,116.57165 C92.311828,116.57165 90.3548387,113.836893 91.483871,110.418446 C91.483871,110.418446 92.5376344,113.608996 95.0215054,116.267788 C95.0215054,116.267788 93.8172043,113.3811 94.2688172,110.038619 C94.2688172,110.038619 95.9247312,116.039892 98.483871,117.103408 C98.483871,117.103408 99.688172,117.559201 99.9139785,116.495684 C99.9139785,116.495684 99.311828,114.976375 99.7634409,113.988824 C99.7634409,113.988824 99.9892473,115.963926 101.11828,115.432168 C101.11828,115.432168 101.569892,115.05234 101.11828,113.988824 C100.666667,112.925307 99.3870968,110.19055 99.2365591,109.278964 C99.2365591,109.278964 101.193548,111.481963 101.645161,111.633894 C101.645161,111.633894 100.064516,110.114584 100.516129,107.607724 C100.516129,107.607724 101.569892,110.570377 103.602151,111.937756 L103.075269,107.607724 C103.075269,107.607724 105.935484,113.684962 107.064516,113.836893 C108.193548,113.988824 111.053763,109.202999 111.27957,107 C111.27957,107 112.483871,108.747206 110.451613,112.317583 C110.451613,112.317583 112.860215,112.697411 114.591398,107 C114.591398,107 115.193548,109.202999 113.688172,112.849342 C113.688172,112.849342 114.967742,112.469514 117,108.747206 C117,108.747206 115.870968,118.090959 107.892473,118.546752 L107.064516,118.622718 L108.11828,120.59782 C108.11828,120.59782 111.88172,119.382372 112.032258,116.115857 C112.032258,116.115857 113.462366,116.799546 112.55914,119.534303 C111.655914,122.269061 115.645161,116.875512 115.870968,115.432168 C115.870968,115.432168 116.473118,116.495684 114.967742,119.306407 L116.698925,117.255339 C116.698925,117.255339 116.473118,122.648888 110.075269,124.775921 C110.075269,124.775921 106.989247,125.839438 103,123.332577 L101.11828,121.053613 Z" id="Shape" fill="#78D039" fill-rule="nonzero"></path>
                        <g id="Group" transform="translate(91.000000, 107.000000)" fill-rule="nonzero" fill="#4EAD36">
                            <path d="M4.0625,11.8857143 C4.609375,12.1142857 5.15625,11.5047619 4.921875,10.9714286 L4.21875,9.44761905 C4.21875,9.44761905 2.421875,8.07619048 0.546875,3.58095238 C0.546875,3.58095238 -0.546875,5.94285714 1.40625,9.75238095 C1.40625,9.75238095 1.953125,11.047619 4.0625,11.8857143 Z" id="Shape"></path>
                            <path d="M12.8125,9.67619048 C12.8125,9.67619048 12.109375,7.92380952 11.796875,7.6952381 C11.5625,7.54285714 8.4375,2.36190476 8.4375,2.36190476 C11.796875,8.68571429 10.390625,8.53333333 10.390625,8.53333333 C8.984375,9.37142857 8.984375,7.08571429 8.984375,7.08571429 C8.828125,8.38095238 8.90625,8.76190476 9.140625,9.6 C9.375,10.4380952 11.09375,10.8190476 11.09375,10.8190476 C13.203125,12.1142857 12.8125,9.67619048 12.8125,9.67619048 Z" id="Shape"></path>
                            <path d="M24.53125,0.152380952 C24.53125,0.152380952 23.28125,5.56190476 20.234375,5.48571429 L18.984375,6.17142857 C18.984375,6.17142857 16.71875,8.07619048 18.984375,7.77142857 C21.25,7.46666667 23.59375,6.01904762 23.59375,6.01904762 C23.59375,6.01904762 24.84375,3.35238095 24.53125,0.152380952 Z" id="Shape"></path>
                            <path d="M1.015625,12.2666667 C1.015625,12.2666667 3.046875,14.7047619 5.703125,15.2380952 C5.703125,15.2380952 9.21875,15.5428571 10.46875,14.247619 L9.921875,13.6380952 C9.921875,13.6380952 5.390625,15.3142857 1.015625,12.2666667 Z" id="Shape"></path>
                            <path d="M11.25,10.8952381 C12.03125,14.6285714 12.5,13.7142857 12.5,13.7142857 C15.703125,16.0761905 14.21875,13.3333333 14.21875,13.3333333 C13.046875,13.2571429 11.25,10.8952381 11.25,10.8952381 Z" id="Shape"></path>
                            <path d="M16.640625,7.00952381 C14.296875,6.32380952 12.5,0.761904762 12.5,0.761904762 C13.28125,4.19047619 13.046875,6.93333333 15,7.77142857 C16.875,8.60952381 16.640625,7.00952381 16.640625,7.00952381 Z" id="Shape"></path>
                            <path d="M21.875,9.82857143 C21.875,9.6 21.796875,9.44761905 21.796875,9.21904762 C21.796875,9.21904762 21.796875,9.44761905 21.71875,9.9047619 C18.90625,10.8952381 15.9375,10.8952381 15.9375,10.8952381 L16.640625,11.8095238 C18.75,11.6571429 20.390625,11.047619 21.5625,10.4380952 C21.25,11.5809524 20.3125,13.3333333 17.578125,14.247619 C13.359375,15.6952381 18.4375,15.0095238 18.4375,15.0095238 C18.4375,15.0095238 22.34375,14.7809524 21.875,10.2095238 C22.890625,9.6 23.4375,9.14285714 23.4375,9.14285714 C22.96875,9.44761905 22.421875,9.67619048 21.875,9.82857143 Z" id="Shape"></path>
                        </g>
                        <g id="Group" transform="translate(149.000000, 162.000000)" fill-rule="nonzero">
                            <path d="M19.1835165,1.08301887 L0.834065934,11.7584906 C0.834065934,11.7584906 0.834065934,11.8358491 0.758241758,12.5320755 C0.682417582,14.0792453 2.5021978,14.9301887 2.5021978,14.9301887 L43.7505495,39.2207547 C43.7505495,39.2207547 46.4043956,41.309434 50.1197802,39.5301887 C53.8351648,37.7509434 68.4692308,30.7886792 68.4692308,30.7886792 L19.1835165,1.08301887 Z" id="Shape" fill="#95CDFF"></path>
                            <path d="M19.1835165,0.309433962 L3.10879121,9.43773585 C3.10879121,9.43773585 0.985714286,10.4433962 0.834065934,11.7584906 C0.682417582,13.2283019 2.57802198,14.1566038 2.57802198,14.1566038 L43.8263736,38.4471698 C43.8263736,38.4471698 46.4802198,40.5358491 50.1956044,38.7566038 C53.910989,36.9773585 68.5450549,30.0150943 68.5450549,30.0150943 L19.1835165,0.309433962 Z" id="Shape" fill="#DBF0FF"></path>
                            <polygon id="Shape" fill="#95CDFF" opacity="0.52" points="12.3593407 4.17735849 59.9010989 32.490566 53.910989 36.9 68.5450549 29.9377358 19.1835165 0.309433962"></polygon>
                        </g>
                        <g id="Group" transform="translate(133.000000, 37.000000)" fill-rule="nonzero">
                            <path d="M1.28037975,2.11555556 C1.28037975,2.11555556 2.0335443,0.302222222 6.32658228,0.302222222 C6.92911392,0.302222222 7.45632911,0.453333333 7.9835443,0.755555556 L115.083544,63.3911111 C115.083544,63.3911111 119,65.8088889 118.924684,71.6266667 L118.924684,164.333333 C118.924684,165.542222 118.623418,166.826667 117.644304,167.582222 C115.309494,169.471111 112.899367,169.622222 111.393038,169.471111 C110.71519,169.395556 110.71519,168.262222 110.112658,167.96 L8.73670886,108.12 C8.73670886,108.12 3.31392405,105.097778 3.76582278,99.28 L1.28037975,2.11555556 Z" id="Shape" fill="#95CDFF"></path>
                            <path d="M0.677848101,4.08 C0.677848101,4.08 0.677848101,1.05777778 3.23860759,1.05777778 C3.84113924,1.05777778 4.36835443,1.20888889 4.89556962,1.51111111 L111.99557,64.1466667 C111.99557,64.1466667 115.912025,66.5644444 115.836709,72.3822222 L115.836709,165.088889 C115.836709,166.297778 115.38481,167.506667 114.556329,168.337778 C113.878481,169.017778 112.824051,169.622222 111.317722,169.471111 C110.639873,169.395556 109.962025,169.168889 109.359494,168.791111 L5.64873418,108.875556 C5.64873418,108.875556 0.225949367,105.853333 0.677848101,100.035556 L0.677848101,4.08 Z" id="Shape" fill="#DBF0FF"></path>
                            <path d="M4.51898734,10.9555556 C4.51898734,10.9555556 4.36835443,8.00888889 5.57341772,7.48 C6.6278481,7.02666667 7.38101266,7.55555556 7.83291139,7.85777778 L107.476582,66.1111111 C107.476582,66.1111111 111.091772,68.3777778 111.016456,73.6666667 L111.016456,158.817778 C111.016456,159.951111 111.091772,162.142222 110.338608,162.897778 C109.660759,163.577778 108.606329,163.88 107.401266,163.351111 C106.798734,163.124444 105.593671,162.52 105.066456,162.217778 L9.03797468,107.137778 C9.03797468,107.137778 4.06708861,104.342222 4.51898734,99.0533333 L4.51898734,10.9555556 Z" id="Shape" fill="#6A90E5"></path>
                        </g>
                        <g id="Group" transform="translate(141.000000, 54.000000)" fill-rule="nonzero" fill="#FFFFFF">
                            <path d="M0.526356589,2.4972973 L0.526356589,2.57297297 C0.526356589,4.01081081 1.27829457,5.37297297 2.55658915,6.05405405 L36.8449612,26.0324324 C37.8224806,26.6378378 39.1007752,25.8810811 39.1007752,24.7459459 L39.1007752,24.0648649 C39.1007752,22.5513514 38.2736434,21.1135135 36.920155,20.2810811 L3.38372093,0.756756757 C2.10542636,0.151351351 0.526356589,1.05945946 0.526356589,2.4972973 Z" id="Shape"></path>
                            <path d="M43.3116279,27.3189189 L43.3116279,27.3189189 C43.2364341,28.8324324 43.9883721,30.2702703 45.3418605,31.027027 L58.575969,38.7459459 C59.8542636,39.5027027 61.4333333,38.5945946 61.4333333,37.0810811 L61.4333333,36.4756757 C61.4333333,35.3405405 60.8317829,34.3567568 59.8542636,33.7513514 L46.0937984,25.7297297 C44.8906977,25.0486486 43.3868217,25.8810811 43.3116279,27.3189189 Z" id="Shape"></path>
                            <path d="M65.0426357,39.9567568 L65.0426357,39.9567568 C64.9674419,41.4702703 65.7193798,42.9081081 67.0728682,43.6648649 L93.5410853,59.1027027 C94.8945736,59.9351351 96.624031,58.8756757 96.624031,57.2864865 L96.624031,56.9081081 C96.624031,55.772973 96.0224806,54.7135135 95.0449612,54.1837838 L67.8248062,38.3675676 C66.6968992,37.6864865 65.1178295,38.5945946 65.0426357,39.9567568 Z" id="Shape"></path>
                            <path d="M23.1596899,28.1513514 L23.1596899,28.5297297 C23.0844961,30.4972973 24.0620155,32.3891892 25.7162791,33.372973 L38.5744186,40.8648649 C39.7775194,41.5459459 41.3565891,40.7135135 41.3565891,39.2756757 L41.3565891,38.7459459 C41.3565891,37.4594595 40.679845,36.3243243 39.6271318,35.7189189 L25.0395349,27.2432432 C24.2124031,26.7135135 23.1596899,27.2432432 23.1596899,28.1513514 Z" id="Shape"></path>
                            <path d="M0.526356589,15.4378378 L0.526356589,15.6648649 C0.526356589,17.5567568 1.50387597,19.2216216 3.08294574,20.2054054 L16.1666667,27.8486486 C17.2945736,28.5297297 18.7232558,27.6972973 18.7232558,26.3351351 L18.7232558,25.5783784 C18.7232558,24.3675676 18.0465116,23.1567568 16.9937984,22.5513514 L2.63178295,14.1513514 C1.72945736,13.6216216 0.526356589,14.3027027 0.526356589,15.4378378 Z" id="Shape"></path>
                            <path d="M47.5976744,46.0108108 L93.4658915,72.7243243 C94.8945736,73.5567568 96.6992248,72.4972973 96.6992248,70.8324324 L96.6992248,70.8324324 C96.6992248,69.5459459 96.0224806,68.4108108 94.8945736,67.7297297 L47.1465116,39.9567568 C46.244186,39.427027 45.0410853,40.0324324 44.9658915,41.1675676 L44.9658915,41.2432432 C44.8906977,43.2108108 45.9434109,45.1027027 47.5976744,46.0108108 Z" id="Shape"></path>
                            <path d="M80.6077519,78.8540541 L94.6689922,87.027027 C95.5713178,87.5567568 96.6992248,86.8756757 96.6992248,85.8918919 L96.6992248,85.8918919 C96.6992248,83.772973 95.5713178,81.8054054 93.7666667,80.7459459 L80.0062016,72.7243243 C79.103876,72.1945946 77.975969,72.8 77.975969,73.8594595 L77.975969,73.8594595 C77.8255814,75.9027027 78.8031008,77.7945946 80.6077519,78.8540541 Z" id="Shape"></path>
                            <path d="M0.526356589,28.9081081 L0.526356589,29.0594595 C0.526356589,31.027027 1.57906977,32.7675676 3.23333333,33.7513514 L16.8434109,41.6972973 C17.7457364,42.227027 18.7984496,41.5459459 18.7984496,40.5621622 L18.7984496,40.5621622 C18.7984496,38.4432432 17.6705426,36.4756757 15.8658915,35.4162162 L2.63178295,27.6972973 C1.72945736,27.1675676 0.526356589,27.8486486 0.526356589,28.9081081 Z" id="Shape"></path>
                            <path d="M22.3325581,41.5459459 L22.3325581,41.5459459 C22.2573643,43.5891892 23.3100775,45.4810811 25.0395349,46.5405405 L72.1860465,74.0108108 C73.0883721,74.5405405 74.1410853,73.8594595 74.1410853,72.8756757 L74.1410853,72.8756757 C74.1410853,70.7567568 73.0131783,68.7891892 71.2085271,67.7297297 L24.4379845,40.4864865 C23.5356589,39.8810811 22.4077519,40.4864865 22.3325581,41.5459459 Z" id="Shape"></path>
                            <path d="M59.703876,80.2162162 L94.5186047,100.497297 C95.4209302,101.027027 96.624031,100.345946 96.624031,99.2864865 L96.624031,99.2864865 C96.624031,97.2432432 95.5713178,95.3513514 93.7666667,94.2918919 L59.7790698,74.5405405 C58.7263566,73.9351351 57.3728682,74.6918919 57.2976744,75.9027027 L57.2976744,75.9027027 C57.2976744,77.6432432 58.2,79.3081081 59.703876,80.2162162 Z" id="Shape"></path>
                            <path d="M0.526356589,42.9081081 L0.526356589,42.9081081 C0.526356589,44.7243243 1.42868217,46.3135135 2.93255814,47.1459459 L29.475969,62.5837838 C30.4534884,63.1891892 31.7317829,62.4324324 31.7317829,61.2972973 L31.7317829,61.2972973 C31.7317829,59.4054054 30.6790698,57.5891892 29.1,56.6810811 L3.08294574,41.5459459 C1.95503876,40.8648649 0.526356589,41.6216216 0.526356589,42.9081081 Z" id="Shape"></path>
                            <path d="M35.4162791,63.1135135 L35.4162791,63.1135135 C35.3410853,64.8540541 36.2434109,66.5189189 37.7472868,67.427027 L51.8837209,75.6756757 C52.7108527,76.1297297 53.6883721,75.5243243 53.6883721,74.6162162 L53.6883721,74.6162162 C53.6883721,72.3459459 52.4852713,70.3027027 50.5302326,69.1675676 L37.8224806,61.827027 C36.7697674,61.1459459 35.4914729,61.9027027 35.4162791,63.1135135 Z" id="Shape"></path>
                            <path d="M0.526356589,56.1513514 L0.526356589,56.1513514 C0.526356589,58.1189189 1.57906977,59.9351351 3.23333333,60.9189189 L49.3271318,87.7837838 C50.379845,88.3891892 51.7333333,87.6324324 51.7333333,86.4216216 L51.7333333,86.4216216 C51.7333333,84.6054054 50.755814,82.8648649 49.1767442,81.9567568 L2.78217054,54.9405405 C1.80465116,54.3351351 0.526356589,55.0162162 0.526356589,56.1513514 Z" id="Shape"></path>
                            <path d="M80.4573643,105.87027 L94.3682171,113.967568 C95.3457364,114.572973 96.624031,113.816216 96.624031,112.681081 L96.624031,112.681081 C96.624031,110.713514 95.5713178,108.972973 93.9170543,107.989189 L80.0062016,99.8918919 C79.0286822,99.3621622 77.9007752,99.9675676 77.8255814,101.102703 L77.8255814,101.102703 C77.8255814,103.07027 78.8031008,104.886486 80.4573643,105.87027 Z" id="Shape"></path>
                            <path d="M55.4178295,88.0864865 L55.4178295,88.0864865 C55.3426357,89.9783784 56.320155,91.7945946 57.8992248,92.7027027 L72.2612403,101.102703 C73.0883721,101.556757 74.1410853,100.951351 74.1410853,100.043243 L74.1410853,100.043243 C74.1410853,97.8486486 72.9379845,95.8054054 71.0581395,94.6702703 L57.5984496,86.8756757 C56.696124,86.2702703 55.4930233,86.9513514 55.4178295,88.0864865 Z" id="Shape"></path>
                            <path d="M0.526356589,69.772973 L0.526356589,69.772973 C0.526356589,71.5135135 1.42868217,73.1783784 3.00775194,74.0864865 L16.9186047,82.1837838 C17.7457364,82.6378378 18.7984496,82.0324324 18.7984496,81.0486486 L18.7984496,81.0486486 C18.7984496,78.8540541 17.6705426,76.8864865 15.7906977,75.7513514 L2.93255814,68.2594595 C1.95503876,67.7297297 0.526356589,68.4864865 0.526356589,69.772973 Z" id="Shape"></path>
                            <path d="M80.2317829,119.037838 L95.0449612,127.664865 C95.7217054,128.043243 96.624031,127.589189 96.624031,126.756757 L96.624031,126.756757 C96.624031,124.335135 95.3457364,122.064865 93.2403101,120.854054 L80.3069767,113.362162 C79.2542636,112.756757 77.9007752,113.513514 77.8255814,114.724324 L77.8255814,114.724324 C77.8255814,116.464865 78.727907,118.12973 80.2317829,119.037838 Z" id="Shape"></path>
                            <path d="M22.5581395,82.4864865 L22.5581395,82.4864865 C22.4829457,84.227027 23.3852713,85.8918919 24.8891473,86.8 L72.1860465,114.345946 C73.0883721,114.875676 74.2162791,114.194595 74.2162791,113.210811 L74.2162791,113.210811 C74.2162791,111.091892 73.0883721,109.124324 71.2837209,108.064865 L25.0395349,81.1243243 C23.9116279,80.5189189 22.6333333,81.2756757 22.5581395,82.4864865 Z" id="Shape"></path>
                            <path d="M67.524031,123.578378 L95.0449612,139.621622 C95.7968992,140.075676 96.6992248,139.545946 96.6992248,138.637838 L96.6992248,138.637838 C96.6992248,136.291892 95.4209302,134.097297 93.3906977,132.886486 L67.6744186,117.978378 C66.6217054,117.372973 65.2682171,118.12973 65.1930233,119.340541 L65.1930233,119.340541 C65.1178295,121.081081 66.020155,122.67027 67.524031,123.578378 Z" id="Shape"></path>
                            <path d="M0.526356589,81.1243243 L0.526356589,81.1243243 C0.526356589,83.2432432 1.65426357,85.2108108 3.45891473,86.2702703 L37.1457364,105.87027 C38.1984496,106.475676 39.4015504,105.718919 39.4015504,104.508108 L39.4015504,104.508108 C39.4015504,102.616216 38.424031,100.875676 36.7697674,99.8918919 L2.48139535,79.9135135 C1.65426357,79.5351351 0.526356589,80.1405405 0.526356589,81.1243243 Z" id="Shape"></path>
                            <path d="M43.1612403,105.87027 L43.1612403,105.87027 C43.0860465,107.989189 44.1387597,109.956757 45.9434109,111.091892 L59.4782946,118.962162 C60.3806202,119.491892 61.5085271,118.810811 61.5085271,117.827027 L61.5085271,117.827027 C61.5085271,115.708108 60.3806202,113.740541 58.575969,112.681081 L45.1162791,104.886486 C44.2891473,104.281081 43.2364341,104.886486 43.1612403,105.87027 Z" id="Shape"></path>
                        </g>
                        <ellipse id="Oval" fill="#F5C487" fill-rule="nonzero" cx="281" cy="234" rx="15" ry="6"></ellipse>
                        <g id="Group" transform="translate(266.000000, 205.000000)" fill-rule="nonzero">
                            <path d="M0,5.25241379 L0,29.9696552 L0,29.9696552 C0.15007215,32.5186207 5.55266955,34.6041379 12.2308802,34.6041379 C18.8340548,34.6041379 24.2366522,32.5186207 24.4617605,29.9696552 L24.4617605,29.9696552 L24.4617605,5.25241379 L0,5.25241379 Z" id="Shape" fill="#3DA8E2"></path>
                            <ellipse id="Oval" fill="#FFFFFF" cx="12.2308802" cy="5.17517241" rx="12.2308802" ry="5.17517241"></ellipse>
                            <ellipse id="Oval" fill="#613C00" cx="12.2308802" cy="4.71172414" rx="11.030303" ry="4.40275862"></ellipse>
                            <g id="Shape" opacity="0.53" transform="translate(8.253968, 4.634483)" fill="#FFFFFF">
                                <path d="M6.6031746,5.63862069 C5.77777778,5.71586207 4.87734488,5.79310345 3.97691198,5.79310345 C2.77633478,5.79310345 1.57575758,5.71586207 0.45021645,5.56137931 L0.45021645,29.737931 C1.57575758,29.8924138 2.7012987,29.9696552 3.97691198,29.9696552 C4.87734488,29.9696552 5.77777778,29.8924138 6.6031746,29.8924138 L6.6031746,5.63862069 Z" opacity="0.68"></path>
                                <path d="M16.2077922,0.617931034 C16.1327561,2.70344828 13.0562771,4.55724138 8.77922078,5.32965517 L8.77922078,29.5834483 C13.0562771,28.8882759 16.0577201,27.2662069 16.2077922,25.3351724 L16.2077922,25.3351724 L16.2077922,0.617931034 L16.2077922,0.617931034 Z" opacity="0.68"></path>
                            </g>
                        </g>
                        <path d="M278,206 L280.086957,212 L288.807453,210.540541 L290,210.297297 C289.776398,209.486486 288.881988,208.351351 287.018634,207.459459 C285.15528,206.567568 282.84472,206.081081 282.84472,206.081081 L278,206 Z" id="Shape" fill="#000000" fill-rule="nonzero" opacity="0.49"></path>
                        <path d="M289.698313,186.265934 C288.394085,186.49011 287.473453,187.685714 287.473453,189.030769 L287.473453,194.635165 C287.473453,195.457143 286.78298,196.12967 285.939068,196.12967 L283.253892,196.12967 L283.253892,182.230769 C283.253892,179.316484 280.875594,177 277.883542,177 C274.89149,177 272.513192,179.316484 272.513192,182.230769 L272.513192,191.048352 L270.211613,191.048352 C269.367701,191.048352 268.677227,190.375824 268.677227,189.553846 L268.677227,183.949451 C268.677227,182.604396 267.756596,181.408791 266.452368,181.184615 C264.611105,180.810989 263,182.156044 263,183.874725 L263,190.151648 C263,193.663736 265.915333,196.503297 269.52114,196.503297 L272.359753,196.503297 L272.359753,209.654945 C272.359753,210.402198 274.738051,211 277.730104,211 C280.722156,211 283.100454,210.402198 283.100454,209.654945 L283.100454,201.584615 L287.320015,201.584615 C290.465506,201.584615 292.997242,199.118681 292.997242,196.054945 L292.997242,188.956044 C293.073961,187.237363 291.539576,185.892308 289.698313,186.265934 Z" id="Shape" fill="#78D039" fill-rule="nonzero"></path>
                        <path d="M158.69011,0.233040174 L186.487912,16.5275992 C188.72967,17.8220268 190,20.2585964 190,22.8474515 L189.402198,47.6700041 C189.402198,49.19286 187.832967,50.1065736 186.487912,49.4212884 L181.630769,46.7562905 C181.630769,46.7562905 181.257143,47.6700041 181.107692,49.2690028 C180.958242,50.8680016 180.883516,53 180.883516,53 C180.883516,53 178.567033,49.8781452 177.81978,48.2791465 C177.072527,46.6801477 176.4,43.4821501 176.4,43.4821501 L158.69011,31.9845874 C157.195604,30.994731 156.224176,29.3195895 156.224176,27.4921623 L156,1.83203896 C156,0.461468571 157.494505,-0.452245019 158.69011,0.233040174 Z" id="Shape" fill="#E9F2FA" fill-rule="nonzero"></path>
                        <path d="M212.692009,11.522003 L248.459366,32.6195695 C251.30537,34.3012596 253.074508,37.3588779 252.997589,40.7222581 L252.612994,71.5277629 C252.612994,74.2031789 249.69007,75.884869 247.30558,74.5089408 L223.92219,61.1318605 C223.614514,60.9789796 223.306838,61.0554201 223.153,61.3611819 C222.845323,62.2020269 222.076133,63.6543957 221.306942,64.6481216 C219.999319,66.2533712 218.614776,67.2470972 217.691747,67.8586209 C217.307152,68.0879422 216.768719,67.7821804 216.845638,67.2470972 C217.153314,66.0240499 217.537909,64.0365979 217.614828,62.8899911 C217.999424,58.8386468 217.230233,57.1569567 216.999476,56.6983139 C216.922557,56.6218735 216.845638,56.545433 216.768719,56.4689926 L210.922871,53.3349338 C208.461462,52.035446 207,49.5129108 207,46.7610543 L207,14.5796213 C207,11.8277648 210.153681,10.0696343 212.692009,11.522003 Z" id="Shape" fill="#E9F2FA" fill-rule="nonzero"></path>
                        <path d="M238.663392,42.9450241 C237.902134,42.4326546 237.140877,41.9202851 236.303493,41.4811112 C236.531871,40.895546 236.684122,40.3099808 236.760248,39.7976113 C237.293128,37.2357636 236.684122,35.1862855 235.161607,33.8687638 C234.400349,33.210003 233.106211,32.5512421 231.126941,32.7708291 C229.985055,32.9172204 228.690917,33.2831986 227.472904,33.9419595 C224.580125,30.3553727 221.61122,27.793525 219.784202,28.013112 C217.957184,28.2326989 218.109435,31.0873292 219.403573,34.8203072 C217.652681,34.454329 216.206291,34.3811333 215.14053,34.454329 C213.313512,34.6739159 212.932883,35.4790681 213.009009,36.1378289 C213.085135,38.0409157 215.977914,40.5295678 219.860328,42.8718285 C219.631951,43.4573937 219.479699,43.9697632 219.403573,44.5553284 C218.946819,47.0439804 219.479699,49.0202629 220.926089,50.3377846 C221.61122,50.9965454 222.905358,51.7285019 224.808503,51.5821106 C225.950389,51.5089149 227.168401,51.1429367 228.386414,50.4841759 C231.355318,54.2903495 234.476475,57.0717842 236.455745,56.9985885 C238.51114,56.9253929 238.282763,53.8511757 236.836374,49.8986107 C238.739518,50.3377846 240.338159,50.4841759 241.556171,50.4109802 C243.611567,50.2645889 244.068321,49.3862411 243.992196,48.6542847 C243.839944,47.1903717 242.012926,45.2140892 238.663392,42.9450241 Z M231.812073,33.9419595 C232.95396,33.7955682 233.943595,34.0151551 234.552601,34.5275246 C235.542236,35.3326768 235.846739,37.0161767 235.46611,38.9924592 C235.389984,39.5780243 235.161607,40.0903939 235.009355,40.6759591 C233.715217,39.9440026 232.344953,39.2852417 230.97469,38.6264809 C230.137306,37.3821549 229.299923,36.1378289 228.462539,35.0398942 C229.5283,34.454329 230.746312,34.0151551 231.812073,33.9419595 Z M222.296352,41.1151329 C222.52473,41.6275025 222.829233,42.139872 223.133736,42.5790459 C223.438239,43.0914154 223.742742,43.603785 223.971119,44.0429588 C223.05761,43.603785 222.220227,43.1646111 221.458969,42.7254372 C221.687346,42.2130677 221.915724,41.6275025 222.296352,41.1151329 Z M222.144101,38.6264809 C221.763472,37.7481331 221.382843,37.0161767 221.07834,36.2110245 C221.839598,36.4306115 222.676981,36.6501984 223.59049,36.8697854 C223.362113,37.162568 223.05761,37.3821549 222.829233,37.6749375 C222.600855,38.0409157 222.372478,38.3336983 222.144101,38.6264809 Z M222.905358,40.1635895 C223.209862,39.65122 223.59049,39.2120461 223.971119,38.7728722 C224.351748,38.3336983 224.808503,37.8945244 225.189131,37.4553505 C226.026515,37.7481331 226.863898,38.0409157 227.701282,38.406894 C228.538665,38.7728722 229.452174,39.1388504 230.289558,39.5048287 C230.746312,40.2367852 231.279193,41.0419373 231.735947,41.9202851 C232.192702,42.7254372 232.649456,43.5305893 233.030085,44.3357414 C232.649456,44.848111 232.344953,45.2872849 231.888199,45.7264587 C231.50757,46.1656326 231.050815,46.6048065 230.594061,47.0439804 C229.756677,46.7511978 228.919294,46.3852196 228.005785,46.0192413 C227.092276,45.6532631 226.254892,45.2872849 225.493635,44.9213066 C225.03688,44.1893501 224.580125,43.384198 224.047245,42.5790459 C223.666616,41.7006981 223.285987,40.895546 222.905358,40.1635895 Z M233.106211,46.7511978 C233.334588,46.4584152 233.639091,46.1656326 233.867469,45.87285 C234.324223,46.7511978 234.628726,47.5563499 235.009355,48.3615021 C234.171972,48.1419151 233.258463,47.8491325 232.344953,47.5563499 C232.573331,47.2635674 232.877834,47.0439804 233.106211,46.7511978 Z M233.715217,43.3110024 C233.410714,42.7986328 233.182337,42.2862633 232.877834,41.7738938 C232.573331,41.2615242 232.268828,40.7491547 231.964325,40.2367852 C232.877834,40.6759591 233.791343,41.1151329 234.628726,41.6275025 C234.324223,42.139872 234.01972,42.7254372 233.715217,43.3110024 Z M227.54903,35.5522637 C228.081911,36.2842202 228.690917,37.0893723 229.223797,37.8945244 C228.690917,37.6749375 228.158036,37.4553505 227.625156,37.2357636 C227.092276,37.0161767 226.559395,36.7965897 226.026515,36.6501984 C226.559395,36.2842202 227.092276,35.9182419 227.54903,35.5522637 Z M220.469334,29.1110467 C221.535095,28.9646554 223.971119,30.9409379 226.711647,34.3811333 C225.950389,34.8935029 225.189131,35.4058724 224.504,36.0646332 C223.133736,35.6254594 221.915724,35.2594811 220.697711,34.9666985 C219.403573,31.5265031 219.327448,29.257438 220.469334,29.1110467 Z M214.227021,36.6501984 C214.227021,36.0646332 214.759902,35.698655 215.825662,35.6254594 C216.815297,35.5522637 218.261687,35.6254594 219.860328,35.9914376 C220.317082,37.162568 220.849963,38.406894 221.458969,39.5780243 C220.926089,40.3831765 220.469334,41.1883286 220.164831,41.9934807 C216.510794,39.7976113 214.227021,37.7481331 214.227021,36.6501984 Z M224.047245,50.3377846 C222.981484,50.4109802 221.991849,50.1913933 221.458969,49.6058281 C220.54546,48.800676 220.240957,47.1903717 220.621586,45.2140892 C220.697711,44.7017197 220.849963,44.1161545 221.07834,43.603785 C222.296352,44.3357414 223.59049,44.9945023 224.960754,45.6532631 C225.798138,46.8975891 226.635521,48.1419151 227.472904,49.3130455 C226.254892,49.8986107 225.113006,50.2645889 224.047245,50.3377846 Z M228.234162,48.800676 C227.701282,48.0687195 227.092276,47.2635674 226.559395,46.3852196 C227.092276,46.6048065 227.625156,46.8243935 228.158036,47.1171761 C228.690917,47.336763 229.223797,47.5563499 229.756677,47.7759369 C229.299923,48.1419151 228.767042,48.5078934 228.234162,48.800676 Z M235.694487,55.7542625 C234.552601,55.8274581 232.04045,53.6315887 229.223797,50.045002 C229.985055,49.6058281 230.746312,49.0202629 231.50757,48.3615021 C232.877834,48.8738716 234.248098,49.2398498 235.46611,49.6058281 C236.836374,53.3388061 236.836374,55.6810669 235.694487,55.7542625 Z M240.718788,49.1666542 C239.576901,49.2398498 238.054386,49.0934585 236.227367,48.6542847 C235.770613,47.4099586 235.161607,46.1656326 234.476475,44.848111 C235.009355,44.0429588 235.46611,43.1646111 235.846739,42.3594589 C236.684122,42.8718285 237.44538,43.3110024 238.206637,43.8233719 C240.794913,45.5800675 242.393554,47.1903717 242.46968,48.1419151 C242.545806,48.7274803 241.9368,49.0934585 240.718788,49.1666542 Z M229.604426,45.2140892 C231.126941,45.0676979 231.583696,43.603785 230.594061,41.9202851 C229.604426,40.2367852 227.625156,38.9924592 226.102641,39.1388504 C224.580125,39.2852417 224.123371,40.7491547 225.113006,42.4326546 C226.026515,44.0429588 228.081911,45.2872849 229.604426,45.2140892 Z" id="Shape" fill="#4E71F2" fill-rule="nonzero"></path>
                        <path d="M218,221 C218,221 219.933535,220.457323 225.734139,217.123736 C231.148036,214.022725 232.694864,213.247473 232.694864,213.247473 C232.694864,213.247473 235.015106,211.696967 233.468278,210.146462 C231.844109,208.518431 218,221 218,221 Z" id="Shape" fill="#F5C487" fill-rule="nonzero"></path>
                        <path d="M181.677489,32.2036802 C179.594865,24.1982789 171.032967,20.4976688 171.032967,20.4976688 C171.032967,20.4976688 170.72443,19.591397 169.721685,19.0627384 C169.027477,18.6851251 168.641806,19.6669196 168.641806,20.2711009 C168.641806,20.7997594 168.641806,21.6305086 169.79882,22.2346899 C170.955833,22.6878258 171.032967,21.4794633 171.032967,21.4794633 C174.19547,23.292007 175.815288,24.6514148 175.815288,24.6514148 C181.137549,29.0317287 180.906146,34.1672692 180.906146,34.1672692 C180.983281,36.5839941 179.826267,37.1881753 179.826267,37.1881753 C177.820778,38.7741511 174.19547,35.6021996 174.19547,35.6021996 C174.19547,35.6021996 173.732664,35.300109 173.501262,35.6021996 C173.269859,35.8287676 173.578396,36.2819035 173.578396,36.2819035 C174.426872,37.03713 175.738154,37.7923566 176.58663,38.2454925 C177.203704,38.5475831 177.820778,38.7741511 178.360717,38.9251964 C183.52871,39.8314682 181.677489,32.2036802 181.677489,32.2036802 Z M175.198215,30.5421818 C175.198215,30.5421818 175.969557,30.9953177 176.432362,30.2400912 C176.740899,29.7114326 176.046691,28.4275475 175.506751,27.8988889 C175.12108,27.445753 174.426872,26.6905264 173.809799,27.5967983 C173.424128,28.5785928 174.349738,29.7114326 174.349738,29.7114326 C172.807054,31.8260669 171.727175,32.4302481 171.727175,32.4302481 C168.564672,34.4693598 165.170767,30.4666591 165.170767,30.4666591 C163.628082,28.8051607 163.165277,27.219185 163.165277,27.219185 C162.008264,24.0472336 163.936619,22.3102125 163.936619,22.3102125 C163.936619,22.3102125 164.090888,22.0081219 163.936619,21.554986 C163.782351,21.1018501 163.473814,21.1018501 163.473814,21.1018501 C163.011009,21.554986 162.548203,22.4612578 162.316801,23.0654391 C162.162532,23.518575 162.008264,23.9717109 162.008264,24.5003695 C161.776861,29.1072514 166.482048,32.7323387 166.482048,32.7323387 C172.112846,36.6595167 175.198215,30.5421818 175.198215,30.5421818 Z M167.25339,27.8233663 C167.484793,28.8051607 168.564672,29.409342 169.104612,29.4848646 C169.490283,29.4848646 170.184491,29.6359099 169.721685,27.9744116 C169.104612,26.3129132 168.101867,26.1618679 168.101867,26.1618679 C167.021988,21.9325993 166.867719,19.9690103 166.867719,19.9690103 C166.173511,13.5495847 170.030222,13.5495847 170.030222,13.5495847 C171.804309,13.5495847 172.807054,14.6069018 172.807054,14.6069018 C175.892422,17.0991494 175.198215,21.4039407 175.198215,21.4039407 C175.198215,21.4039407 175.352483,22.0836446 175.815288,22.4612578 C176.278094,22.8388711 176.355228,22.3857352 176.355228,22.3857352 C176.200959,21.1018501 176.663765,19.6669196 176.278094,18.5340798 C175.969557,17.7033306 175.815288,16.7970588 175.352483,16.0418323 C171.650041,9.69792934 167.947598,12.7188355 167.947598,12.7188355 C163.859485,15.3621284 167.25339,26.0863452 167.25339,26.0863452 C167.25339,26.0863452 166.867719,26.4639585 167.25339,27.8233663 Z" id="Shape" fill="#F23F45" fill-rule="nonzero"></path>
                        <path d="M212,220.855308 C212,220.855308 215.018686,221.999843 221.886196,217.850903 C228.753707,213.701962 231.696925,212.62896 231.696925,212.62896 C231.696925,212.62896 235.470283,210.697557 233.357203,210.125289 C231.244123,209.553022 223.546474,211.126758 223.546474,211.126758 L212,220.855308 Z" id="Shape" fill="#95CDFF" fill-rule="nonzero"></path>
                        <path d="M70.9037042,162 L71.6626782,162.68025 C71.6626782,162.68025 72.4216522,163.436084 71.6626782,164.191918 C70.9037042,164.947752 50.4114067,178.552761 50.4114067,178.552761 C50.4114067,178.552761 48.8934587,179.308595 47.0719212,178.855095 C45.4780758,178.552761 70.9037042,162 70.9037042,162 Z" id="Shape" fill="#F5C487" fill-rule="nonzero"></path>
                        <path d="M205.299524,215.306878 C205.299524,215.306878 207.159679,211.00495 217.353328,206.851364 C217.353328,206.851364 222.636168,204.626229 228.067821,207.370562 C228.067821,207.370562 231.490506,208.779815 231.936944,209.892382 C232.308975,210.856607 230.969663,211.449977 229.630351,211.746661 C227.844602,212.191688 222.264137,213.971797 217.427734,218.273724 C212.591331,222.575652 208.796615,220.498859 208.796615,220.498859 C208.796615,220.498859 203.736993,218.273724 205.299524,215.306878 Z" id="Shape" fill="#DBF0FF" fill-rule="nonzero"></path>
                        <g id="Group" transform="translate(38.000000, 157.000000)" fill-rule="nonzero">
                            <path d="M33.2444444,6.45333333 L33.2444444,6.45333333 L33.2444444,5.28 L32.7911111,5.79333333 C32.7911111,5.79333333 32.7155556,5.72 32.7155556,5.72 L23.8,1.61333333 C22.8177778,1.17333333 21.76,1.24666667 20.8533333,1.83333333 L2.04,14.1533333 L0.453333333,14.4466667 L0.453333333,15.6933333 L0.453333333,15.6933333 C0.453333333,15.9133333 0.604444444,16.1333333 0.831111111,16.28 L8.84,21.34 C9.82222222,21.9266667 11.0311111,21.9266667 11.9377778,21.2666667 L32.7911111,7.33333333 C33.1688889,7.11333333 33.32,6.74666667 33.2444444,6.45333333 Z" id="Shape" fill="#95CDFF"></path>
                            <path d="M23.8,0.366666667 L32.7155556,4.47333333 C33.3955556,4.76666667 33.4711111,5.72 32.8666667,6.16 L12.0133333,20.0933333 C11.1066667,20.68 9.89777778,20.7533333 8.91555556,20.1666667 L0.906666667,15.1066667 C0.453333333,14.8133333 0.453333333,14.1533333 0.906666667,13.7866667 L21.0044444,0.66 C21.76,-2.59514632e-14 22.8177778,-0.0733333333 23.8,0.366666667 Z" id="Shape" fill="#DBF0FF"></path>
                            <polygon id="Shape" fill="#000000" points="20.4 1.61333333 4.00444444 12.3933333 13.4488889 18.1866667 30.7511111 6.52666667"></polygon>
                            <polygon id="Shape" fill="#000000" points="24.7822222 2.78666667 27.3511111 4.03333333 27.6533333 3.81333333 25.0844444 2.56666667"></polygon>
                        </g>
                        <circle id="Oval" fill="#95CDFF" fill-rule="nonzero" opacity="0.52" transform="translate(214.000000, 215.500000) rotate(-32.030890) translate(-214.000000, -215.500000) " cx="214" cy="215.5" r="1"></circle>
                        <path d="M277,178 L277,211 C277,211 280.333333,211 282,210.25 L282,182.5 C282,182.5 282,178.75 277,178 Z" id="Shape" fill="#4EAD36" fill-rule="nonzero"></path>
                        <path d="M266,182 C266,182 267.555556,182 268.333333,183.5 L268.333333,189.5 C268.333333,189.5 268.333333,190.25 269.111111,191 C269.111111,191 269.888889,191.75 270.666667,191.75 L273,191.75 L273,194 L270.666667,194 C270.666667,194 268.333333,194 267.555556,193.25 C267.555556,193.25 266,192.5 266,191 L266,182 Z" id="Shape" fill="#4EAD36" fill-rule="nonzero"></path>
                        <ellipse id="Oval" fill="#E7F1F7" fill-rule="nonzero" cx="255" cy="386" rx="26" ry="11"></ellipse>
                        <path d="M289.75,188 C289.75,188 291.25,188 292,189.555556 L292,197.333333 C292,197.333333 292,201.222222 288.25,202 L283,202 L283,199.666667 L288.25,199.666667 C288.25,199.666667 289.75,198.888889 289.75,197.333333 L289.75,188 Z" id="Shape" fill="#4EAD36" fill-rule="nonzero"></path>
                        <g id="Group" transform="translate(229.000000, 330.000000)" fill-rule="nonzero">
                            <g transform="translate(0.000000, 40.672100)">
                                <ellipse id="Oval" fill="#9AB7E0" cx="23" cy="14.5805643" rx="23" ry="11.5109718"></ellipse>
                                <polygon id="Shape" fill="#9AB7E0" points="0 10.7435737 0 15.3479624 3.7704918 18.4175549 4.52459016 11.5109718"></polygon>
                                <polygon id="Shape" fill="#9AB7E0" points="46 15.3479624 46 10.7435737 41.4754098 10.7435737 42.9836066 19.9523511"></polygon>
                                <ellipse id="Oval" fill="#E7F1F7" cx="23" cy="11.5109718" rx="23" ry="11.5109718"></ellipse>
                            </g>
                            <path d="M0.754098361,15.3479624 L0.754098361,52.1830721 L0.829508197,52.1830721 C1.50819672,57.938558 11.1606557,62.4662069 23,62.4662069 C34.8393443,62.4662069 44.5672131,57.938558 45.1704918,52.1830721 L45.2459016,52.1830721 L45.2459016,15.3479624 L0.754098361,15.3479624 Z" id="Shape" fill="#E7F1F7"></path>
                            <path d="M44.7180328,10.7435737 C41.5508197,6.29266458 33.0295082,3.06959248 23,3.06959248 C12.8196721,3.06959248 4.22295082,6.36940439 1.20655738,10.9737931 L0,10.7435737 L0,15.3479624 L0.0754098361,15.4247022 C0.904918033,21.4104075 10.8590164,26.0915361 23,26.0915361 C35.1409836,26.0915361 45.0196721,21.4104075 45.9245902,15.4247022 L46,15.3479624 L46,10.7435737 L44.7180328,10.7435737 Z" id="Shape" fill="#9AB7E0"></path>
                            <ellipse id="Oval" fill="#E7F1F7" cx="23" cy="11.5109718" rx="23" ry="11.5109718"></ellipse>
                            <ellipse id="Oval" fill="#C3D6ED" cx="23" cy="11.6644514" rx="22.2459016" ry="10.8970533"></ellipse>
                            <path d="M22.7737705,22.5615047 C32.5770492,22.5615047 40.947541,19.4151724 43.8885246,15.1177429 C43.5114754,9.59247649 34.1606557,5.1415674 22.7737705,5.1415674 C11.3868852,5.1415674 2.11147541,9.59247649 1.65901639,15.1177429 C4.67540984,19.4151724 12.9704918,22.5615047 22.7737705,22.5615047 Z" id="Shape" fill="#879EB2"></path>
                            <path d="M22.7737705,61.6988088 C32.5770492,61.6988088 40.947541,58.5524765 43.8885246,54.255047 C43.5114754,48.7297806 34.1606557,44.2788715 22.7737705,44.2788715 C11.3868852,44.2788715 2.11147541,48.7297806 1.65901639,54.255047 C4.67540984,58.5524765 12.9704918,61.6988088 22.7737705,61.6988088 Z" id="Shape" fill="#879EB2" opacity="0.19"></path>
                        </g>
                    </g>
                </g>
            </g>
        </g>
    </g>
</svg>