<?xml version="1.0" encoding="UTF-8" standalone="no"?>
<svg width="454px" height="400px" viewBox="0 0 454 400" version="1.1" xmlns="http://www.w3.org/2000/svg" xmlns:xlink="http://www.w3.org/1999/xlink">
    <!-- Generator: Sketch 43.1 (39012) - http://www.bohemiancoding.com/sketch -->
    <title>logo</title>
    <desc>Created with Sketch.</desc>
    <defs></defs>
    <g id="Page-1" stroke="none" stroke-width="1" fill="none" fill-rule="evenodd">
        <g id="bower" transform="translate(-173.000000, -100.000000)">
            <g id="logo" transform="translate(173.000000, 100.000000)">
                <path d="M110.420593,249.214665 C92.9685867,269.458979 -92.0226913,284.816746 76.91274,41.8848161 C133.983131,-1.72995705 297.506103,-11.1692828 263.300175,129.144851 C229.094246,269.458985 148.116928,261.082031 110.420593,249.214665 Z M175.342059,142.408377 C197.317788,142.408377 215.132635,124.593529 215.132635,102.617801 C215.132635,80.6420728 197.317788,62.8272251 175.342059,62.8272251 C153.366331,62.8272251 135.551483,80.6420728 135.551483,102.617801 C135.551483,124.593529 153.366331,142.408377 175.342059,142.408377 Z" id="head" fill="#EF5634"></path>
                <path d="M247.244328,274.345548 C244.234456,269.016606 241.197882,261.334422 240.263525,256.19546 C244.452007,266.666664 280.752182,268.760908 282.148342,249.21466 C291.921466,258.289703 331.712042,252.705061 325.429319,229.668412 C330.315881,233.158812 358.937173,233.158812 356.842932,210.820244 C356.842932,210.820244 297.446353,202.491147 299.600349,202.443281 C330.7258,202.466995 398.727749,196.858639 416.877836,191.972077 C429.323193,188.621404 445.84196,214.382558 422.462478,240.139616 C399.082996,265.896674 367.826364,274.97005 334.504363,282.722516 C301.182362,290.474981 252.82897,291.797561 247.244328,274.345548 Z" id="wing" fill="#2BAF2B"></path>
                <g id="eye" transform="translate(151.607330, 78.883072)">
                    <ellipse id="oval-big" fill="#543729" cx="24.0837696" cy="24.0837696" rx="24.0837696" ry="24.0837696"></ellipse>
                    <ellipse id="oval-small" fill="#FFFFFF" cx="25.0837696" cy="13.6125654" rx="13.6125654" ry="8.72600349"></ellipse>
                </g>
                <path d="M166.267017,208.725997 C176.738221,205.933685 221.878567,195.058351 245.150088,158.464228 C243.753928,155.671904 215.830717,111.692847 252.130891,73.2984281 C252.130891,73.2984281 236.075044,15.3577661 166.267017,20.2443281 C96.458989,25.1308901 27.3490401,78.1849901 19.6701571,178.01047 C15.4816754,279.232105 96.4589895,350.436294 183.719022,346.247812 C229.792322,342.059339 254.923212,295.986041 247.244329,274.345552 C270.280978,291.797559 296.109949,284.118676 296.808028,273.647469 C324.03316,287.609069 349.16405,275.741704 344.277487,261.082024 C370.804539,270.855142 391.746947,254.799295 382.671902,239.441536 C382.671902,239.441536 408.500875,246.422326 419.670158,228.272245 C420.871596,226.319908 282.148342,201.04712 282.148342,201.04712 C282.148342,201.04712 368.710297,207.329842 422.840789,214.543712 C422.84079,205.235601 414.208078,201.569704 407.104712,198.254799 C396.633508,193.368236 278.657941,172.42583 256.319372,172.425829 C240.263526,196.160561 203.963352,209.424086 166.267017,208.725997 Z M155.795812,388.830716 C148.815009,374.86911 143.230366,356.020942 140.438044,349.738211 C139.041885,351.13438 103.439791,422.338569 32.9336824,307.155323 C32.9336824,307.155323 3.61431058,261.780105 0.821989525,196.85863 C0.821989525,158.464223 2.28746966,142.191023 17.5759162,105.410122 C17.5759162,105.410122 56.6684128,5.58464222 176.040141,0.698080277 C194.945026,0.698080276 229.792311,6.98080279 252.828961,36.9982548 C261.199507,47.1353056 269.193886,58.7879267 272.375218,74.6945899 C272.375218,74.6945899 285.638743,76.7888307 293.317627,80.2792321 C297.506108,70.5061096 306.645511,55.3640816 327.52355,39.7905759 C345.576309,26.3245257 377.08725,14.6596859 403.614301,22.3385689 C403.614301,22.3385689 378.328741,44.0125551 374.993009,82.373473 C373.596849,98.4293194 365.917995,118.673662 356.144852,128.446771 C353.352521,131.239093 335.202443,150.78534 294.713777,149.38918 C291.921466,144.502618 289.827225,137.521815 289.129145,135.427574 C282.993504,137.618874 279.356021,138.917976 273.073298,141.710297 C271.677138,145.200698 268.884807,154.973822 268.884807,154.973822 C270.280968,155.671902 381.275751,167.539267 421.066318,182.897033 C446.854501,192.89653 454.574161,196.858639 453.17801,225.47993 C453.178001,229.668412 451.08377,254.101222 419.670157,255.497382 C423.858639,273.647469 398.029668,288.307155 367.314136,282.722513 C365.219895,295.287958 328.919711,306.457243 307.977312,288.307155 C307.279232,291.797557 293.317627,308.551483 255.621291,289.005236 C271.652067,314.035745 277.95986,327.399651 281.450262,337.172775 C285.638743,356.020942 273.073298,365.095986 268.884817,364.397906 C265.394415,381.849913 248.640489,391.623037 228.396161,387.434555 C215.830716,405.584642 193.492137,398.603839 186.511344,394.415358 C183.020942,398.603839 168.361257,402.094241 155.795812,388.830716 Z" id="body" fill="#543729"></path>
                <path d="M285.638744,118.673647 C285.638744,119.371727 285.638745,120.767889 285.638745,123.56021 C273.77138,127.748692 266.092496,129.842932 250.036649,140.314138 C245.150087,131.239092 240.263525,104.712041 257.017452,85.1657941 C287.034904,84.4677138 318.448514,104.712043 332.410122,118.673647 C277.26178,100.52356 281.450262,127.05061 246.546248,118.673647 C254.225131,127.05061 270.280978,123.560209 285.638744,118.673647 Z" id="beak" fill="#CECECE"></path>
                <g id="leaf" transform="translate(297.506108, 31.413613)" fill="#05A5E2">
                    <path d="M6.98080279,53.7521815 C7.67888297,50.2617801 31.4136127,4.18848168 84.4677138,0 C62.8272226,20.2443281 68.4118648,69.1099476 51.6579381,85.8638743 C43.9790566,78.8830716 33.5078521,70.5061082 27.9232112,65.6195462 C27.9557377,65.5498465 43.9790574,31.4136126 62.8272251,15.3577661 C49.5636996,20.2443281 31.4136135,39.0924956 21.640489,62.1291449 C15.3577661,57.9406632 13.2635251,56.5445026 6.98080279,53.7521815 Z" id="leaf-part-top"></path>
                    <path d="M0,85.8638743 C0,85.8638743 0.698080279,97.0331588 4.88656195,105.410122 C14.6596859,105.410122 30.017452,102.617801 41.8848168,94.938918 C35.6020942,91.4485166 21.6404887,88.6561955 17.452007,87.9581152 C15.3577661,90.7504363 14.6596859,92.8446771 13.2635253,95.5657659 C13.2635253,94.2408377 13.2635253,90.7504363 13.9616056,87.2600349 C9.77312391,86.5619546 4.88656195,85.8638743 0,85.8638743 Z" id="leaf-part-bottom"></path>
                </g>
            </g>
        </g>
    </g>
</svg>