<?xml version="1.0" encoding="UTF-8"?>
<svg width="64px" height="53px" viewBox="0 0 64 53" version="1.1" xmlns="http://www.w3.org/2000/svg" xmlns:xlink="http://www.w3.org/1999/xlink">
    <!-- Generator: Sketch 46.2 (44496) - http://www.bohemiancoding.com/sketch -->
    <title>Businessman</title>
    <desc>Created with Sketch.</desc>
    <defs></defs>
    <g id="Page-1" stroke="none" stroke-width="1" fill="none" fill-rule="evenodd">
        <g id="6-Color-Vector-Character-Icons" transform="translate(-36.000000, -134.000000)">
            <g id="Businessman" transform="translate(36.000000, 134.000000)">
                <path d="M61.5436,44 C63.1236,40.237 63.9996,36.109 63.9996,31.778 C63.9996,14.227 49.6736,0 31.9996,0 C14.3266,0 -0.0004,14.227 -0.0004,31.778 C-0.0004,36.109 0.8756,40.237 2.4566,44 L61.5436,44 Z" id="Fill-1" fill="#DEF8FC"></path>
                <path d="M55.415,44.5 C57.352,40.847 58.461,36.693 58.461,32.278 C58.461,17.765 46.614,6 32,6 C17.386,6 5.538,17.765 5.538,32.278 C5.538,36.693 6.647,40.847 8.585,44.5 L55.415,44.5 Z" id="Fill-4" fill="#C1F3F8"></path>
                <path d="M6,44 L4,44" id="Stroke-6" stroke="#504B46" stroke-linecap="round"></path>
                <path d="M60,44 L58,44" id="Stroke-8" stroke="#504B46" stroke-linecap="round"></path>
                <path d="M8,44 L56,44" id="Stroke-10" stroke="#504B46" stroke-linecap="round"></path>
                <path d="M53.5,36.5 C53.5,30.977 49.023,26.5 43.5,26.5 L37.5,26.5 C31.977,26.5 27.5,30.977 27.5,36.5 L27.5,44 L53.5,44 L53.5,36.5 L53.5,36.5 Z" id="Fill-13" fill="#3887B7"></path>
                <path d="M53.5,36.5 C53.5,30.977 49.023,26.5 43.5,26.5 L37.5,26.5 C31.977,26.5 27.5,30.977 27.5,36.5 L27.5,40.5 C27.5,34.977 31.977,30.5 37.5,30.5 L43.5,30.5 C49.023,30.5 53.5,34.977 53.5,40.5 L53.5,36.5 Z" id="Fill-15" fill="#619FC6"></path>
                <path d="M44.2548,26.5381 C44.0048,26.5191 43.7548,26.5001 43.4998,26.5001 L37.4998,26.5001 C37.2448,26.5001 36.9948,26.5191 36.7448,26.5381 L36.4998,28.5001 L40.4998,44.0001 L44.4998,28.5001 L44.2548,26.5381 Z" id="Fill-17" fill="#FFFFFF"></path>
                <path d="M44.2548,26.5381 C44.0048,26.5191 43.7548,26.5001 43.4998,26.5001 L37.4998,26.5001 C37.2448,26.5001 36.9948,26.5191 36.7448,26.5381 L36.4998,28.5001 L40.4998,44.0001 L44.4998,28.5001 L44.2548,26.5381 L44.2548,26.5381 Z" id="Stroke-19" stroke="#504B46" stroke-linecap="round" stroke-linejoin="round"></path>
                <path d="M53.5,36.5 C53.5,30.977 49.023,26.5 43.5,26.5 L37.5,26.5 C31.977,26.5 27.5,30.977 27.5,36.5 L27.5,44 L53.5,44 L53.5,36.5 L53.5,36.5 Z" id="Stroke-21" stroke="#504B46" stroke-linecap="round" stroke-linejoin="round"></path>
                <polygon id="Fill-23" fill="#3887B7" points="44 24.5 44.5 28.5 40.5 44 42.5 44 47.5 36.5 45 34 49 31"></polygon>
                <polygon id="Stroke-25" stroke="#504B46" stroke-linecap="round" stroke-linejoin="round" points="44 24.5 44.5 28.5 40.5 44 42.5 44 47.5 36.5 45 34 49 31"></polygon>
                <polygon id="Fill-27" fill="#FDDFD1" points="43.5 26.5 40.5 28.5 37.5 26.5 37.5 22 43.5 22"></polygon>
                <path d="M37.5,25.3928 C37.576,25.4268 37.647,25.4648 37.727,25.4958 C39.406,26.1678 41.594,26.1678 43.273,25.4958 C43.353,25.4648 43.424,25.4268 43.5,25.3928 L43.5,21.9998 L37.5,21.9998 L37.5,25.3928 Z" id="Fill-29" fill="#FCCAB4"></path>
                <path d="M48.5,44 L48.5,40.5" id="Fill-31" fill="#EDF2F4"></path>
                <path d="M48.5,44 L48.5,40.5" id="Stroke-33" stroke="#504B46" stroke-linecap="round" stroke-linejoin="round"></path>
                <path d="M48.5,39 L48.5,38.5" id="Fill-35" fill="#EDF2F4"></path>
                <path d="M48.5,39 L48.5,38.5" id="Stroke-37" stroke="#504B46" stroke-linecap="round" stroke-linejoin="round"></path>
                <polygon id="Stroke-39" stroke="#504B46" stroke-linecap="round" stroke-linejoin="round" points="43.5 26.5 40.5 28.5 37.5 26.5 37.5 22 43.5 22"></polygon>
                <polygon id="Fill-41" fill="#E05C4A" points="40.5 28.5 38.5 36.5 40.5 44 42.5 36.5"></polygon>
                <polygon id="Stroke-43" stroke="#504B46" stroke-linecap="round" stroke-linejoin="round" points="40.5 28.5 38.5 36.5 40.5 44 42.5 36.5"></polygon>
                <path d="M40.5,28.5 L43.5,31" id="Fill-45" fill="#E05C4A"></path>
                <path d="M40.5,28.5 L43.5,31" id="Stroke-47" stroke="#504B46" stroke-linecap="round" stroke-linejoin="round"></path>
                <path d="M32.5,44 L32.5,40.5" id="Fill-49" fill="#EDF2F4"></path>
                <path d="M32.5,44 L32.5,40.5" id="Stroke-51" stroke="#504B46" stroke-linecap="round" stroke-linejoin="round"></path>
                <path d="M32.5,39 L32.5,38.5" id="Fill-53" fill="#EDF2F4"></path>
                <path d="M32.5,39 L32.5,38.5" id="Stroke-55" stroke="#504B46" stroke-linecap="round" stroke-linejoin="round"></path>
                <polygon id="Fill-57" fill="#3887B7" points="37 24.5 36.5 28.5 40.5 44 38.5 44 33.5 36.5 36 34 32 31"></polygon>
                <polygon id="Stroke-59" stroke="#504B46" stroke-linecap="round" stroke-linejoin="round" points="37 24.5 36.5 28.5 40.5 44 38.5 44 33.5 36.5 36 34 32 31"></polygon>
                <path d="M40.5,28.5 L37.5,31" id="Fill-61" fill="#E05C4A"></path>
                <path d="M40.5,28.5 L37.5,31" id="Stroke-63" stroke="#504B46" stroke-linecap="round" stroke-linejoin="round"></path>
                <path d="M48.5,16 C48.5,20.418 44.918,24 40.5,24 C36.082,24 32.5,20.418 32.5,16 L32.5,12 C32.5,7.582 36.082,4 40.5,4 C44.918,4 48.5,7.582 48.5,12 L48.5,16 Z" id="Fill-65" fill="#FDDFD1"></path>
                <path d="M48.5,16 C48.5,20.418 44.918,24 40.5,24 C36.082,24 32.5,20.418 32.5,16 L32.5,12 C32.5,7.582 36.082,4 40.5,4 C44.918,4 48.5,7.582 48.5,12 L48.5,16 L48.5,16 Z" id="Stroke-67" stroke="#504B46" stroke-linecap="round" stroke-linejoin="round"></path>
                <path d="M39,15 C38.691,14.413 38.149,14 37.5,14 C36.851,14 36.309,14.413 36,15" id="Stroke-69" stroke="#504B46" stroke-linecap="round" stroke-linejoin="round"></path>
                <path d="M45,15 C44.691,14.413 44.149,14 43.5,14 C42.851,14 42.309,14.413 42,15" id="Stroke-71" stroke="#504B46" stroke-linecap="round" stroke-linejoin="round"></path>
                <path d="M37.425,19.5 C38.042,20.087 39.128,20.5 40.425,20.5 C41.722,20.5 42.808,20.087 43.425,19.5" id="Stroke-73" stroke="#504B46" stroke-linecap="round" stroke-linejoin="round"></path>
                <path d="M36.5,18 C36.5,18.552 36.052,19 35.5,19 C34.948,19 34.5,18.552 34.5,18 C34.5,17.448 34.948,17 35.5,17 C36.052,17 36.5,17.448 36.5,18" id="Fill-75" fill="#FCCAB4"></path>
                <path d="M46.5,18 C46.5,18.552 46.052,19 45.5,19 C44.948,19 44.5,18.552 44.5,18 C44.5,17.448 44.948,17 45.5,17 C46.052,17 46.5,17.448 46.5,18" id="Fill-77" fill="#FCCAB4"></path>
                <path d="M44.75,4.625 C38.922,-1.925 22.375,6.5 32.937,18.594 C31.937,15.594 33.5,12.5 33.5,12.5 C36.5,12.5 41.717,9.769 43.865,7.028 C43.864,7.092 43.853,7.147 43.853,7.212 C43.853,12 48.5,12 48.5,17 C53.625,7.375 46.106,3.679 44.75,4.625" id="Fill-79" fill="#9A6A4E"></path>
                <path d="M44.75,4.625 C38.922,-1.925 22.375,6.5 32.937,18.594 C31.937,15.594 33.5,12.5 33.5,12.5 C36.5,12.5 41.717,9.769 43.865,7.028 C43.864,7.092 43.853,7.147 43.853,7.212 C43.853,12 48.5,12 48.5,17 C53.625,7.375 46.106,3.679 44.75,4.625 L44.75,4.625 Z" id="Stroke-81" stroke="#504B46" stroke-linejoin="round"></path>
                <path d="M44.625,4.5312 C38.797,-2.0188 22.25,6.4062 32.812,18.5002 C32.702,18.1692 32.627,17.8372 32.574,17.5072 C27.488,8.2102 38.314,1.9962 44.497,5.0182 C45.245,5.3832 44.625,4.5312 44.625,4.5312" id="Fill-83" fill="#AE8871"></path>
                <path d="M44.75,4.625 C38.922,-1.925 22.375,6.5 32.937,18.594 C31.937,15.594 33.5,12.5 33.5,12.5 C36.5,12.5 41.717,9.769 43.865,7.028 C43.864,7.092 43.853,7.147 43.853,7.212 C43.853,12 48.5,12 48.5,17 C53.625,7.375 46.106,3.679 44.75,4.625 L44.75,4.625 Z" id="Stroke-85" stroke="#504B46" stroke-linejoin="round"></path>
                <path d="M39,51 C39,51.828 30.941,52.5 21,52.5 C11.059,52.5 3,51.828 3,51 C3,50.172 11.059,49.5 21,49.5 C30.941,49.5 39,50.172 39,51" id="Fill-87" fill="#E3ECF1"></path>
                <path d="M30.5,48 C30.5,49.105 29.605,50 28.5,50 L8.5,50 C7.395,50 6.5,49.105 6.5,48 L6.5,34 C6.5,32.895 7.395,32 8.5,32 L28.5,32 C29.605,32 30.5,32.895 30.5,34 L30.5,48 Z" id="Fill-89" fill="#B78B7C"></path>
                <path d="M30.5,34 C30.5,32.895 29.605,32 28.5,32 L8.5,32 C7.395,32 6.5,32.895 6.5,34 L6.5,36.5 C6.5,35.395 7.395,34.5 8.5,34.5 L28.5,34.5 C29.605,34.5 30.5,35.395 30.5,36.5 L30.5,34 Z" id="Fill-91" fill="#C9A89C"></path>
                <path d="M13.5,31 L13.5,29 C13.5,27.346 14.846,26 16.5,26 L20.5,26 C22.154,26 23.5,27.346 23.5,29 L23.5,31 L21.5,31 L21.5,29 C21.5,28.448 21.052,28 20.5,28 L16.5,28 C15.948,28 15.5,28.448 15.5,29 L15.5,31 L13.5,31 Z" id="Fill-93" fill="#B78B7C"></path>
                <path d="M13.5,31 L13.5,29 C13.5,27.346 14.846,26 16.5,26 L20.5,26 C22.154,26 23.5,27.346 23.5,29 L23.5,31 L21.5,31 L21.5,29 C21.5,28.448 21.052,28 20.5,28 L16.5,28 C15.948,28 15.5,28.448 15.5,29 L15.5,31 L13.5,31 L13.5,31 Z" id="Stroke-95" stroke="#504B46" stroke-linecap="round" stroke-linejoin="round"></path>
                <polygon id="Fill-97" fill="#FED75C" points="13 32 16 32 16 30 13 30"></polygon>
                <polygon id="Stroke-99" stroke="#504B46" stroke-linecap="round" stroke-linejoin="round" points="13 32 16 32 16 30 13 30"></polygon>
                <polygon id="Fill-100" fill="#FED75C" points="21 32 24 32 24 30 21 30"></polygon>
                <polygon id="Stroke-101" stroke="#504B46" stroke-linecap="round" stroke-linejoin="round" points="21 32 24 32 24 30 21 30"></polygon>
                <path d="M9,32 L9,50" id="Fill-102" fill="#FED75C"></path>
                <path d="M9,32 L9,50" id="Stroke-103" stroke="#504B46" stroke-linecap="round" stroke-linejoin="round"></path>
                <path d="M30.5,48 C30.5,49.105 29.605,50 28.5,50 L8.5,50 C7.395,50 6.5,49.105 6.5,48 L6.5,34 C6.5,32.895 7.395,32 8.5,32 L28.5,32 C29.605,32 30.5,32.895 30.5,34 L30.5,48 L30.5,48 Z" id="Stroke-105" stroke="#504B46" stroke-linecap="round" stroke-linejoin="round"></path>
                <path d="M34.7779,44.2884 L36.4109,44.2884 C37.0129,44.2884 37.4999,44.7754 37.4999,45.3774 C37.4999,45.9794 37.0129,46.4664 36.4109,46.4664 L34.7779,46.4664 L33.6889,46.4664 C33.0869,46.4664 32.5999,45.9794 32.5999,45.3774 C32.5999,44.7754 33.0869,44.2884 33.6889,44.2884 L34.7779,44.2884 Z" id="Fill-106" fill="#FFF083"></path>
                <path d="M32.0557,46.4661 L33.6887,46.4661 L34.7777,46.4661 C35.3797,46.4661 35.8667,46.9531 35.8667,47.5551 C35.8667,48.1571 35.3797,48.6441 34.7777,48.6441 L32.0557,48.6441 C31.4537,48.6441 30.9667,48.1571 30.9667,47.5551 C30.9667,46.9531 31.4537,46.4661 32.0557,46.4661" id="Fill-107" fill="#FFF083"></path>
                <path d="M34.7779,48.6438 L32.0559,48.6438 C31.4539,48.6438 30.9669,49.1308 30.9669,49.7328 C30.9669,49.9138 31.0149,50.0858 31.0909,50.2288 C31.2729,50.5828 31.6359,50.8218 32.0559,50.8218 L34.7779,50.8218 C35.1979,50.8218 35.5609,50.5828 35.7429,50.2288 C35.8189,50.0858 35.8669,49.9138 35.8669,49.7328 C35.8669,49.1308 35.3799,48.6438 34.7779,48.6438" id="Fill-108" fill="#FFF083"></path>
                <path d="M29.8112,46.4661 C29.8212,46.4561 29.8302,46.4471 29.8402,46.4371 C29.8402,46.4471 29.8302,46.4561 29.8212,46.4661 L29.8112,46.4661 Z" id="Fill-109" fill="#D1ECF4"></path>
                <path d="M29.8112,46.4661 L29.8212,46.4661 C29.8112,46.4761 29.8012,46.4851 29.7922,46.4951 C29.7922,46.4851 29.8012,46.4761 29.8112,46.4661" id="Fill-110" fill="#F8E280"></path>
                <path d="M29.4673,46.8864 C29.5823,46.7624 29.6873,46.6284 29.7923,46.4944 C29.6873,46.6284 29.5823,46.7524 29.4673,46.8864" id="Fill-111" fill="#F8E280"></path>
                <path d="M29.8781,46.4661 L29.8211,46.4661 C29.8111,46.4761 29.8021,46.4851 29.7921,46.4951 C29.7921,46.4851 29.8021,46.4761 29.8111,46.4661 L27.2131,46.4661 L27.1561,46.4661 C26.5541,46.4661 26.0671,46.9531 26.0671,47.5551 C26.0671,48.0611 26.4111,48.4811 26.8791,48.6051 C26.9651,48.6341 27.0601,48.6441 27.1561,48.6441 L27.4041,48.6441 L27.4141,48.6441 L29.8781,48.6441 C30.4801,48.6441 30.9671,48.1571 30.9671,47.5551 C30.9671,46.9531 30.4801,46.4661 29.8781,46.4661" id="Fill-112" fill="#FFF083"></path>
                <path d="M27.0699,50.812 C27.1659,50.812 27.2509,50.822 27.3469,50.822 L27.1559,50.822 C27.1269,50.822 27.0989,50.822 27.0699,50.812" id="Fill-113" fill="#F8E280"></path>
                <path d="M26.8789,48.6056 C26.9649,48.6346 27.0599,48.6436 27.1559,48.6436 C27.0129,48.6436 26.8789,48.6726 26.7549,48.7206 C26.8029,48.6816 26.8409,48.6436 26.8789,48.6056" id="Fill-114" fill="#D1ECF4"></path>
                <path d="M26.3249,49.0258 C26.4399,48.8918 26.5829,48.7868 26.7549,48.7198 C26.7069,48.7678 26.6589,48.8058 26.6019,48.8448 C26.5159,48.9108 26.4209,48.9778 26.3249,49.0258" id="Fill-115" fill="#F8E280"></path>
                <path d="M29.8781,48.6438 L27.4141,48.6438 L27.4041,48.6438 L27.1561,48.6438 C27.0131,48.6438 26.8791,48.6728 26.7551,48.7198 C26.7071,48.7678 26.6591,48.8058 26.6021,48.8448 C26.5161,48.9108 26.4201,48.9778 26.3251,49.0258 C26.2491,49.1118 26.1911,49.2168 26.1431,49.3318 C26.0961,49.4558 26.0671,49.5898 26.0671,49.7328 C26.0671,49.9138 26.1151,50.0858 26.1911,50.2288 C26.3541,50.5538 26.6881,50.7828 27.0701,50.8118 C27.1651,50.8118 27.2511,50.8218 27.3471,50.8218 L29.8781,50.8218 C30.2981,50.8218 30.6611,50.5828 30.8431,50.2288 C30.9191,50.0858 30.9671,49.9138 30.9671,49.7328 C30.9671,49.1308 30.4801,48.6438 29.8781,48.6438" id="Fill-116" fill="#FFF083"></path>
                <path d="M25.2074,49.7231 C25.5994,49.5031 25.9714,49.2741 26.3244,49.0261 C26.2484,49.1121 26.1914,49.2171 26.1434,49.3311 C25.8474,49.4751 25.5324,49.5991 25.2074,49.7231" id="Fill-117" fill="#D1ECF4"></path>
                <path d="M31.2153,43.8872 L31.2153,43.8972 C31.4163,44.1352 31.7213,44.2882 32.0553,44.2882 L33.6893,44.2882 L34.7783,44.2882 C35.3793,44.2882 35.8663,43.8012 35.8663,43.1992 C35.8663,42.5982 35.3793,42.1102 34.7783,42.1102 L32.0553,42.1102 C31.9223,42.1102 31.7983,42.1302 31.6833,42.1772 C31.2633,42.3302 30.9673,42.7312 30.9673,43.1992 C30.9673,43.4572 31.0623,43.6962 31.2153,43.8872" id="Fill-118" fill="#FFF083"></path>
                <path d="M30.8427,50.2293 L31.0907,50.2293" id="Stroke-119" stroke="#4F4A45" stroke-linecap="round" stroke-linejoin="round"></path>
                <path d="M26.7547,48.7202 C26.8027,48.6822 26.8407,48.6442 26.8787,48.6052" id="Stroke-120" stroke="#4F4A45" stroke-linejoin="round"></path>
                <path d="M22.093,48.3 C22.093,47.851 22.456,47.488 22.905,47.488 C23.363,47.488 23.726,47.851 23.726,48.3 C23.726,48.758 23.363,49.121 22.905,49.121 C22.456,49.121 22.093,48.758 22.093,48.3" id="Fill-121" fill="#C0E0BC"></path>
                <polygon id="Fill-122" fill="#D1ECF4" points="18.9124 50.449 19.0174 50.707 18.9124 50.707"></polygon>
                <path d="M22.9048,49.1214 C22.4558,49.1214 22.0928,48.7584 22.0928,48.3004 C22.0928,47.8514 22.4558,47.4884 22.9048,47.4884 C23.3628,47.4884 23.7258,47.8514 23.7258,48.3004 C23.7258,48.7584 23.3628,49.1214 22.9048,49.1214 M27.1938,46.4664 L27.2508,46.4664 L26.6298,44.8994 C26.4868,44.5554 26.1908,44.3074 25.8368,44.2314 C25.4738,44.1644 25.1018,44.2694 24.8438,44.5274 C23.3828,45.9794 20.9658,47.0484 19.1418,47.2204 C19.0648,47.2304 18.9888,47.2394 18.9128,47.2684 C18.6638,47.3444 18.4538,47.5074 18.3108,47.7364 C18.1288,48.0234 18.1008,48.3864 18.2248,48.7014 L18.8268,50.2294 L18.9128,50.2294 L18.9128,50.4494 L19.0178,50.7064 L19.0178,50.7164 L19.0558,50.8124 C19.2468,51.2804 19.7238,51.5574 20.2308,51.4904 C21.1088,51.3564 22.0838,51.0984 23.0388,50.7264 L23.0478,50.7264 C23.4488,50.5824 23.8408,50.4104 24.2328,50.2294 C24.5758,50.0764 24.9198,49.9044 25.2448,49.7234 C25.6368,49.5034 26.0088,49.2744 26.3628,49.0254 C26.4768,48.8924 26.6198,48.7874 26.7918,48.7204 C26.8398,48.6824 26.8778,48.6434 26.9168,48.6054 C26.4488,48.4814 26.1048,48.0614 26.1048,47.5554 C26.1048,46.9534 26.5918,46.4664 27.1938,46.4664" id="Fill-123" fill="#82C67C"></path>
                <polygon id="Fill-124" fill="#82C67C" points="18.9124 50.449 18.8264 50.229 18.9124 50.229"></polygon>
                <path d="M27.2507,46.4661 L26.6297,44.9001 C26.4867,44.5561 26.1907,44.3071 25.8367,44.2311 C25.4737,44.1641 25.1017,44.2691 24.8437,44.5271 C23.3827,45.9791 20.9657,47.0491 19.1417,47.2211 C19.0657,47.2301 18.9887,47.2401 18.9127,47.2681 C18.6637,47.3451 18.4537,47.5071 18.3107,47.7361 C18.1287,48.0231 18.1007,48.3861 18.2247,48.7011 L18.8267,50.2291 L18.9127,50.4491 L19.0177,50.7071 L19.0177,50.7161 L19.0557,50.8121 C19.2467,51.2801 19.7247,51.5571 20.2307,51.4901 C21.1087,51.3561 22.0837,51.0981 23.0387,50.7261 L23.0477,50.7261 C23.4497,50.5831 23.8407,50.4111 24.2327,50.2291 C24.5767,50.0761 24.9197,49.9041 25.2447,49.7231 C25.6367,49.5031 26.0087,49.2741 26.3627,49.0261" id="Stroke-125" stroke="#4F4A45" stroke-linejoin="round"></path>
                <path d="M34.7779,48.6438 C35.3799,48.6438 35.8669,49.1308 35.8669,49.7328 C35.8669,49.9138 35.8189,50.0858 35.7429,50.2298 C35.5609,50.5828 35.1979,50.8218 34.7779,50.8218 L32.0559,50.8218 C31.6359,50.8218 31.2729,50.5828 31.0909,50.2298 C31.0149,50.0858 30.9669,49.9138 30.9669,49.7328 C30.9669,49.1308 31.4539,48.6438 32.0559,48.6438" id="Stroke-126" stroke="#4F4A45" stroke-linejoin="round"></path>
                <path d="M29.878,48.6438 C30.48,48.6438 30.967,49.1308 30.967,49.7328 C30.967,49.9138 30.919,50.0858 30.843,50.2298 C30.661,50.5828 30.298,50.8218 29.878,50.8218 L27.347,50.8218 L27.156,50.8218 C27.127,50.8218 27.099,50.8218 27.07,50.8118 C26.688,50.7828 26.354,50.5538 26.191,50.2298 C26.115,50.0858 26.067,49.9138 26.067,49.7328 C26.067,49.5898 26.096,49.4558 26.143,49.3318 C26.191,49.2168 26.248,49.1118 26.325,49.0258 C26.44,48.8918 26.583,48.7868 26.755,48.7198 C26.879,48.6728 27.013,48.6438 27.156,48.6438" id="Stroke-127" stroke="#4F4A45" stroke-linejoin="round"></path>
                <path d="M30.9669,47.5549 C30.9669,48.1569 30.4799,48.6439 29.8779,48.6439 L27.4139,48.6439 L27.4039,48.6439 L27.1559,48.6439 C27.0609,48.6439 26.9649,48.6339 26.8789,48.6059 C26.4109,48.4809 26.0669,48.0609 26.0669,47.5549 C26.0669,46.9529 26.5539,46.4659 27.1559,46.4659 L27.2129,46.4659 L29.8109,46.4659 L29.8209,46.4659 L29.8779,46.4659 C30.4799,46.4659 30.9669,46.9529 30.9669,47.5549 L30.9669,47.5549 Z" id="Stroke-128" stroke="#4F4A45" stroke-linejoin="round"></path>
                <path d="M33.689,46.4661 C33.087,46.4661 32.6,45.9791 32.6,45.3771 C32.6,44.7751 33.087,44.2881 33.689,44.2881" id="Stroke-129" stroke="#4F4A45" stroke-linejoin="round"></path>
                <path d="M34.7779,44.2884 L36.4109,44.2884 C37.0129,44.2884 37.4999,44.7754 37.4999,45.3774 C37.4999,45.9794 37.0129,46.4664 36.4109,46.4664 L34.7779,46.4664" id="Stroke-130" stroke="#4F4A45" stroke-linejoin="round"></path>
                <path d="M31.6832,42.1776 C31.7982,42.1296 31.9222,42.1106 32.0552,42.1106 L34.7782,42.1106 C35.3792,42.1106 35.8662,42.5976 35.8662,43.1996 C35.8662,43.8016 35.3792,44.2886 34.7782,44.2886 L33.6892,44.2886 L32.0552,44.2886 C31.7212,44.2886 31.4162,44.1356 31.2152,43.8966 L31.2152,43.8876 C31.0622,43.6966 30.9672,43.4576 30.9672,43.1996 C30.9672,42.7316 31.2632,42.3306 31.6832,42.1776 L31.6832,42.1776 Z" id="Stroke-131" stroke="#4F4A45" stroke-linejoin="round"></path>
                <path d="M34.7779,46.4661 C35.3799,46.4661 35.8669,46.9531 35.8669,47.5551 C35.8669,48.1571 35.3799,48.6441 34.7779,48.6441 L32.0559,48.6441 C31.4539,48.6441 30.9669,48.1571 30.9669,47.5551 C30.9669,46.9531 31.4539,46.4661 32.0559,46.4661 L33.6889,46.4661 L34.7779,46.4661 L34.7779,46.4661 Z" id="Stroke-132" stroke="#4F4A45" stroke-linejoin="round"></path>
            </g>
        </g>
    </g>
</svg>