<?xml version="1.0" encoding="UTF-8" standalone="no"?>
<svg width="624px" height="462px" viewBox="0 0 624 462" version="1.1" xmlns="http://www.w3.org/2000/svg" xmlns:xlink="http://www.w3.org/1999/xlink">
    <!-- Generator: Sketch 43.1 (39012) - http://www.bohemiancoding.com/sketch -->
    <title>Group</title>
    <desc>Created with Sketch.</desc>
    <defs>
        <path d="M312.284123,435.753492 L312.284123,204.007795" id="path-1"></path>
        <filter x="-88.9%" y="-8.5%" width="277.7%" height="115.2%" filterUnits="objectBoundingBox" id="filter-2">
            <feMorphology radius="4.5" operator="dilate" in="SourceAlpha" result="shadowSpreadOuter1"></feMorphology>
            <feOffset dx="0" dy="2" in="shadowSpreadOuter1" result="shadowOffsetOuter1"></feOffset>
            <feMorphology radius="4.5" operator="erode" in="SourceAlpha" result="shadowInner"></feMorphology>
            <feOffset dx="0" dy="2" in="shadowInner" result="shadowInner"></feOffset>
            <feComposite in="shadowOffsetOuter1" in2="shadowInner" operator="out" result="shadowOffsetOuter1"></feComposite>
            <feGaussianBlur stdDeviation="2" in="shadowOffsetOuter1" result="shadowBlurOuter1"></feGaussianBlur>
            <feColorMatrix values="0 0 0 0 0   0 0 0 0 0   0 0 0 0 0  0 0 0 0.5 0" type="matrix" in="shadowBlurOuter1"></feColorMatrix>
        </filter>
    </defs>
    <g id="Page-1" stroke="none" stroke-width="1" fill="none" fill-rule="evenodd">
        <g id="Group" transform="translate(9.000000, 9.000000)">
            <path d="M192.87919,440.227347 C181.918242,442.571404 170.534413,443.806431 158.856262,443.806431 C71.1223711,443.806431 0,374.101573 0,288.116272 C0,207.162093 63.0429227,140.638911 143.637491,133.131332 C161.383199,56.5882168 224.315154,0 299.227432,0 C373.975552,0 436.795798,56.3404821 454.700062,132.628428 C538.637355,136.795773 605.386773,204.816302 605.386773,288.116272 C605.386773,374.101573 534.264402,443.806431 446.530511,443.806431 C434.85236,443.806431 423.468531,442.571404 412.507583,440.227347 L192.87919,440.227347 Z" id="Combined-Shape" stroke="#F6A623" stroke-width="18" fill-opacity="0.0161911232" fill="#D8D8D8"></path>
            <g id="Line" style="mix-blend-mode: color;">
                <use fill="black" fill-opacity="1" filter="url(#filter-2)" xlink:href="#path-1"></use>
                <use stroke="#F6A623" stroke-width="9" xlink:href="#path-1"></use>
                <use stroke="#979797" stroke-width="2" xlink:href="#path-1"></use>
                <use stroke="#979797" stroke-width="2" xlink:href="#path-1"></use>
            </g>
            <path id="Line-decoration-1" d="M312.284123,204.007795 L309.284123,214.807795 L315.284123,214.807795 L312.284123,204.007795 Z" style="mix-blend-mode: color;"></path>
            <polygon id="Triangle" stroke="#F6A623" stroke-width="8" fill="#F6A623" points="313.128134 112.982143 379.805014 235.875 246.451253 235.875"></polygon>
        </g>
    </g>
</svg>