<?xml version="1.0" encoding="UTF-8" standalone="no"?>
<svg width="256px" height="361px" viewBox="0 0 256 361" version="1.1" xmlns="http://www.w3.org/2000/svg" xmlns:xlink="http://www.w3.org/1999/xlink">
    <!-- Generator: Sketch 43.1 (39012) - http://www.bohemiancoding.com/sketch -->
    <title>CSS 3</title>
    <desc>Created with Sketch.</desc>
    <defs></defs>
    <g id="Page-1" stroke="none" stroke-width="1" fill="none" fill-rule="evenodd">
        <g id="HTML-5-and-CSS-3-Logo" transform="translate(-452.000000, -120.000000)">
            <g id="CSS-3" transform="translate(452.000000, 120.000000)">
                <polygon id="Shape" fill="#0070E4" points="127.843868 360.087912 23.6617143 331.166242 0.445186813 70.7657143 255.554813 70.7657143 232.31367 331.125451 127.843868 360.087912"></polygon>
                <polygon id="Shape" fill="#30A4E8" points="212.416703 314.546637 232.277802 92.0573187 128 92.0573187 128 337.950242 212.416703 314.546637"></polygon>
                <path d="M53.6685714,188.636132 L128,188.636132 L128,220.572835 L56.530989,220.572835 L53.6685714,188.636132 Z M47.917011,123.994725 L128,123.994725 L128,155.932132 L50.8202198,155.932132 L47.917011,123.994725 Z M128,271.580132 L128,304.808088 L127.853011,304.848879 L62.4323516,286.687648 L57.957978,236.54189 L90.0177582,236.54189 L92.2915165,262.013187 L127.860044,271.617407 L128,271.580132 Z" id="3-Left" fill="#EBEBEB"></path>
                <polygon id="3-Right" fill="#FFFFFF" points="202.126769 188.636132 207.892396 123.994725 127.889582 123.994725 127.889582 155.932132 172.892132 155.932132 169.98611 188.636132 127.889582 188.636132 127.889582 220.572835 167.216527 220.572835 163.509451 261.992791 127.889582 271.606857 127.889582 304.833407 193.362286 286.687648 193.842637 281.291956 201.347516 197.212132 202.126769 188.636132"></polygon>
                <path d="M60.4835165,0 L99.1648352,0 L99.1648352,16.1758242 L76.6593407,16.1758242 L76.6593407,32.3516484 L99.1648352,32.3516484 L99.1648352,48.5274725 L60.4835165,48.5274725 L60.4835165,0 Z M106.901099,0 L145.582418,0 L145.582418,14.0659341 L123.076923,14.0659341 L123.076923,16.8791209 L145.582418,16.8791209 L145.582418,49.2307692 L106.901099,49.2307692 L106.901099,34.4615385 L129.406593,34.4615385 L129.406593,31.6483516 L106.901099,31.6483516 L106.901099,0 Z M153.318681,0 L192,0 L192,14.0659341 L169.494505,14.0659341 L169.494505,16.8791209 L192,16.8791209 L192,49.2307692 L153.318681,49.2307692 L153.318681,34.4615385 L175.824176,34.4615385 L175.824176,31.6483516 L153.318681,31.6483516 L153.318681,0 Z" id="CSS" fill="#000000"></path>
            </g>
        </g>
    </g>
</svg>