<?xml version="1.0" encoding="UTF-8"?>
<svg width="72px" height="80px" viewBox="0 0 72 80" version="1.1" xmlns="http://www.w3.org/2000/svg" xmlns:xlink="http://www.w3.org/1999/xlink">
    <!-- Generator: Sketch 40.2 (33826) - http://www.bohemiancoding.com/sketch -->
    <title>icon_cto</title>
    <desc>Created with Sketch.</desc>
    <defs></defs>
    <g id="Page-1" stroke="none" stroke-width="1" fill="none" fill-rule="evenodd">
        <g id="TM---Home---1.0-Copy" transform="translate(-398.000000, -4326.000000)">
            <g id="Group-7" transform="translate(210.000000, 3811.000000)">
                <g id="Group-25" transform="translate(0.000000, 515.000000)">
                    <text id="Virtual-CTO" font-family="Lora-Regular, Lora" font-size="28" font-weight="normal" fill="#212121">
                        <tspan x="0" y="93">Virtual CTO</tspan>
                    </text>
                    <g id="noun_195956" transform="translate(188.000000, 0.000000)" fill="#000000">
                        <path d="M3.02091881,32.4168015 C1.15071872,34.1831016 0.111718677,36.5728017 0.00781867214,39.1703018 C-0.0960813327,41.7678019 0.839018711,44.157502 2.60531879,46.1316021 C4.47551888,48.1057022 6.96911899,49.1447023 9.67051912,49.1447023 C12.1641192,49.1447023 14.4499193,48.2096022 16.3201194,46.5472021 C18.1903195,44.7809021 19.2293196,42.391202 19.3332196,39.7937018 C19.4371196,37.1962017 18.5020195,34.8065016 16.7357194,32.8324015 C14.8655194,30.8583014 12.2680192,29.8193014 9.67051912,29.8193014 C7.176919,29.8193014 4.8911189,30.7544014 3.02091881,32.4168015 Z M14.8655194,44.9887021 C13.4109193,46.3394021 11.6446192,47.0667022 9.67051912,47.0667022 C7.59251902,47.0667022 5.61841893,46.2355021 4.16381886,44.6770021 C2.8131188,43.222402 2.08581877,41.2483019 2.08581877,39.2742018 C2.08581877,37.3001017 3.02091881,35.3260016 4.47551888,33.9753016 C5.93011895,32.6246015 7.69641903,31.8973015 9.67051912,31.8973015 C11.7485192,31.8973015 13.7226193,32.7285015 15.1772194,34.2870016 C16.5279194,35.7416016 17.2552195,37.7157017 17.2552195,39.6898018 C17.2552195,41.6639019 16.3201194,43.534102 14.8655194,44.9887021 L14.8655194,44.9887021 Z M62.0361215,19.3254009 L62.0361215,19.3254009 C67.4389218,19.3254009 71.698822,15.0655007 71.802722,9.76660045 C71.802722,7.16910033 70.8676219,4.77940022 68.9974219,2.90920013 C67.2311218,1.03900005 64.7375217,0 62.1400215,0 C56.8411213,0 52.5812211,4.2599002 52.4773211,9.55880044 C52.4773211,14.9616007 56.7372213,19.3254009 62.0361215,19.3254009 L62.0361215,19.3254009 Z M54.6592212,10.1822005 L62.7634216,2.0780001 C63.6985216,2.1819001 64.5297217,2.38970011 65.3609217,2.70140012 L55.2826212,12.7797006 C54.9709212,12.0524006 54.6592212,11.1173005 54.6592212,10.1822005 L54.6592212,10.1822005 Z M69.7247219,9.66270045 L62.0361215,17.3513008 L62.0361215,17.2474008 C61.1010215,17.2474008 60.1659214,17.0396008 59.3347214,16.7279008 L69.2052219,6.85740032 C69.6208219,7.79250036 69.7247219,8.7276004 69.7247219,9.66270045 L69.7247219,9.66270045 Z M64.9453217,16.7279008 L69.3091219,12.3641006 C68.4779218,14.4421007 66.9194218,16.0006007 64.9453217,16.7279008 L64.9453217,16.7279008 Z M68.4779218,5.50670025 L57.9840213,16.0006007 C57.2567213,15.4811007 56.6333213,14.9616007 56.1138213,14.2343007 L66.7116218,3.63650017 C67.0233218,3.84430018 67.3350218,4.15600019 67.6467218,4.3638002 C67.9584218,4.77940022 68.1662218,5.09110023 68.4779218,5.50670025 L68.4779218,5.50670025 Z M60.2698215,2.38970011 L54.8670212,7.79250036 C55.5943212,5.19500024 57.5684213,3.11700014 60.2698215,2.38970011 L60.2698215,2.38970011 Z M61.7244215,59.8464028 C56.4255213,59.8464028 52.1656211,64.106303 52.0617211,69.4052032 C52.0617211,72.0027033 52.9968211,74.3924034 54.8670212,76.2626035 C56.6333213,78.1328036 59.1269214,79.1718037 61.6205215,79.1718037 L61.7244215,79.1718037 C67.0233218,79.1718037 71.283222,74.9119035 71.387122,69.6130032 C71.491022,64.210203 67.2311218,59.8464028 61.7244215,59.8464028 L61.7244215,59.8464028 Z M39.6976205,38.8586018 C39.9054205,38.9625018 40.0093205,39.1703018 40.0093205,39.4820018 C40.0093205,39.6898018 39.9054205,39.8976018 39.6976205,40.1054019 L34.0870202,43.845802 L33.6714202,43.845802 C33.5675202,43.845802 33.4636202,43.845802 33.3597202,43.741902 C33.1519202,43.638002 32.9441202,43.430202 32.9441202,43.118502 L32.9441202,41.4561019 L22.4502197,41.4561019 C22.1385197,41.4561019 21.9307197,41.2483019 21.9307197,40.9366019 L21.9307197,37.7157017 C21.9307197,37.4040017 22.1385197,37.1962017 22.4502197,37.1962017 L32.9441202,37.1962017 L32.9441202,35.5338016 C32.9441202,35.3260016 33.0480202,35.0143016 33.3597202,34.9104016 C33.5675202,34.8065016 33.8792202,34.8065016 34.0870202,34.9104016 L39.6976205,38.8586018 L39.6976205,38.8586018 Z M48.4252209,41.7678019 L48.4252209,41.7678019 L48.4252209,41.7678019 L41.7756206,41.7678019 L41.7756206,37.6118017 L48.4252209,37.6118017 L48.4252209,37.6118017 L48.4252209,37.6118017 L48.4252209,37.6118017 C51.5422211,37.6118017 54.4514212,36.4689017 56.6333213,34.2870016 C58.5035214,32.5207015 59.6464214,30.1310014 59.9581214,27.6374013 L58.5035214,27.6374013 C58.2957214,27.6374013 58.0879214,27.5335013 58.0879214,27.3257013 C57.9840213,27.1179013 57.9840213,26.9101012 58.0879214,26.8062012 L61.7244215,21.299501 C61.8283215,21.195601 61.9322215,21.091701 62.1400215,21.091701 L62.1400215,21.091701 C62.3478215,21.091701 62.4517216,21.195601 62.5556216,21.299501 L66.1921217,26.8062012 C66.2960217,27.0140012 66.2960217,27.2218013 66.1921217,27.3257013 C66.0882217,27.4296013 65.8804217,27.6374013 65.7765217,27.6374013 L65.7765217,27.6374013 L64.0102216,27.6374013 C63.6985216,31.2739014 62.0361215,34.7026016 59.3347214,37.3001017 C58.3996214,38.2352018 57.2567213,39.0664018 56.1138213,39.6898018 C57.2567213,40.3132019 58.3996214,41.1444019 59.3347214,42.0795019 C61.8283215,44.5731021 63.3868216,47.6901022 63.9063216,51.2227024 L65.3609217,51.2227024 C65.5687217,51.2227024 65.7765217,51.3266024 65.7765217,51.5344024 C65.8804217,51.7422024 65.8804217,51.9500024 65.7765217,52.0539024 L62.1400215,57.5606027 C62.0361215,57.6645027 61.9322215,57.7684027 61.7244215,57.7684027 L61.7244215,57.7684027 C61.5166215,57.7684027 61.4127215,57.6645027 61.3088215,57.5606027 L57.6723213,52.0539024 C57.5684213,51.8461024 57.5684213,51.6383024 57.6723213,51.5344024 C57.7762213,51.4305024 57.9840213,51.2227024 58.0879214,51.2227024 L58.0879214,51.2227024 L59.7503214,51.2227024 C59.3347214,48.9369023 58.1918214,46.7550022 56.5294213,45.0926021 C54.4514212,42.910702 51.5422211,41.6639019 48.4252209,41.7678019 L48.4252209,41.7678019 Z" id="Shape"></path>
                    </g>
                </g>
            </g>
        </g>
    </g>
</svg>