<?xml version="1.0" encoding="UTF-8"?>
<svg width="69px" height="54px" viewBox="0 0 69 54" version="1.1" xmlns="http://www.w3.org/2000/svg" xmlns:xlink="http://www.w3.org/1999/xlink">
    <!-- Generator: Sketch 46.2 (44496) - http://www.bohemiancoding.com/sketch -->
    <title>Designer</title>
    <desc>Created with Sketch.</desc>
    <defs></defs>
    <g id="Page-1" stroke="none" stroke-width="1" fill="none" fill-rule="evenodd">
        <g id="6-Color-Vector-Character-Icons" transform="translate(-218.000000, -57.000000)">
            <g id="Designer" transform="translate(218.000000, 57.000000)">
                <path d="M61.5436,44.3445 C63.1236,40.5815 63.9996,36.4535 63.9996,32.1225 C63.9996,14.5715 49.6736,0.3445 31.9996,0.3445 C14.3266,0.3445 -0.0004,14.5715 -0.0004,32.1225 C-0.0004,36.4535 0.8756,40.5815 2.4566,44.3445 L61.5436,44.3445 Z" id="Fill-1" fill="#DEF8FC"></path>
                <path d="M55.415,44.8445 C57.352,41.1915 58.461,37.0375 58.461,32.6225 C58.461,18.1095 46.614,6.3445 32,6.3445 C17.386,6.3445 5.539,18.1095 5.539,32.6225 C5.539,37.0375 6.647,41.1915 8.585,44.8445 L55.415,44.8445 Z" id="Fill-4" fill="#C1F3F8"></path>
                <path d="M6,44.3445 L4,44.3445" id="Stroke-7" stroke="#504B46" stroke-linecap="round"></path>
                <path d="M60,44.3445 L58,44.3445" id="Stroke-8" stroke="#504B46" stroke-linecap="round"></path>
                <path d="M8,44.3445 L56,44.3445" id="Stroke-9" stroke="#504B46" stroke-linecap="round"></path>
                <path d="M35.9375,26.8445 L29.9375,26.8445 C24.4145,26.8445 19.9375,31.3215 19.9375,36.8445 L19.9375,37.3445 L24.9375,37.3445 L24.9375,44.3445 L40.9375,44.3445 L40.9375,37.3445 L45.9375,37.3445 L45.9375,36.8445 C45.9375,31.3215 41.4605,26.8445 35.9375,26.8445" id="Fill-10" fill="#4F6FC0"></path>
                <path d="M45.827,35.4378 C45.801,35.2508 45.778,35.0618 45.742,34.8778 C45.709,34.9438 45.687,35.0158 45.687,35.0948 C45.687,35.2278 45.742,35.3478 45.827,35.4378" id="Fill-12" fill="#FFFFFF"></path>
                <path d="M43.6875,32.0945 C43.4115,32.0945 43.1875,32.3185 43.1875,32.5945 C43.1875,32.8705 43.4115,33.0945 43.6875,33.0945 C43.9635,33.0945 44.1875,32.8705 44.1875,32.5945 C44.1875,32.3185 43.9635,32.0945 43.6875,32.0945" id="Fill-14" fill="#FFFFFF"></path>
                <path d="M43.6875,37.0945 C43.5035,37.0945 43.3505,37.1985 43.2635,37.3455 L44.1115,37.3455 C44.0245,37.1985 43.8715,37.0945 43.6875,37.0945" id="Fill-16" fill="#FFFFFF"></path>
                <path d="M38.1875,27.5945 C38.1875,27.8705 38.4115,28.0945 38.6875,28.0945 C38.9635,28.0945 39.1875,27.8705 39.1875,27.5945 C39.1875,27.5155 39.1655,27.4425 39.1325,27.3765 C38.9035,27.2995 38.6705,27.2335 38.4345,27.1725 C38.2895,27.2605 38.1875,27.4125 38.1875,27.5945" id="Fill-18" fill="#FFFFFF"></path>
                <path d="M41.1875,30.5945 C41.4635,30.5945 41.6875,30.3705 41.6875,30.0945 C41.6875,29.8185 41.4635,29.5945 41.1875,29.5945 C40.9115,29.5945 40.6875,29.8185 40.6875,30.0945 C40.6875,30.3705 40.9115,30.5945 41.1875,30.5945" id="Fill-20" fill="#FFFFFF"></path>
                <path d="M38.6875,33.0945 C38.9635,33.0945 39.1875,32.8705 39.1875,32.5945 C39.1875,32.3185 38.9635,32.0945 38.6875,32.0945 C38.4115,32.0945 38.1875,32.3185 38.1875,32.5945 C38.1875,32.8705 38.4115,33.0945 38.6875,33.0945" id="Fill-22" fill="#FFFFFF"></path>
                <path d="M41.1875,35.5945 C41.4635,35.5945 41.6875,35.3705 41.6875,35.0945 C41.6875,34.8185 41.4635,34.5945 41.1875,34.5945 C40.9115,34.5945 40.6875,34.8185 40.6875,35.0945 C40.6875,35.3705 40.9115,35.5945 41.1875,35.5945" id="Fill-24" fill="#FFFFFF"></path>
                <path d="M38.6875,38.0945 C38.9635,38.0945 39.1875,37.8705 39.1875,37.5945 C39.1875,37.3185 38.9635,37.0945 38.6875,37.0945 C38.4115,37.0945 38.1875,37.3185 38.1875,37.5945 C38.1875,37.8705 38.4115,38.0945 38.6875,38.0945" id="Fill-26" fill="#FFFFFF"></path>
                <path d="M40.6875,40.0945 C40.6875,40.2775 40.7905,40.4305 40.9375,40.5175 L40.9375,39.6715 C40.7905,39.7585 40.6875,39.9115 40.6875,40.0945" id="Fill-28" fill="#FFFFFF"></path>
                <path d="M38.6875,42.0945 C38.4115,42.0945 38.1875,42.3185 38.1875,42.5945 C38.1875,42.8705 38.4115,43.0945 38.6875,43.0945 C38.9635,43.0945 39.1875,42.8705 39.1875,42.5945 C39.1875,42.3185 38.9635,42.0945 38.6875,42.0945" id="Fill-30" fill="#FFFFFF"></path>
                <path d="M33.6875,28.0945 C33.9635,28.0945 34.1875,27.8705 34.1875,27.5945 C34.1875,27.3185 33.9635,27.0945 33.6875,27.0945 C33.4115,27.0945 33.1875,27.3185 33.1875,27.5945 C33.1875,27.8705 33.4115,28.0945 33.6875,28.0945" id="Fill-32" fill="#FFFFFF"></path>
                <path d="M36.1875,30.5945 C36.4635,30.5945 36.6875,30.3705 36.6875,30.0945 C36.6875,29.8185 36.4635,29.5945 36.1875,29.5945 C35.9115,29.5945 35.6875,29.8185 35.6875,30.0945 C35.6875,30.3705 35.9115,30.5945 36.1875,30.5945" id="Fill-34" fill="#FFFFFF"></path>
                <path d="M33.6875,33.0945 C33.9635,33.0945 34.1875,32.8705 34.1875,32.5945 C34.1875,32.3185 33.9635,32.0945 33.6875,32.0945 C33.4115,32.0945 33.1875,32.3185 33.1875,32.5945 C33.1875,32.8705 33.4115,33.0945 33.6875,33.0945" id="Fill-36" fill="#FFFFFF"></path>
                <path d="M36.1875,35.5945 C36.4635,35.5945 36.6875,35.3705 36.6875,35.0945 C36.6875,34.8185 36.4635,34.5945 36.1875,34.5945 C35.9115,34.5945 35.6875,34.8185 35.6875,35.0945 C35.6875,35.3705 35.9115,35.5945 36.1875,35.5945" id="Fill-38" fill="#FFFFFF"></path>
                <path d="M33.6875,37.0945 C33.4115,37.0945 33.1875,37.3185 33.1875,37.5945 C33.1875,37.8705 33.4115,38.0945 33.6875,38.0945 C33.9635,38.0945 34.1875,37.8705 34.1875,37.5945 C34.1875,37.3185 33.9635,37.0945 33.6875,37.0945" id="Fill-40" fill="#FFFFFF"></path>
                <path d="M36.1875,39.5945 C35.9115,39.5945 35.6875,39.8185 35.6875,40.0945 C35.6875,40.3705 35.9115,40.5945 36.1875,40.5945 C36.4635,40.5945 36.6875,40.3705 36.6875,40.0945 C36.6875,39.8185 36.4635,39.5945 36.1875,39.5945" id="Fill-42" fill="#FFFFFF"></path>
                <path d="M33.6875,42.0945 C33.4115,42.0945 33.1875,42.3185 33.1875,42.5945 C33.1875,42.8705 33.4115,43.0945 33.6875,43.0945 C33.9635,43.0945 34.1875,42.8705 34.1875,42.5945 C34.1875,42.3185 33.9635,42.0945 33.6875,42.0945" id="Fill-44" fill="#FFFFFF"></path>
                <path d="M28.6875,28.0945 C28.9635,28.0945 29.1875,27.8705 29.1875,27.5945 C29.1875,27.3185 28.9635,27.0945 28.6875,27.0945 C28.4115,27.0945 28.1875,27.3185 28.1875,27.5945 C28.1875,27.8705 28.4115,28.0945 28.6875,28.0945" id="Fill-46" fill="#FFFFFF"></path>
                <path d="M31.1875,30.5945 C31.4635,30.5945 31.6875,30.3705 31.6875,30.0945 C31.6875,29.8185 31.4635,29.5945 31.1875,29.5945 C30.9115,29.5945 30.6875,29.8185 30.6875,30.0945 C30.6875,30.3705 30.9115,30.5945 31.1875,30.5945" id="Fill-48" fill="#FFFFFF"></path>
                <path d="M28.6875,32.0945 C28.4115,32.0945 28.1875,32.3185 28.1875,32.5945 C28.1875,32.8705 28.4115,33.0945 28.6875,33.0945 C28.9635,33.0945 29.1875,32.8705 29.1875,32.5945 C29.1875,32.3185 28.9635,32.0945 28.6875,32.0945" id="Fill-50" fill="#FFFFFF"></path>
                <path d="M31.1875,34.5945 C30.9115,34.5945 30.6875,34.8185 30.6875,35.0945 C30.6875,35.3705 30.9115,35.5945 31.1875,35.5945 C31.4635,35.5945 31.6875,35.3705 31.6875,35.0945 C31.6875,34.8185 31.4635,34.5945 31.1875,34.5945" id="Fill-52" fill="#FFFFFF"></path>
                <path d="M28.6875,37.0945 C28.4115,37.0945 28.1875,37.3185 28.1875,37.5945 C28.1875,37.8705 28.4115,38.0945 28.6875,38.0945 C28.9635,38.0945 29.1875,37.8705 29.1875,37.5945 C29.1875,37.3185 28.9635,37.0945 28.6875,37.0945" id="Fill-54" fill="#FFFFFF"></path>
                <path d="M31.1875,39.5945 C30.9115,39.5945 30.6875,39.8185 30.6875,40.0945 C30.6875,40.3705 30.9115,40.5945 31.1875,40.5945 C31.4635,40.5945 31.6875,40.3705 31.6875,40.0945 C31.6875,39.8185 31.4635,39.5945 31.1875,39.5945" id="Fill-56" fill="#FFFFFF"></path>
                <path d="M28.6875,42.0945 C28.4115,42.0945 28.1875,42.3185 28.1875,42.5945 C28.1875,42.8705 28.4115,43.0945 28.6875,43.0945 C28.9635,43.0945 29.1875,42.8705 29.1875,42.5945 C29.1875,42.3185 28.9635,42.0945 28.6875,42.0945" id="Fill-58" fill="#FFFFFF"></path>
                <path d="M26.1875,29.5945 C25.9115,29.5945 25.6875,29.8185 25.6875,30.0945 C25.6875,30.3705 25.9115,30.5945 26.1875,30.5945 C26.4635,30.5945 26.6875,30.3705 26.6875,30.0945 C26.6875,29.8185 26.4635,29.5945 26.1875,29.5945" id="Fill-60" fill="#FFFFFF"></path>
                <path d="M23.6875,33.0945 C23.9635,33.0945 24.1875,32.8705 24.1875,32.5945 C24.1875,32.3185 23.9635,32.0945 23.6875,32.0945 C23.4115,32.0945 23.1875,32.3185 23.1875,32.5945 C23.1875,32.8705 23.4115,33.0945 23.6875,33.0945" id="Fill-62" fill="#FFFFFF"></path>
                <path d="M26.1875,34.5945 C25.9115,34.5945 25.6875,34.8185 25.6875,35.0945 C25.6875,35.3705 25.9115,35.5945 26.1875,35.5945 C26.4635,35.5945 26.6875,35.3705 26.6875,35.0945 C26.6875,34.8185 26.4635,34.5945 26.1875,34.5945" id="Fill-64" fill="#FFFFFF"></path>
                <path d="M23.6875,37.0945 C23.5035,37.0945 23.3505,37.1985 23.2635,37.3455 L24.1115,37.3455 C24.0245,37.1985 23.8715,37.0945 23.6875,37.0945" id="Fill-66" fill="#FFFFFF"></path>
                <path d="M26.1875,39.5945 C25.9115,39.5945 25.6875,39.8185 25.6875,40.0945 C25.6875,40.3705 25.9115,40.5945 26.1875,40.5945 C26.4635,40.5945 26.6875,40.3705 26.6875,40.0945 C26.6875,39.8185 26.4635,39.5945 26.1875,39.5945" id="Fill-68" fill="#FFFFFF"></path>
                <path d="M21.1875,34.5945 C20.9115,34.5945 20.6875,34.8185 20.6875,35.0945 C20.6875,35.3705 20.9115,35.5945 21.1875,35.5945 C21.4635,35.5945 21.6875,35.3705 21.6875,35.0945 C21.6875,34.8185 21.4635,34.5945 21.1875,34.5945" id="Fill-70" fill="#FFFFFF"></path>
                <path d="M45.9375,36.8457 C45.9375,31.3227 41.4605,26.8457 35.9375,26.8457 L29.9375,26.8457 C24.4145,26.8457 19.9375,31.3227 19.9375,36.8457 L19.9375,37.8457 C19.9375,32.3227 24.4145,30.8457 29.9375,30.8457 L35.9375,30.8457 C41.4605,30.8457 45.9375,32.3227 45.9375,37.8457 L45.9375,36.8457 Z" id="Fill-72" fill-opacity="0.2" fill="#FFFFFF"></path>
                <polyline id="Stroke-74" stroke="#504B46" stroke-linecap="round" stroke-linejoin="round" points="24.9375 36.3457 24.9375 44.3457 40.9375 44.3457 40.9375 36.3457"></polyline>
                <path d="M40.9375,37.3457 L40.9375,37.3457 L45.9375,37.3457 L45.9375,36.8457 C45.9375,31.3227 41.4605,26.8457 35.9375,26.8457 L29.9375,26.8457 C24.4145,26.8457 19.9375,31.3227 19.9375,36.8457 L19.9375,37.3457 L24.9375,37.3457" id="Stroke-76" stroke="#504B46" stroke-linecap="round" stroke-linejoin="round"></path>
                <path d="M24.9375,38.3457 L24.9375,37.3457" id="Fill-78" fill="#EDF2F4"></path>
                <path d="M24.9375,38.3457 L24.9375,37.3457" id="Stroke-80" stroke="#504B46" stroke-linecap="round" stroke-linejoin="round"></path>
                <path d="M33,38.3445 L33,43.8445" id="Fill-82" fill="#FFD183"></path>
                <path d="M33,38.3445 L33,43.8445" id="Stroke-84" stroke="#504A45" stroke-linecap="round" stroke-linejoin="round"></path>
                <path d="M54.4375,46.3445 L52.9375,46.3445 L51.9375,46.3445 L50.8745,46.3445 C48.2785,46.3445 45.8745,45.4365 45.8745,38.8455 L45.8745,37.3455 L41.8745,37.3455 L41.8745,38.8455 C41.8745,48.3495 46.7695,50.3445 50.8745,50.3445 L51.9375,50.3445 L52.9375,50.3445 L54.4375,50.3445 C55.5425,50.3445 56.4375,49.4485 56.4375,48.3445 C56.4375,47.2395 55.5425,46.3445 54.4375,46.3445" id="Fill-86" fill="#FFD4C3"></path>
                <path d="M54.4375,46.3445 L52.9375,46.3445 L51.9375,46.3445 L50.8745,46.3445 C48.2785,46.3445 45.8745,45.4365 45.8745,38.8455 L45.8745,37.3455 L41.8745,37.3455 L41.8745,38.8455 C41.8745,48.3495 46.7695,50.3445 50.8745,50.3445 L51.9375,50.3445 L52.9375,50.3445 L54.4375,50.3445 C55.5425,50.3445 56.4375,49.4485 56.4375,48.3445 C56.4375,47.2395 55.5425,46.3445 54.4375,46.3445 L54.4375,46.3445 Z" id="Stroke-88" stroke="#504A45"></path>
                <path d="M35.9375,27.7402 C35.9375,28.7432 35.4365,29.6802 34.6015,30.2362 C33.5935,30.9082 32.2815,30.9082 31.2735,30.2362 C30.4385,29.6802 29.9375,28.7432 29.9375,27.7402 L29.9375,23.3462 L35.9375,23.3462 L35.9375,27.7402 Z" id="Fill-90" fill="#FFDFD1"></path>
                <path d="M29.9375,26.7385 C30.0135,26.7725 30.0845,26.8105 30.1645,26.8415 C31.8435,27.5135 34.0315,27.5135 35.7105,26.8415 C35.7905,26.8105 35.8615,26.7725 35.9375,26.7385 L35.9375,23.3455 L29.9375,23.3455 L29.9375,26.7385 Z" id="Fill-92" fill="#FFCAB3"></path>
                <path d="M35.9375,27.7402 C35.9375,28.7432 35.4365,29.6802 34.6015,30.2362 C33.5935,30.9082 32.2815,30.9082 31.2735,30.2362 C30.4385,29.6802 29.9375,28.7432 29.9375,27.7402 L29.9375,23.3462 L35.9375,23.3462 L35.9375,27.7402 L35.9375,27.7402 Z" id="Stroke-94" stroke="#504B46" stroke-linecap="round" stroke-linejoin="round"></path>
                <path d="M42.9375,15.8457 C42.9375,14.9147 42.2985,14.1397 41.4375,13.9167 L41.4375,13.3457 C41.4375,8.9277 37.3555,5.3457 32.9375,5.3457 C28.5195,5.3457 24.4375,8.9277 24.4375,13.3457 L24.4375,13.9167 C23.5765,14.1397 22.9375,14.9147 22.9375,15.8457 C22.9375,16.7847 23.5865,17.5667 24.4595,17.7817 C24.6875,21.9957 28.6665,25.3457 32.9375,25.3457 C37.2085,25.3457 41.1875,21.9957 41.4155,17.7817 C42.2885,17.5667 42.9375,16.7847 42.9375,15.8457" id="Fill-96" fill="#FFD4C3"></path>
                <path d="M42.9375,15.8457 C42.9375,14.9147 42.2985,14.1397 41.4375,13.9167 L41.4375,13.3457 C41.4375,8.9277 37.3555,5.3457 32.9375,5.3457 C28.5195,5.3457 24.4375,8.9277 24.4375,13.3457 L24.4375,13.9167 C23.5765,14.1397 22.9375,14.9147 22.9375,15.8457 C22.9375,16.7847 23.5865,17.5667 24.4595,17.7817 C24.6875,21.9957 28.6665,25.3457 32.9375,25.3457 C37.2085,25.3457 41.1875,21.9957 41.4155,17.7817 C42.2885,17.5667 42.9375,16.7847 42.9375,15.8457 L42.9375,15.8457 Z" id="Stroke-98" stroke="#504A45"></path>
                <path d="M31.4375,16.3457 C31.1285,15.7587 30.5865,15.3457 29.9375,15.3457 C29.2885,15.3457 28.7465,15.7587 28.4375,16.3457" id="Stroke-100" stroke="#504B46" stroke-linecap="round" stroke-linejoin="round"></path>
                <path d="M37.4375,16.3457 C37.1285,15.7587 36.5865,15.3457 35.9375,15.3457 C35.2885,15.3457 34.7465,15.7587 34.4375,16.3457" id="Stroke-102" stroke="#504B46" stroke-linecap="round" stroke-linejoin="round"></path>
                <path d="M33.5,12.3445 C36.332,12.3445 38.906,11.6575 40.856,10.5385 C39.583,7.5075 36.366,5.3455 32.938,5.3455 C29.722,5.3455 26.693,7.2475 25.278,9.9835 C27.293,11.4285 30.225,12.3445 33.5,12.3445" id="Fill-104" fill="#F9BEAA"></path>
                <path d="M39.7708,9.5111 C39.8008,10.5151 42.2028,24.2891 32.9998,24.8441 C24.0028,25.3881 25.5828,9.3441 26.9998,9.3441 C29.4998,9.8441 34.5588,11.0681 39.9378,8.8441 C42.9998,-3.6559 21.2058,-0.9639 21.9378,9.3441 C23.9998,8.3441 24.4378,9.8441 24.4378,11.3441 C24.4378,16.1241 24.6878,19.2191 24.4378,20.8441 C22.7658,31.7071 30.1668,32.2611 33.0838,38.0941 C36.3338,31.9281 43.9598,29.2971 41.4378,20.4691 C41.0628,19.1571 42.3748,9.5111 39.7708,9.5111" id="Fill-106" fill="#FFD183"></path>
                <path d="M41.5524,25.2451 C41.5184,25.2441 41.4854,25.2381 41.4514,25.2361 C41.5554,25.2741 41.6604,25.3151 41.7614,25.3481 C41.7674,25.3151 41.7704,25.2801 41.7764,25.2471 C41.7004,25.2451 41.6304,25.2481 41.5524,25.2451" id="Fill-108" fill="#FFC258"></path>
                <path d="M24.25,25.2461 C24.253,25.2711 24.257,25.2941 24.26,25.3181 C24.334,25.2931 24.411,25.2641 24.486,25.2361 C24.453,25.2381 24.42,25.2441 24.386,25.2451 C24.339,25.2471 24.296,25.2451 24.25,25.2461" id="Fill-110" fill="#FFC258"></path>
                <path d="M32.3369,24.7478 C31.2669,24.7168 30.3589,24.4378 29.5949,23.9708 C28.1019,24.6938 26.3449,25.1428 24.4869,25.2358 C24.4109,25.2638 24.3339,25.2928 24.2599,25.3188 C24.3759,26.2998 24.5969,27.1638 24.8989,27.9358 C27.9309,27.6958 30.6679,26.5258 32.3369,24.7478" id="Fill-112" fill="#FFC258"></path>
                <path d="M41.4518,25.2361 C39.4918,25.1371 37.6498,24.6391 36.1078,23.8441 C35.3878,24.2631 34.5408,24.5551 33.5478,24.6821 C35.1808,26.4631 37.8708,27.6481 40.8718,27.9211 C41.2798,27.1261 41.5908,26.2781 41.7608,25.3481 C41.6608,25.3151 41.5548,25.2741 41.4518,25.2361" id="Fill-114" fill="#FFC258"></path>
                <path d="M23.9017,9.4465 C26.3937,3.9345 36.1197,2.0335 39.9997,5.8315 C39.2507,-3.2955 21.0717,-0.2485 21.7407,9.1835 C22.9157,8.6145 23.5617,8.8565 23.9017,9.4465" id="Fill-116" fill="#FFEDD8"></path>
                <path d="M39.7708,9.5111 C39.8008,10.5151 42.2028,24.2891 32.9998,24.8441 C24.0028,25.3881 25.5828,9.3441 26.9998,9.3441 C29.4998,9.8441 34.5588,11.0681 39.9378,8.8441 C42.9998,-3.6559 21.2058,-0.9639 21.9378,9.3441 C23.9998,8.3441 24.4378,9.8441 24.4378,11.3441 C24.4378,16.1241 24.6878,19.2191 24.4378,20.8441 C22.7658,31.7071 30.1668,32.2611 33.0838,38.0941 C36.3338,31.9281 44.1878,29.1571 41.1878,20.2821 C40.7508,18.9891 43.4378,9.5111 39.7708,9.5111 L39.7708,9.5111 Z" id="Stroke-118" stroke="#504A45" stroke-linecap="round" stroke-linejoin="round"></path>
                <path d="M43.1667,20.9278 C44.5417,20.3658 45.3747,22.6568 43.6247,22.9698 C41.0277,23.4338 35.1657,18.4838 32.9997,19.8448 C30.8347,18.4838 24.9727,23.4338 22.3747,22.9698 C20.6247,22.6568 21.4587,20.3658 22.8337,20.9278 C19.2497,18.0318 17.8007,25.6308 24.4167,25.3448 C28.0757,25.1868 31.3747,23.6568 32.9997,21.3448 C34.6247,23.6568 37.9247,25.1868 41.5837,25.3448 C48.1997,25.6308 46.7497,18.0318 43.1667,20.9278" id="Fill-120" fill="#FFD183"></path>
                <path d="M43.1667,20.9278 C44.5417,20.3658 45.3747,22.6568 43.6247,22.9698 C41.0277,23.4338 35.1657,18.4838 32.9997,19.8448 C30.8347,18.4838 24.9727,23.4338 22.3747,22.9698 C20.6247,22.6568 21.4587,20.3658 22.8337,20.9278 C19.2497,18.0318 17.8007,25.6308 24.4167,25.3448 C28.0757,25.1868 31.3747,23.6568 32.9997,21.3448 C34.6247,23.6568 37.9247,25.1868 41.5837,25.3448 C48.1997,25.6308 46.7497,18.0318 43.1667,20.9278 L43.1667,20.9278 Z" id="Stroke-122" stroke="#504A45" stroke-linecap="round" stroke-linejoin="round"></path>
                <path d="M35.5,48.3445 C35.5,47.2395 34.605,46.3445 33.5,46.3445 L32,46.3445 L31,46.3445 L29.938,46.3445 C27.341,46.3445 24.938,45.4365 24.938,38.8455 L24.938,37.3455 L20.938,37.3455 L20.938,38.8455 C20.938,48.3495 25.832,50.3445 29.938,50.3445 L31,50.3445 L32,50.3445 L33.5,50.3445 C34.605,50.3445 35.5,49.4485 35.5,48.3445" id="Fill-124" fill="#FFD4C3"></path>
                <path d="M35.5,48.3445 C35.5,47.2395 34.605,46.3445 33.5,46.3445 L32,46.3445 L31,46.3445 L29.938,46.3445 C27.341,46.3445 24.938,45.4365 24.938,38.8455 L24.938,37.3455 L20.938,37.3455 L20.938,38.8455 C20.938,48.3495 25.832,50.3445 29.938,50.3445 L31,50.3445 L32,50.3445 L33.5,50.3445 C34.605,50.3445 35.5,49.4485 35.5,48.3445 L35.5,48.3445 Z" id="Stroke-126" stroke="#504A45"></path>
                <path d="M65.5,51.8445 C65.5,52.6725 57.441,53.3445 47.5,53.3445 C37.559,53.3445 29.5,52.6725 29.5,51.8445 C29.5,51.0165 37.559,50.3445 47.5,50.3445 C57.441,50.3445 65.5,51.0165 65.5,51.8445" id="Fill-128" fill="#E3ECF1"></path>
                <path d="M43.8108,48.3445 L41.8108,48.3445 L46.5868,33.5375 C46.7208,33.1245 47.1048,32.8445 47.5388,32.8445 L48.8108,32.8445" id="Fill-130" fill="#E3ECF1"></path>
                <path d="M43.8108,48.3445 L41.8108,48.3445 L46.5868,33.5375 C46.7208,33.1245 47.1048,32.8445 47.5388,32.8445 L48.8108,32.8445" id="Stroke-132" stroke="#504A45" stroke-linejoin="round"></path>
                <path d="M63.3108,48.3445 L43.8108,48.3445 L48.8108,32.8445 L66.9378,32.8445 C67.2568,32.8445 67.5578,32.9975 67.7458,33.2555 C67.9338,33.5145 67.9878,33.8475 67.8888,34.1515 L63.3108,48.3445 Z" id="Fill-134" fill="#ADBAC7"></path>
                <path d="M63.3108,48.3445 L43.8108,48.3445 L48.8108,32.8445 L66.9378,32.8445 C67.2568,32.8445 67.5578,32.9975 67.7458,33.2555 C67.9338,33.5145 67.9878,33.8475 67.8888,34.1515 L63.3108,48.3445 L63.3108,48.3445 Z" id="Stroke-136" stroke="#504A45" stroke-linejoin="round"></path>
                <polygon id="Fill-138" fill="#CAD7DE" points="62 32.8445 48.811 32.8445 43.811 48.3445 46.5 48.3445"></polygon>
                <path d="M63.3108,48.3445 L42.8108,48.3445 L42.8108,50.8445 L61.3108,50.8445 C62.4158,50.8445 63.3108,49.9495 63.3108,48.8445 L63.3108,48.3445 Z" id="Fill-140" fill="#CAD7DE"></path>
                <path d="M63.3108,48.3445 L42.8108,48.3445 L42.8108,50.8445 L61.3108,50.8445 C62.4158,50.8445 63.3108,49.9495 63.3108,48.8445 L63.3108,48.3445 L63.3108,48.3445 Z" id="Stroke-142" stroke="#504A45" stroke-linejoin="round"></path>
                <path d="M42.8108,48.3445 L32.8108,48.3445 L32.8108,48.8445 C32.8108,49.9495 33.7058,50.8445 34.8108,50.8445 L42.8108,50.8445 L42.8108,48.3445 Z" id="Fill-144" fill="#E3ECF1"></path>
                <path d="M42.8108,48.3445 L32.8108,48.3445 L32.8108,48.8445 C32.8108,49.9495 33.7058,50.8445 34.8108,50.8445 L42.8108,50.8445 L42.8108,48.3445 L42.8108,48.3445 Z" id="Stroke-146" stroke="#504A45" stroke-linejoin="round"></path>
                <path d="M57.6517,40.0427 C57.6457,39.4207 58.1587,39.1217 58.1827,39.1077 C57.8937,38.6857 57.4437,38.6277 57.2837,38.6207 C56.9017,38.5817 56.5377,38.8457 56.3427,38.8457 C56.1497,38.8457 55.8497,38.6267 55.5327,38.6317 C55.1157,38.6387 54.7307,38.8747 54.5167,39.2477 C54.0827,39.9997 54.4057,41.1127 54.8277,41.7227 C55.0337,42.0217 55.2807,42.3567 55.6027,42.3437 C55.9147,42.3317 56.0317,42.1427 56.4077,42.1427 C56.7837,42.1427 56.8897,42.3437 57.2187,42.3377 C57.5537,42.3327 57.7657,42.0347 57.9707,41.7347 C58.2077,41.3887 58.3047,41.0537 58.3107,41.0357 C58.3027,41.0327 57.6587,40.7857 57.6517,40.0427" id="Fill-148" fill="#EDF2F4"></path>
                <path d="M57.6517,40.0427 C57.6457,39.4207 58.1587,39.1217 58.1827,39.1077 C57.8937,38.6857 57.4437,38.6277 57.2837,38.6207 C56.9017,38.5817 56.5377,38.8457 56.3427,38.8457 C56.1497,38.8457 55.8497,38.6267 55.5327,38.6317 C55.1157,38.6387 54.7307,38.8747 54.5167,39.2477 C54.0827,39.9997 54.4057,41.1127 54.8277,41.7227 C55.0337,42.0217 55.2807,42.3567 55.6027,42.3437 C55.9147,42.3317 56.0317,42.1427 56.4077,42.1427 C56.7837,42.1427 56.8897,42.3437 57.2187,42.3377 C57.5537,42.3327 57.7657,42.0347 57.9707,41.7347 C58.2077,41.3887 58.3047,41.0537 58.3107,41.0357 C58.3027,41.0327 57.6587,40.7857 57.6517,40.0427 L57.6517,40.0427 Z" id="Stroke-150" stroke="#504A45" stroke-linejoin="round"></path>
                <path d="M56.8109,37.3445 L57.2619,36.8935" id="Stroke-152" stroke="#504A45" stroke-linecap="round" stroke-linejoin="round"></path>
                <path d="M63.3108,48.3445 L43.8108,48.3445 L48.8108,32.8445 L66.9378,32.8445 C67.2568,32.8445 67.5578,32.9975 67.7458,33.2555 C67.9338,33.5145 67.9878,33.8475 67.8888,34.1515 L63.3108,48.3445 L63.3108,48.3445 Z" id="Stroke-154" stroke="#504A45" stroke-linejoin="round"></path>
                <path d="M11.8891,29.2232 C11.3031,29.8092 11.3031,30.7592 11.8891,31.3442 L12.7681,32.2232 C13.3531,32.8092 13.3531,33.7592 12.7681,34.3442 L11.8891,35.2232 C11.3031,35.8092 11.3031,36.7592 11.8891,37.3442" id="Stroke-156" stroke="#FFFFFF" stroke-linecap="round" stroke-linejoin="round"></path>
                <path d="M15.682,29.2232 C15.096,29.8092 15.096,30.7592 15.682,31.3442 L16.561,32.2232 C17.146,32.8092 17.146,33.7592 16.561,34.3442 L15.682,35.2232 C15.096,35.8092 15.096,36.7592 15.682,37.3442" id="Stroke-158" stroke="#FFFFFF" stroke-linecap="round" stroke-linejoin="round"></path>
                <path d="M20.5,52.3445 C20.5,52.8965 17.366,53.3445 13.5,53.3445 C9.634,53.3445 6.5,52.8965 6.5,52.3445 C6.5,51.7925 9.634,51.3445 13.5,51.3445 C17.366,51.3445 20.5,51.7925 20.5,52.3445" id="Fill-160" fill="#E3ECF1"></path>
                <path d="M9,49.8445 C6.794,49.8445 5,48.0505 5,45.8445 C5,43.6385 6.794,41.8445 9,41.8445 L9,43.8445 C7.897,43.8445 7,44.7415 7,45.8445 C7,46.9475 7.897,47.8445 9,47.8445 L9,49.8445 Z" id="Fill-162" fill="#FFFFFF"></path>
                <path d="M9,49.8445 C6.794,49.8445 5,48.0505 5,45.8445 C5,43.6385 6.794,41.8445 9,41.8445 L9,43.8445 C7.897,43.8445 7,44.7415 7,45.8445 C7,46.9475 7.897,47.8445 9,47.8445 L9,49.8445 L9,49.8445 Z" id="Stroke-164" stroke="#504A45" stroke-linejoin="round"></path>
                <path d="M18.9375,50.8445 C18.9375,51.3965 18.4895,51.8445 17.9375,51.8445 L10.0625,51.8445 C9.5105,51.8445 9.0625,51.3965 9.0625,50.8445 L9.0625,40.3445 C9.0625,39.7925 9.5105,39.3445 10.0625,39.3445 L17.9375,39.3445 C18.4895,39.3445 18.9375,39.7925 18.9375,40.3445 L18.9375,50.8445 Z" id="Fill-166" fill="#FFFFFF"></path>
                <path d="M18.9375,50.8445 C18.9375,51.3965 18.4895,51.8445 17.9375,51.8445 L10.0625,51.8445 C9.5105,51.8445 9.0625,51.3965 9.0625,50.8445 L9.0625,40.3445 C9.0625,39.7925 9.5105,39.3445 10.0625,39.3445 L17.9375,39.3445 C18.4895,39.3445 18.9375,39.7925 18.9375,40.3445 L18.9375,50.8445 L18.9375,50.8445 Z" id="Stroke-168" stroke="#504A45" stroke-linejoin="round"></path>
                <path d="M15.4375,45.3445 C15.4375,45.3445 17.1355,44.5705 17.1355,43.3275 C17.1355,42.0825 15.6295,41.9865 15.4375,43.2315 C15.2455,41.9865 13.7395,42.0825 13.7395,43.4225 C13.7395,44.7625 15.4375,45.3445 15.4375,45.3445" id="Fill-170" fill="#E05C4A"></path>
                <path d="M12.1875,42.8445 L12.1875,44.8445" id="Stroke-172" stroke="#504A45" stroke-linecap="round" stroke-linejoin="round"></path>
                <polyline id="Stroke-174" stroke="#504A45" stroke-linecap="round" stroke-linejoin="round" points="11.4375 48.3445 11.4375 46.3445 12.9375 48.3445 12.9375 46.3445"></polyline>
                <polyline id="Stroke-176" stroke="#504A45" stroke-linecap="round" stroke-linejoin="round" points="14.6875 46.3445 15.4375 47.3445 16.1875 46.3445"></polyline>
                <path d="M15.4375,48.3445 L15.4375,47.3445" id="Stroke-178" stroke="#504A45" stroke-linecap="round" stroke-linejoin="round"></path>
                <path d="M11.6875,42.8445 L12.6875,42.8445" id="Stroke-180" stroke="#504A45" stroke-linecap="round" stroke-linejoin="round"></path>
                <path d="M11.6875,44.8445 L12.6875,44.8445" id="Stroke-182" stroke="#504A45" stroke-linecap="round" stroke-linejoin="round"></path>
            </g>
        </g>
    </g>
</svg>