<?xml version="1.0" encoding="UTF-8"?>
<svg width="64px" height="52px" viewBox="0 0 64 52" version="1.1" xmlns="http://www.w3.org/2000/svg" xmlns:xlink="http://www.w3.org/1999/xlink">
    <!-- Generator: Sketch 46.2 (44496) - http://www.bohemiancoding.com/sketch -->
    <title>Doctor</title>
    <desc>Created with Sketch.</desc>
    <defs></defs>
    <g id="Page-1" stroke="none" stroke-width="1" fill="none" fill-rule="evenodd">
        <g id="6-Color-Vector-Character-Icons" transform="translate(-128.000000, -134.000000)">
            <g id="Doctor" transform="translate(128.000000, 134.000000)">
                <path d="M61.5436,44 C63.1236,40.237 63.9996,36.109 63.9996,31.778 C63.9996,14.227 49.6736,0 31.9996,0 C14.3266,0 -0.0004,14.227 -0.0004,31.778 C-0.0004,36.109 0.8756,40.237 2.4566,44 L61.5436,44 Z" id="Fill-1" fill="#DEF8FC"></path>
                <path d="M55.415,44.5 C57.352,40.847 58.461,36.693 58.461,32.278 C58.461,17.765 46.614,6 32,6 C17.386,6 5.538,17.765 5.538,32.278 C5.538,36.693 6.647,40.847 8.585,44.5 L55.415,44.5 Z" id="Fill-4" fill="#C1F3F8"></path>
                <path d="M6,44 L4,44" id="Stroke-6" stroke="#504B46" stroke-linecap="round"></path>
                <path d="M60,44 L58,44" id="Stroke-8" stroke="#504B46" stroke-linecap="round"></path>
                <path d="M8,44 L56,44" id="Stroke-10" stroke="#504B46" stroke-linecap="round"></path>
                <path d="M53.5,36.5 C53.5,30.977 49.023,26.5 43.5,26.5 L37.5,26.5 C31.977,26.5 27.5,30.977 27.5,36.5 L27.5,44 L53.5,44 L53.5,36.5 Z" id="Fill-13" fill="#EDF2F4"></path>
                <path d="M53.5,36.5 C53.5,30.977 49.023,26.5 43.5,26.5 L37.5,26.5 C31.977,26.5 27.5,30.977 27.5,36.5 L27.5,40.5 C27.5,34.977 31.977,30.5 37.5,30.5 L43.5,30.5 C49.023,30.5 53.5,34.977 53.5,40.5 L53.5,36.5 Z" id="Fill-15" fill="#FFFFFF"></path>
                <path d="M53.5,36.5 C53.5,30.977 49.023,26.5 43.5,26.5 L37.5,26.5 C31.977,26.5 27.5,30.977 27.5,36.5 L27.5,44 L53.5,44 L53.5,36.5 L53.5,36.5 Z" id="Stroke-17" stroke="#504B46" stroke-linecap="round" stroke-linejoin="round"></path>
                <path d="M48.5,44 L48.5,40.5" id="Fill-19" fill="#EDF2F4"></path>
                <path d="M48.5,44 L48.5,40.5" id="Stroke-21" stroke="#504B46" stroke-linecap="round" stroke-linejoin="round"></path>
                <path d="M48.5,39 L48.5,38.5" id="Fill-23" fill="#EDF2F4"></path>
                <path d="M48.5,39 L48.5,38.5" id="Stroke-25" stroke="#504B46" stroke-linecap="round" stroke-linejoin="round"></path>
                <path d="M43.5,24.5 L44.5,28.5 L40.5,44 L42.5,44 L46,36.5 L45,34 L48.5,32.5 L47.24,28.089 C46.773,26.456 45.077,25.131 43.5,24.5" id="Fill-27" fill="#EDF2F4"></path>
                <path d="M43.5,24.5 L44.5,28.5 L40.5,44 L42.5,44 L46,36.5 L45,34 L48.5,32.5 L47.24,28.089 C46.773,26.456 45.077,25.131 43.5,24.5 L43.5,24.5 Z" id="Stroke-29" stroke="#504B46" stroke-linecap="round" stroke-linejoin="round"></path>
                <path d="M44,26.5 C43.75,26.481 43.755,26.5 43.5,26.5 L37.5,26.5 C37.245,26.5 37.25,26.481 37,26.5 L36.5,28.5 L40.5,44 L44.5,28.5 L44,26.5 Z" id="Fill-31" fill="#7AD9C3"></path>
                <path d="M44,26.5 C43.75,26.481 43.755,26.5 43.5,26.5 L37.5,26.5 C37.245,26.5 37.25,26.481 37,26.5 L36.5,28.5 L40.5,44 L44.5,28.5 L44,26.5 L44,26.5 Z" id="Stroke-33" stroke="#504B46" stroke-linecap="round" stroke-linejoin="round"></path>
                <polygon id="Fill-35" fill="#FDDFD1" points="43.5 26.5 40.5 33 37.5 26.5 37.5 22 43.5 22"></polygon>
                <path d="M37.5,25.3929 C37.576,25.4269 37.647,25.4649 37.727,25.4959 C39.406,26.1679 41.594,26.1679 43.273,25.4959 C43.353,25.4649 43.424,25.4269 43.5,25.3929 L43.5,21.9999 L37.5,21.9999 L37.5,25.3929 Z" id="Fill-37" fill="#FCCAB4"></path>
                <path d="M32.5,44 L32.5,40.5" id="Fill-39" fill="#EDF2F4"></path>
                <path d="M32.5,44 L32.5,40.5" id="Stroke-41" stroke="#504B46" stroke-linecap="round" stroke-linejoin="round"></path>
                <path d="M32.5,39 L32.5,38.5" id="Fill-43" fill="#EDF2F4"></path>
                <path d="M32.5,39 L32.5,38.5" id="Stroke-45" stroke="#504B46" stroke-linecap="round" stroke-linejoin="round"></path>
                <path d="M37.5,24.5 L36.5,28.5 L40.5,44 L38.5,44 L35,36.5 L36,34 L32.5,32.5 L33.76,28.089 C34.227,26.456 35.923,25.131 37.5,24.5" id="Fill-47" fill="#EDF2F4"></path>
                <path d="M37.5,24.5 L36.5,28.5 L40.5,44 L38.5,44 L35,36.5 L36,34 L32.5,32.5 L33.76,28.089 C34.227,26.456 35.923,25.131 37.5,24.5 L37.5,24.5 Z" id="Stroke-49" stroke="#504B46" stroke-linecap="round" stroke-linejoin="round"></path>
                <polygon id="Stroke-51" stroke="#504B46" stroke-linecap="round" stroke-linejoin="round" points="43.5 26.5 40.5 33 37.5 26.5 37.5 22 43.5 22"></polygon>
                <path d="M53.5,16.1667 C53.5,14.8407 52.602,13.7357 51.384,13.3957 C51.796,13.0017 52.056,12.4487 52.056,11.8337 C52.056,10.6367 51.086,9.6667 49.889,9.6667 C49.876,9.6667 49.865,9.6697 49.853,9.6707 C49.484,4.8217 45.443,0.9997 40.5,0.9997 C35.557,0.9997 31.516,4.8217 31.147,9.6707 C31.135,9.6697 31.124,9.6667 31.111,9.6667 C29.914,9.6667 28.944,10.6367 28.944,11.8337 C28.944,12.4487 29.204,13.0017 29.616,13.3957 C28.398,13.7357 27.5,14.8407 27.5,16.1667 C27.5,17.5857 28.525,18.7607 29.875,19.0037 C29.82,19.2537 29.787,19.5117 29.787,19.7777 C29.787,21.7717 31.404,23.3887 33.398,23.3887 C35.393,23.3887 37.009,21.7717 37.009,19.7777 C37.009,19.5307 36.984,19.2887 36.936,19.0557 L44.304,19.0557 C44.257,19.2887 44.231,19.5307 44.231,19.7777 C44.231,21.7717 45.848,23.3887 47.843,23.3887 C49.837,23.3887 51.454,21.7717 51.454,19.7777 C51.454,19.4907 51.412,19.2157 51.349,18.9487 C52.585,18.6207 53.5,17.5057 53.5,16.1667" id="Fill-53" fill="#FED75C"></path>
                <path d="M40.5,4.5 C44.207,4.5 47.478,5.754 49.471,7.67 C48.305,3.813 44.738,1 40.5,1 C36.262,1 32.695,3.813 31.529,7.67 C33.522,5.754 36.793,4.5 40.5,4.5" id="Fill-55" fill="#FFEBB0"></path>
                <path d="M53.5,16.1667 C53.5,14.8407 52.602,13.7357 51.384,13.3957 C51.796,13.0017 52.056,12.4487 52.056,11.8337 C52.056,10.6367 51.086,9.6667 49.889,9.6667 C49.876,9.6667 49.865,9.6697 49.853,9.6707 C49.484,4.8217 45.443,0.9997 40.5,0.9997 C35.557,0.9997 31.516,4.8217 31.147,9.6707 C31.135,9.6697 31.124,9.6667 31.111,9.6667 C29.914,9.6667 28.944,10.6367 28.944,11.8337 C28.944,12.4487 29.204,13.0017 29.616,13.3957 C28.398,13.7357 27.5,14.8407 27.5,16.1667 C27.5,17.5857 28.525,18.7607 29.875,19.0037 C29.82,19.2537 29.787,19.5117 29.787,19.7777 C29.787,21.7717 31.404,23.3887 33.398,23.3887 C35.393,23.3887 37.009,21.7717 37.009,19.7777 C37.009,19.5307 36.984,19.2887 36.936,19.0557 L44.304,19.0557 C44.257,19.2887 44.231,19.5307 44.231,19.7777 C44.231,21.7717 45.848,23.3887 47.843,23.3887 C49.837,23.3887 51.454,21.7717 51.454,19.7777 C51.454,19.4907 51.412,19.2157 51.349,18.9487 C52.585,18.6207 53.5,17.5057 53.5,16.1667 L53.5,16.1667 Z" id="Stroke-57" stroke="#504B46" stroke-linejoin="round"></path>
                <path d="M44.9625,12.7447 C41.5305,12.7447 38.4975,11.0367 36.6655,8.4247 C36.6655,10.7577 34.8125,12.6467 32.4995,12.7287 L32.4995,15.9997 C32.4995,20.4187 36.0815,23.9997 40.4995,23.9997 C44.9185,23.9997 48.4995,20.4187 48.4995,15.9997 L48.4995,12.1627 C47.4335,12.4817 45.9975,12.7447 44.9625,12.7447" id="Fill-59" fill="#FDDFD1"></path>
                <path d="M44.9625,12.7447 C41.5305,12.7447 38.4975,11.0367 36.6655,8.4247 C36.6655,10.7577 34.8125,12.6467 32.4995,12.7287 L32.4995,15.9997 C32.4995,20.4187 36.0815,23.9997 40.4995,23.9997 C44.9185,23.9997 48.4995,20.4187 48.4995,15.9997 L48.4995,12.1627 C47.4335,12.4817 45.9975,12.7447 44.9625,12.7447 L44.9625,12.7447 Z" id="Stroke-61" stroke="#504B46" stroke-linecap="round" stroke-linejoin="round"></path>
                <path d="M39,15 C38.691,14.413 38.149,14 37.5,14 C36.851,14 36.309,14.413 36,15" id="Stroke-63" stroke="#504B46" stroke-linecap="round" stroke-linejoin="round"></path>
                <path d="M45,15 C44.691,14.413 44.149,14 43.5,14 C42.851,14 42.309,14.413 42,15" id="Stroke-65" stroke="#504B46" stroke-linecap="round" stroke-linejoin="round"></path>
                <path d="M37.425,19.5 C38.042,20.087 39.128,20.5 40.425,20.5 C41.722,20.5 42.808,20.087 43.425,19.5" id="Stroke-67" stroke="#504B46" stroke-linecap="round" stroke-linejoin="round"></path>
                <path d="M36.5,18 C36.5,18.552 36.052,19 35.5,19 C34.948,19 34.5,18.552 34.5,18 C34.5,17.448 34.948,17 35.5,17 C36.052,17 36.5,17.448 36.5,18" id="Fill-69" fill="#FCCAB4"></path>
                <path d="M46.5,18 C46.5,18.552 46.052,19 45.5,19 C44.948,19 44.5,18.552 44.5,18 C44.5,17.448 44.948,17 45.5,17 C46.052,17 46.5,17.448 46.5,18" id="Fill-71" fill="#FCCAB4"></path>
                <path d="M32.5,50.5 C32.5,51.328 26.232,52 18.5,52 C10.768,52 4.5,51.328 4.5,50.5 C4.5,49.672 10.768,49 18.5,49 C26.232,49 32.5,49.672 32.5,50.5" id="Fill-73" fill="#E3ECF1"></path>
                <path d="M30.5,48 C30.5,49.105 29.605,50 28.5,50 L8.5,50 C7.395,50 6.5,49.105 6.5,48 L6.5,34 C6.5,32.895 7.395,32 8.5,32 L28.5,32 C29.605,32 30.5,32.895 30.5,34 L30.5,48 Z" id="Fill-75" fill="#EDF2F4"></path>
                <path d="M18.7806,32 L8.4996,32 C7.3956,32 6.4996,32.895 6.4996,34 L6.4996,44.281 L18.7806,32 Z" id="Fill-77" fill="#FFFFFF"></path>
                <path d="M30.5,48 C30.5,49.105 29.605,50 28.5,50 L8.5,50 C7.395,50 6.5,49.105 6.5,48 L6.5,34 C6.5,32.895 7.395,32 8.5,32 L28.5,32 C29.605,32 30.5,32.895 30.5,34 L30.5,48 L30.5,48 Z" id="Stroke-79" stroke="#504B46" stroke-linecap="round" stroke-linejoin="round"></path>
                <polygon id="Fill-81" fill="#ED5D47" points="22.5 39.5 20 39.5 20 37 17 37 17 39.5 14.5 39.5 14.5 42.5 17 42.5 17 45 20 45 20 42.5 22.5 42.5"></polygon>
                <polygon id="Fill-83" fill="#F27E6D" points="20 37 17 37 17 39.5 14.5 39.5 14.5 42.5 15 42.5 20 37.5"></polygon>
                <polygon id="Stroke-85" stroke="#504B46" stroke-linecap="round" stroke-linejoin="round" points="22.5 39.5 20 39.5 20 37 17 37 17 39.5 14.5 39.5 14.5 42.5 17 42.5 17 45 20 45 20 42.5 22.5 42.5"></polygon>
                <path d="M15.0876,32 L16.1596,29.5 L18.4996,29.5 L20.8406,29.5 L21.9126,32 L23.9986,32 C23.9996,31.868 23.9746,31.735 23.9186,31.606 L22.4186,28.106 C22.2616,27.738 21.9006,27.5 21.4996,27.5 L18.4996,27.5 L15.4996,27.5 C15.0996,27.5 14.7386,27.738 14.5806,28.106 L13.0806,31.606 C13.0256,31.735 13.0006,31.868 13.0006,32 L15.0876,32 Z" id="Fill-87" fill="#EDF2F4"></path>
                <path d="M15.0876,32 L16.1596,29.5 L18.4996,29.5 L20.8406,29.5 L21.9126,32 L23.9986,32 C23.9996,31.868 23.9746,31.735 23.9186,31.606 L22.4186,28.106 C22.2616,27.738 21.9006,27.5 21.4996,27.5 L18.4996,27.5 L15.4996,27.5 C15.0996,27.5 14.7386,27.738 14.5806,28.106 L13.0806,31.606 C13.0256,31.735 13.0006,31.868 13.0006,32 L15.0876,32 L15.0876,32 Z" id="Stroke-89" stroke="#504B46" stroke-linecap="round" stroke-linejoin="round"></path>
                <path d="M14,29.5 L23,29.5" id="Fill-91" fill="#EDF2F4"></path>
                <path d="M14,29.5 L23,29.5" id="Stroke-93" stroke="#504B46" stroke-linecap="round" stroke-linejoin="round"></path>
            </g>
        </g>
    </g>
</svg>