<?xml version="1.0" encoding="UTF-8" standalone="no"?>
<svg width="259px" height="332px" viewBox="0 0 259 332" version="1.1" xmlns="http://www.w3.org/2000/svg" xmlns:xlink="http://www.w3.org/1999/xlink">
    <!-- Generator: Sketch 43.1 (39012) - http://www.bohemiancoding.com/sketch -->
    <title>Group</title>
    <desc>Created with Sketch.</desc>
    <defs>
        <path d="M164,30 L251.009307,30 C255.422445,30 259,33.5726844 259,37.9977035 L259,50.5602912 L211.871109,87.3814165 C205.771138,92.1472363 204.699442,100.943177 209.462371,107.039448 L259,170.444722 L259,171.002296 C259,175.419306 255.414997,179 251.009307,179 L128.990693,179 C124.577555,179 121,175.427316 121,171.002296 L121,158 L24.0095985,158 C19.5860194,158 16,154.421988 16,150.002089 L16,7.99791102 C16,3.58078673 19.5851145,0 24.0095985,0 L155.990402,0 C160.413981,0 164,3.57801152 164,7.99791102 L164,30 Z" id="path-1"></path>
    </defs>
    <g id="Page-1" stroke="none" stroke-width="1" fill="none" fill-rule="evenodd">
        <g id="Group" transform="translate(0.000000, 5.000000)">
            <path d="M5,0.5 L5,321.5" id="Line" stroke="#F6A623" stroke-width="10" stroke-linecap="square"></path>
            <g id="Combined-Shape">
                <use fill-opacity="0.0203238225" fill="#D8D8D8" fill-rule="evenodd" xlink:href="#path-1"></use>
                <path stroke="#F6A623" stroke-width="10" d="M254,48.1216282 L208.792801,83.4413628 C200.518313,89.9061018 199.0581,101.843936 205.522317,110.117756 L253.841947,171.964061 C253.440711,173.146855 252.320977,174 251.009307,174 L128.990693,174 C127.33642,174 126,172.663333 126,171.002296 L126,158 L126,153 L121,153 L24.0095985,153 C22.3445821,153 21,151.657702 21,150.002089 L21,7.99791102 C21,6.34344667 22.3453049,5 24.0095985,5 L155.990402,5 C157.655418,5 159,6.34229828 159,7.99791102 L159,30 L159,35 L164,35 L251.009307,35 C252.66358,35 254,36.3366674 254,37.9977035 L254,48.1216282 Z"></path>
            </g>
            <path d="M159,30.5 L159,148.5" id="Line" stroke="#F6A623" stroke-width="10" stroke-linecap="square"></path>
            <path d="M116.5,153 L158.5,153" id="Line" stroke="#F6A623" stroke-width="10" stroke-linecap="square"></path>
        </g>
    </g>
</svg>