<?xml version="1.0" encoding="UTF-8" standalone="no"?>
<svg width="288px" height="288px" viewBox="0 0 288 288" version="1.1" xmlns="http://www.w3.org/2000/svg" xmlns:xlink="http://www.w3.org/1999/xlink">
    <!-- Generator: Sketch 43.1 (39012) - http://www.bohemiancoding.com/sketch -->
    <title>Group 2</title>
    <desc>Created with Sketch.</desc>
    <defs>
        <path d="M143.65866,0 C159.116332,0 174.487808,2.49966068 189.155357,7.39842098 L143.65866,143.65866 L143.65866,143.65866 L143.65866,0 Z" id="path-1"></path>
        <path d="M210.416839,16.4489166 C224.107509,23.6318495 236.548349,32.9983942 247.265285,44.1463062 L143.65866,143.65866 L143.65866,143.65866 L210.416839,16.4489166 Z" id="path-2"></path>
        <path d="M261.889737,62.0461752 C270.667281,74.7743324 277.347409,88.8385152 281.642803,103.692821 L143.65866,143.65866 L143.65866,143.65866 L261.889737,62.0461752 Z" id="path-3"></path>
        <path d="M286.268611,126.347791 C288.136174,141.704902 287.504076,157.234403 284.415415,172.390392 L143.65866,143.65866 L143.65866,143.65866 L286.268611,126.347791 Z" id="path-4"></path>
        <path d="M277.979507,194.600021 C272.491746,209.052082 264.719812,222.527264 254.936658,234.508396 L143.65866,143.65866 L143.65866,143.65866 L277.979507,194.600021 Z" id="path-5"></path>
        <path d="M238.918717,251.187167 C227.339829,261.444395 214.195062,269.762231 199.972854,275.824627 L143.65866,143.65866 L143.65866,143.65866 L238.918717,251.187167 Z" id="path-6"></path>
        <path d="M178.036177,283.136853 C163.023847,286.843246 147.508712,288.107442 132.094138,286.857612 L143.65866,143.65866 L143.65866,143.65866 L178.036177,283.136853 Z" id="path-7"></path>
        <path d="M109.281143,283.136853 C94.2688126,279.430459 79.9460442,273.339332 66.8731061,265.078959 L143.65866,143.65866 L143.65866,143.65866 L109.281143,283.136853 Z" id="path-8"></path>
        <path d="M48.3986025,251.187167 C36.8197145,240.929938 26.9790963,228.876977 19.2502604,215.48799 L143.65866,143.65866 L143.65866,143.65866 L48.3986025,251.187167 Z" id="path-9"></path>
        <path d="M9.33781289,194.600021 C3.85005208,180.147959 0.732659165,164.905776 0.114926928,149.448104 L143.65866,143.65866 L143.65866,143.65866 L9.33781289,194.600021 Z" id="path-10"></path>
        <path d="M1.04870822,126.347791 C2.91627079,110.990681 7.24039646,96.0358141 13.8630607,82.0721924 L143.65866,143.65866 L143.65866,143.65866 L1.04870822,126.347791 Z" id="path-11"></path>
        <path d="M25.4275828,62.0461752 C34.2051269,49.3180179 44.9938923,38.1126425 57.3629029,28.8179272 L143.65866,143.65866 L143.65866,143.65866 L25.4275828,62.0461752 Z" id="path-12"></path>
        <path d="M76.9004806,16.4489166 C90.5911509,9.26598356 105.359261,4.33849153 120.615811,1.85319671 L143.65866,143.65866 L143.65866,143.65866 L76.9004806,16.4489166 Z" id="path-13"></path>
        <filter x="-2.8%" y="-2.0%" width="106.0%" height="106.0%" filterUnits="objectBoundingBox" id="filter-14">
            <feOffset dx="0" dy="2" in="SourceAlpha" result="shadowOffsetOuter1"></feOffset>
            <feGaussianBlur stdDeviation="2" in="shadowOffsetOuter1" result="shadowBlurOuter1"></feGaussianBlur>
            <feColorMatrix values="0 0 0 0 0.970775187   0 0 0 0 0.907238424   0 0 0 0 0.109462149  0 0 0 1 0" type="matrix" in="shadowBlurOuter1" result="shadowMatrixOuter1"></feColorMatrix>
            <feMerge>
                <feMergeNode in="shadowMatrixOuter1"></feMergeNode>
                <feMergeNode in="SourceGraphic"></feMergeNode>
            </feMerge>
        </filter>
        <path d="M123.546447,0 C167.689593,0 208.472275,23.5479529 230.537671,61.7732237 L219.838549,67.9505461 C199.97228,33.5428605 163.26663,12.3546447 123.546447,12.3546447 L123.546447,0 Z" id="path-15"></path>
        <path d="M230.537671,61.7732237 C252.603066,99.9984946 252.603066,147.0944 230.537671,185.319671 L219.838549,179.142349 C239.704817,144.734663 239.704817,102.358232 219.838549,67.9505461 L230.537671,61.7732237 Z" id="path-16"></path>
        <path d="M230.537671,185.319671 C208.472275,223.544942 167.689593,247.092895 123.546447,247.092895 L123.546447,234.73825 C163.26663,234.73825 199.97228,213.550034 219.838549,179.142349 L230.537671,185.319671 Z" id="path-17"></path>
        <path d="M123.546447,247.092895 C79.4033018,247.092895 38.6206195,223.544942 16.555224,185.319671 L27.2543463,179.142349 C47.1206151,213.550034 83.8262646,234.73825 123.546447,234.73825 L123.546447,247.092895 Z" id="path-18"></path>
        <path d="M16.555224,185.319671 C-5.51017156,147.0944 -5.51017156,99.9984946 16.555224,61.7732237 L27.2543463,67.9505461 C7.38807756,102.358232 7.38807756,144.734663 27.2543463,179.142349 L16.555224,185.319671 Z" id="path-19"></path>
        <path d="M16.555224,61.7732237 C38.6206195,23.5479529 79.4033018,0 123.546447,0 L123.546447,12.3546447 C83.8262646,12.3546447 47.1206151,33.5428605 27.2543463,67.9505461 L16.555224,61.7732237 Z" id="path-20"></path>
        <path d="M109.863756,41.7620523 C95.5208751,33.4812798 85.5761043,19.2784664 82.7019255,2.96904242 L88.220573,1.99977744 C90.8090147,16.6788193 99.756507,29.45855 112.6651,36.9101247 L109.863756,41.7620523 Z" id="path-21"></path>
        <path d="M96.2352416,86.6512334 C93.3610627,70.3418094 97.8488156,53.5953758 108.493922,40.9108908 L112.785581,44.513419 C103.204985,55.9316966 99.1654472,71.0029266 101.753889,85.6819684 L96.2352416,86.6512334 Z" id="path-22"></path>
        <path d="M56.2211481,102.605328 C66.8662548,89.9208432 82.5761912,82.5925276 99.1377362,82.5925276 L99.1377362,88.1952153 C84.2345868,88.1952153 70.093403,94.7895788 60.5128069,106.207856 L56.2211481,102.605328 Z" id="path-23"></path>
        <path d="M13.3110965,81.8435299 C29.8726414,81.8435299 45.5825778,89.1718454 56.2276845,101.85633 L51.9360257,105.458859 C42.3554297,94.0405811 28.2142459,87.4462176 13.3110965,87.4462176 L13.3110965,81.8435299 Z" id="path-24"></path>
        <path d="M5.03958813,39.2590037 C15.6846948,51.9434887 20.1724477,68.6899223 17.2982689,84.9993463 L11.7796215,84.0300814 C14.3680632,69.3510395 10.3285254,54.2798095 0.747929328,42.8615319 L5.03958813,39.2590037 Z" id="path-25"></path>
        <path d="M32.2899793,1.56608948 C29.4158005,17.8755135 19.4710298,32.0783269 5.12814919,40.3590993 L2.32680533,35.5071718 C15.2353979,28.0555971 24.1828902,15.2758664 26.7713319,0.596824497 L32.2899793,1.56608948 Z" id="path-26"></path>
        <filter x="-6.7%" y="-5.0%" width="113.3%" height="110.1%" filterUnits="objectBoundingBox" id="filter-27">
            <feGaussianBlur stdDeviation="1.5" in="SourceAlpha" result="shadowBlurInner1"></feGaussianBlur>
            <feOffset dx="0" dy="1" in="shadowBlurInner1" result="shadowOffsetInner1"></feOffset>
            <feComposite in="shadowOffsetInner1" in2="SourceAlpha" operator="arithmetic" k2="-1" k3="1" result="shadowInnerInner1"></feComposite>
            <feColorMatrix values="0 0 0 0 0.973054847   0 0 0 0 0.965606432   0 0 0 0 0.965606432  0 0 0 0 0" type="matrix" in="shadowInnerInner1"></feColorMatrix>
        </filter>
    </defs>
    <g id="Page-1" stroke="none" stroke-width="1" fill="none" fill-rule="evenodd">
        <g id="Group-2">
            <g id="Dashed-circle">
                <path d="M143.65866,0 C194.987899,0 242.409623,27.3813406 268.067059,71.8293299 C293.724496,116.277319 293.724496,171.04 268.067059,215.48799 C242.409623,259.935979 194.987899,287.31732 143.65866,287.31732 C92.3294207,287.31732 44.9076971,259.935979 19.2502604,215.48799 C-6.40717623,171.04 -6.40717623,116.277319 19.2502604,71.8293299 C44.9076971,27.3813406 92.3294207,0 143.65866,0 L143.65866,143.65866 L143.65866,143.65866 L143.65866,143.65866 L143.65866,143.65866 L143.65866,143.65866 L143.65866,143.65866 L143.65866,143.65866 L143.65866,0 Z" id="Base-plate" fill-opacity="0.002" fill="#455A64"></path>
                <g id="Dash-0">
                    <use fill="#4CAF50" fill-rule="evenodd" xlink:href="#path-1"></use>
                    <path stroke="#FFFFFF" stroke-width="0.25" d="M143.78366,0.125054534 C159.144007,0.138457094 174.417615,2.622179 188.99719,7.47743989 L143.78366,142.889606 L143.78366,0.125054534 Z"></path>
                </g>
                <g id="Dash-1">
                    <use fill="#4CAF50" fill-rule="evenodd" xlink:href="#path-2"></use>
                    <path stroke="#FFFFFF" stroke-width="0.25" d="M210.469418,16.6177241 C224.042784,23.754305 236.409716,33.0538314 247.088465,44.1428197 L144.126697,143.0358 L210.469418,16.6177241 Z"></path>
                </g>
                <g id="Dash-2">
                    <use fill="#4CAF50" fill-rule="evenodd" xlink:href="#path-3"></use>
                    <path stroke="#FFFFFF" stroke-width="0.25" d="M261.857785,62.2201196 C270.580342,74.8920469 277.212161,88.8693425 281.487961,103.607531 L144.362601,143.324632 L261.857785,62.2201196 Z"></path>
                </g>
                <g id="Dash-3">
                    <use fill="#4CAF50" fill-rule="evenodd" xlink:href="#path-4"></use>
                    <path stroke="#FFFFFF" stroke-width="0.25" d="M286.159558,126.486946 C288.000103,141.732798 287.377252,157.163793 284.317848,172.242899 L144.437424,143.690046 L286.159558,126.486946 Z"></path>
                </g>
                <g id="Dash-4">
                    <use fill="#4CAF50" fill-rule="evenodd" xlink:href="#path-5"></use>
                    <path stroke="#FFFFFF" stroke-width="0.25" d="M277.818205,194.672534 C272.346448,209.044907 264.619205,222.431574 254.918847,234.332487 L144.333582,144.048313 L277.818205,194.672534 Z"></path>
                </g>
                <g id="Dash-5">
                    <use fill="#4CAF50" fill-rule="evenodd" xlink:href="#path-6"></use>
                    <path stroke="#FFFFFF" stroke-width="0.25" d="M238.742225,251.176448 C227.223974,261.362132 214.162016,269.625825 200.038824,275.660565 L144.075187,144.317335 L238.742225,251.176448 Z"></path>
                </g>
                <g id="Dash-6">
                    <use fill="#4CAF50" fill-rule="evenodd" xlink:href="#path-7"></use>
                    <path stroke="#FFFFFF" stroke-width="0.25" d="M177.884894,283.045394 C162.946751,286.719706 147.529962,287.970202 132.228795,286.743065 L143.721345,144.435322 L177.884894,283.045394 Z"></path>
                </g>
                <g id="Dash-7">
                    <use fill="#4CAF50" fill-rule="evenodd" xlink:href="#path-8"></use>
                    <path stroke="#FFFFFF" stroke-width="0.25" d="M109.189713,282.985471 C94.2591335,279.285546 80.0296141,273.228361 67.0456184,265.040037 L143.353242,144.375485 L109.189713,282.985471 Z"></path>
                </g>
                <g id="Dash-8">
                    <use fill="#4CAF50" fill-rule="evenodd" xlink:href="#path-9"></use>
                    <path stroke="#FFFFFF" stroke-width="0.25" d="M48.387961,251.010674 C36.8916757,240.80875 27.113377,228.832681 19.4210521,215.533719 L143.055052,144.151502 L48.387961,251.010674 Z"></path>
                </g>
                <g id="Dash-9">
                    <use fill="#4CAF50" fill-rule="evenodd" xlink:href="#path-10"></use>
                    <path stroke="#FFFFFF" stroke-width="0.25" d="M9.41036695,194.438817 C3.96648523,180.064602 0.871759586,164.918797 0.24487127,149.567964 L142.895088,143.814558 L9.41036695,194.438817 Z"></path>
                </g>
                <g id="Dash-10">
                    <use fill="#4CAF50" fill-rule="evenodd" xlink:href="#path-11"></use>
                    <path stroke="#FFFFFF" stroke-width="0.25" d="M1.18794111,126.238775 C3.0580981,110.970796 7.35753266,96.1119559 13.9224764,82.2387419 L142.910222,143.441892 L1.18794111,126.238775 Z"></path>
                </g>
                <g id="Dash-11">
                    <use fill="#4CAF50" fill-rule="evenodd" xlink:href="#path-12"></use>
                    <path stroke="#FFFFFF" stroke-width="0.25" d="M25.6014635,62.014313 C34.3166173,49.4003647 45.0290958,38.2592454 57.3380969,28.992994 L143.096652,143.118829 L25.6014635,62.014313 Z"></path>
                </g>
                <g id="Dash-12">
                    <use fill="#4CAF50" fill-rule="evenodd" xlink:href="#path-13"></use>
                    <path stroke="#FFFFFF" stroke-width="0.25" d="M77.0692821,16.5015745 C90.6736101,9.37905771 105.34695,4.48073239 120.512495,1.99672964 L143.411903,142.919459 L77.0692821,16.5015745 Z"></path>
                </g>
            </g>
            <g id="Segments-circle" filter="url(#filter-14)" transform="translate(20.112212, 21.548799)">
                <path d="M123.546447,0 C167.689593,0 208.472275,23.5479529 230.537671,61.7732237 C252.603066,99.9984946 252.603066,147.0944 230.537671,185.319671 C208.472275,223.544942 167.689593,247.092895 123.546447,247.092895 C79.4033018,247.092895 38.6206195,223.544942 16.555224,185.319671 C-5.51017156,147.0944 -5.51017156,99.9984946 16.555224,61.7732237 C38.6206195,23.5479529 79.4033018,0 123.546447,0 L123.546447,12.3546447 C83.8262646,12.3546447 47.1206151,33.5428605 27.2543463,67.9505461 C7.38807756,102.358232 7.38807756,144.734663 27.2543463,179.142349 C47.1206151,213.550034 83.8262646,234.73825 123.546447,234.73825 C163.26663,234.73825 199.97228,213.550034 219.838549,179.142349 C239.704817,144.734663 239.704817,102.358232 219.838549,67.9505461 C199.97228,33.5428605 163.26663,12.3546447 123.546447,12.3546447 L123.546447,0 Z" id="Base-plate" fill="#F8E81C"></path>
                <g id="Segment-1">
                    <use fill="#F6A623" fill-rule="evenodd" xlink:href="#path-15"></use>
                    <path stroke="#FFFFFF" stroke-width="0.25" d="M123.671447,0.125063006 C167.67939,0.16942752 208.329778,23.640004 230.366872,61.7274986 L219.884239,67.7798275 C200.003465,33.4357195 163.349391,12.2740713 123.671447,12.2297146 L123.671447,0.125063006 Z"></path>
                </g>
                <g id="Segment-2">
                    <use fill="#F6A623" fill-rule="evenodd" xlink:href="#path-16"></use>
                    <path stroke="#FFFFFF" stroke-width="0.25" d="M230.491856,61.9440147 C252.451672,100.075135 252.451672,147.01776 230.491856,185.14888 L220.009243,179.096564 C239.814586,144.705713 239.814586,102.387182 220.009243,67.9963315 L230.491856,61.9440147 Z"></path>
                </g>
                <g id="Segment-3">
                    <use fill="#F6A623" fill-rule="evenodd" xlink:href="#path-17"></use>
                    <path stroke="#FFFFFF" stroke-width="0.25" d="M230.366872,185.365396 C208.329778,223.452891 167.67939,246.923467 123.671447,246.967832 L123.671447,234.86318 C163.349391,234.818824 200.003465,213.657175 219.884238,179.313067 L230.366872,185.365396 Z"></path>
                </g>
                <g id="Segment-4">
                    <use fill="#F6A623" fill-rule="evenodd" xlink:href="#path-18"></use>
                    <path stroke="#FFFFFF" stroke-width="0.25" d="M123.421447,246.967832 C79.4135049,246.923467 38.7631168,223.452891 16.7260225,185.365396 L27.2086562,179.313067 C47.0894296,213.657175 83.7435036,234.818824 123.421447,234.86318 L123.421447,246.967832 Z"></path>
                </g>
                <g id="Segment-5">
                    <use fill="#F6A623" fill-rule="evenodd" xlink:href="#path-19"></use>
                    <path stroke="#FFFFFF" stroke-width="0.25" d="M16.6010394,185.14888 C-5.35877669,147.01776 -5.35877669,100.075135 16.6010394,61.9440147 L27.0836515,67.9963312 C7.27830896,102.387182 7.27830896,144.705713 27.0836521,179.096563 L16.6010394,185.14888 Z"></path>
                </g>
                <g id="Segment-6">
                    <use fill="#F6A623" fill-rule="evenodd" xlink:href="#path-20"></use>
                    <path stroke="#FFFFFF" stroke-width="0.25" d="M16.7260225,61.7274986 C38.7631168,23.640004 79.4135049,0.16942752 123.421447,0.125063006 L123.421447,12.2297146 C83.7435036,12.2740713 47.0894296,33.4357195 27.2086567,67.7798278 L16.7260225,61.7274986 Z"></path>
                </g>
            </g>
            <g id="Group" transform="translate(87.631782, 91.941542)">
                <g id="Segment-1" transform="translate(97.683513, 21.880915) rotate(181.000000) translate(-97.683513, -21.880915) ">
                    <use fill="#F8E81C" fill-rule="evenodd" xlink:href="#path-21"></use>
                    <path stroke="#F8E81C" stroke-width="0.25" d="M109.818073,41.5911797 C95.6012264,33.3408215 85.7355357,19.250615 82.8468729,3.07049799 L88.1193155,2.14447507 C90.7351423,16.767948 99.6486234,29.4980984 112.494418,36.9557511 L109.818073,41.5911797 Z"></path>
                </g>
                <g id="Segment-2" transform="translate(104.085029, 63.781062) rotate(181.000000) translate(-104.085029, -63.781062) ">
                    <use fill="#2196F3" fill-rule="evenodd" xlink:href="#path-22"></use>
                    <path stroke="#7BCA51" stroke-width="0.25" d="M96.3368001,86.5064829 C93.5202742,70.3130324 97.9726749,53.6995219 108.509414,41.087097 L112.609612,44.5289084 C103.089141,55.9325315 99.0658481,70.9457864 101.609218,85.5804643 L96.3368001,86.5064829 Z"></path>
                </g>
                <g id="Segment-3" transform="translate(77.679442, 94.400192) rotate(181.000000) translate(-77.679442, -94.400192) ">
                    <use fill="#21F322" fill-rule="evenodd" xlink:href="#path-23"></use>
                    <path stroke="#FFFFFF" stroke-width="0.25" d="M56.3973504,102.590035 C66.9917117,90.0230394 82.5777006,82.7543445 99.0127362,82.7176671 L99.0127362,88.070369 C84.1599857,88.1070293 70.0734598,94.6761531 60.497531,106.031831 L56.3973504,102.590035 Z"></path>
                </g>
                <g id="Segment-4" transform="translate(34.769391, 93.651194) rotate(181.000000) translate(-34.769391, -93.651194) ">
                    <use fill="#D76F7B" fill-rule="evenodd" xlink:href="#path-24"></use>
                    <path stroke="#FFFFFF" stroke-width="0.25" d="M13.4360965,81.9686694 C29.8711321,82.0053467 45.4571209,89.2740417 56.0514822,101.841037 L51.9513021,105.282833 C42.3753729,93.9271553 28.2888469,87.3580316 13.4360965,87.3213719 L13.4360965,81.9686694 Z"></path>
                </g>
                <g id="Segment-5" transform="translate(9.448482, 62.129175) rotate(181.000000) translate(-9.448482, -62.129175) ">
                    <use fill="#9B9B9B" fill-rule="evenodd" xlink:href="#path-25"></use>
                    <path stroke="#FFFFFF" stroke-width="0.25" d="M5.02409644,39.4352099 C15.5608355,52.0476349 20.0132363,68.6611453 17.1967104,84.8545958 L11.9242926,83.9285773 C14.4676623,69.2938994 10.4443693,54.2806444 0.923897587,42.8770217 L5.02409644,39.4352099 Z"></path>
                </g>
                <g id="Segment-6" transform="translate(17.308392, 20.477962) rotate(181.000000) translate(-17.308392, -20.477962) ">
                    <use fill="#F371E0" fill-rule="evenodd" xlink:href="#path-26"></use>
                    <use fill="black" fill-opacity="1" filter="url(#filter-27)" xlink:href="#path-26"></use>
                    <path stroke="#FFFFFF" stroke-width="0.25" d="M32.145032,1.66754505 C29.2563692,17.8476621 19.3906784,31.9378685 5.17383157,40.1882267 L2.49748744,35.5527987 C15.3432815,28.0951454 24.2567625,15.3649951 26.8725887,0.741522016 L32.145032,1.66754505 Z"></path>
                </g>
            </g>
        </g>
    </g>
</svg>