<?xml version="1.0" encoding="UTF-8"?>
<svg width="76px" height="80px" viewBox="0 0 76 80" version="1.1" xmlns="http://www.w3.org/2000/svg" xmlns:xlink="http://www.w3.org/1999/xlink">
    <!-- Generator: Sketch 40.2 (33826) - http://www.bohemiancoding.com/sketch -->
    <title>icon_ui</title>
    <desc>Created with Sketch.</desc>
    <defs></defs>
    <g id="Page-1" stroke="none" stroke-width="1" fill="none" fill-rule="evenodd">
        <g id="TM---Home---1.0-Copy" transform="translate(-754.000000, -4325.000000)" fill="#000000">
            <g id="Group-7" transform="translate(210.000000, 3811.000000)">
                <g id="Group-24" transform="translate(360.000000, 514.000000)">
                    <g id="Page-1" transform="translate(184.000000, 0.000000)">
                        <path d="M26.4431746,23.4273016 C27.871746,23.3333333 29.112381,23.4273016 30.3466667,23.9974603 L29.4946032,24.7619048 L34.9206349,30.1879365 L36.6374603,28.472381 C37.0184127,28.6603175 37.4946032,28.8546032 37.8768254,29.0425397 L51.8755556,43.0412698 C51.0171429,44.4698413 51.2101587,46.3746032 52.4457143,47.6139683 C53.2088889,48.3784127 54.1612698,48.7555556 55.1136508,48.7555556 C56.0660317,48.7555556 57.0184127,48.3733333 57.7828571,47.6139683 C59.3053968,46.0914286 59.3053968,43.7104762 57.7828571,42.1879365 C56.5422222,40.9473016 54.6374603,40.7593651 53.2088889,41.6165079 L41.3993651,29.9060317 C42.1625397,30 42.9219048,30 43.7803175,29.9060317 C56.0660317,28.7644444 68.5422222,10.5701587 69.0184127,9.81206349 L65.8730159,7.61904762 C65.7790476,7.80698413 53.968254,25.144127 43.3980952,26.0965079 C41.9695238,26.1904762 40.7288889,26.0965079 39.4946032,25.5263492 L40.351746,24.6679365 L34.9206349,19.335873 L33.2038095,21.0514286 C32.8228571,20.8634921 32.3466667,20.6692063 31.9644444,20.4812698 L17.9657143,6.47873016 C18.3479365,5.90730159 18.5371429,5.23809524 18.5371429,4.57396825 C18.5371429,3.52634921 18.1549206,2.57396825 17.3955556,1.9047619 C15.8730159,0.382222222 13.4920635,0.382222222 11.9695238,1.9047619 C10.4469841,3.42730159 10.4469841,5.80825397 11.9695238,7.33079365 C12.7326984,8.0952381 13.6850794,8.47238095 14.6374603,8.47238095 C15.3028571,8.47238095 15.9720635,8.2831746 16.5422222,7.90222222 L28.3530159,19.711746 C27.5898413,19.6177778 26.8304762,19.6177778 25.9720635,19.711746 C13.6850794,20.8533333 1.21015873,39.047619 0.733968254,39.8069841 L3.87936508,41.8996825 C4.06222222,41.7168254 15.8730159,24.3796825 26.4431746,23.4273016 L26.4431746,23.4273016 Z M55.1085714,43.0450794 C55.5847619,43.0450794 56.0609524,43.2342857 56.4431746,43.6165079 C57.207619,44.3796825 57.207619,45.5212698 56.4431746,46.2844444 C55.68,47.0488889 54.5384127,47.0488889 53.7752381,46.2844444 C53.2990476,45.808254 53.1098413,45.0450794 53.2990476,44.4736508 C53.3930159,44.1866667 53.5860317,43.9034921 53.7752381,43.6165079 C54.0622222,43.328254 54.3453968,43.2342857 54.632381,43.1403175 C54.8266667,43.0450794 54.9206349,43.0450794 55.1085714,43.0450794 L55.1085714,43.0450794 Z M13.3980952,5.90222222 C12.6336508,5.13904762 12.6336508,3.99746032 13.3980952,3.23428571 C14.1612698,2.46984127 15.3028571,2.46984127 16.0660317,3.23428571 C16.448254,3.61650794 16.6374603,4.09269841 16.6374603,4.56888889 C16.6374603,4.7568254 16.6374603,4.85587302 16.5422222,5.04507937 C16.448254,5.33206349 16.2552381,5.6152381 16.0660317,5.90222222 C15.7790476,6.19047619 15.495873,6.28444444 15.2088889,6.3784127 C14.5384127,6.57269841 13.8742857,6.3784127 13.3980952,5.90222222 L13.3980952,5.90222222 Z M34.8266667,22.1930159 L36.2552381,23.432381 L37.5898413,24.7669841 L35.0196825,27.335873 L34.9206349,27.4311111 L32.2514286,24.7619048 L34.2514286,22.7631746 L34.8266667,22.1930159 Z" id="Fill-1"></path>
                        <path d="M57.1136508,51.5225397 C56.7314286,51.6165079 56.448254,51.9987302 56.448254,52.3809524 L56.448254,79.047619 C56.448254,79.4298413 56.7365079,79.8120635 57.0184127,79.9060317 C57.1136508,79.9060317 57.207619,80 57.4006349,80 C57.6888889,80 57.8768254,79.9060317 58.0660317,79.711746 L64.7326984,72.5688889 L74.4444444,73.8095238 C74.8266667,73.9034921 75.2088889,73.6215873 75.3968254,73.3333333 C75.5847619,72.9511111 75.5847619,72.5688889 75.3028571,72.2869841 L58.16,51.8107937 C57.9657143,51.5225397 57.4895238,51.4285714 57.1136508,51.5225397 L57.1136508,51.5225397 Z M64.5384127,70.664127 C64.2514286,70.664127 63.968254,70.7593651 63.68,70.952381 L58.3479365,76.6666667 L58.3479365,55.0501587 L72.2514286,71.6215873 L64.5384127,70.664127 Z" id="Fill-2"></path>
                    </g>
                </g>
            </g>
        </g>
    </g>
</svg>