<?xml version="1.0" encoding="UTF-8" standalone="no"?>
<svg width="431px" height="381px" viewBox="0 0 431 381" version="1.1" xmlns="http://www.w3.org/2000/svg" xmlns:xlink="http://www.w3.org/1999/xlink">
    <!-- Generator: Sketch 43.1 (39012) - http://www.bohemiancoding.com/sketch -->
    <title>Group 3</title>
    <desc>Created with Sketch.</desc>
    <defs></defs>
    <g id="Page-1" stroke="none" stroke-width="1" fill="none" fill-rule="evenodd">
        <g id="Group-3" transform="translate(-40.000000, 1.000000)" stroke="#F6A623">
            <g id="Group" transform="translate(277.078692, 90.349109) rotate(1.000000) translate(-277.078692, -90.349109) translate(144.578692, 2.849109)">
                <path d="M1.74833231,134.830966 C1.74833231,134.830966 70.473822,2.80974064 107.25906,2.80974064 C144.044297,2.80974064 225.097785,134.830966 225.097785,134.830966" id="Line" stroke-width="12" stroke-linecap="square" transform="translate(113.423058, 68.820353) rotate(1.000000) translate(-113.423058, -68.820353) "></path>
                <polygon id="Triangle" fill="#F6A623" transform="translate(226.462884, 136.903439) rotate(139.000000) translate(-226.462884, -136.903439) " points="226.462884 113.488933 256.184533 160.317944 196.741235 160.317944"></polygon>
            </g>
            <g id="Group-4" transform="translate(243.001821, 194.250554)">
                <path d="M65.3418506,185.940925 C65.3418506,185.940925 121.513763,44.3199027 151.579713,44.3199027 C181.645662,44.3199027 247.893708,185.940925 247.893708,185.940925" id="Line" stroke-width="12" stroke-linecap="square" transform="translate(156.617779, 115.130414) rotate(122.000000) translate(-156.617779, -115.130414) "></path>
                <polygon id="Triangle" fill="#F6A623" transform="translate(25.337261, 153.418684) rotate(275.000000) translate(-25.337261, -153.418684) " points="25.3372608 130.804051 55.1626539 176.033317 -4.4881323 176.033317"></polygon>
            </g>
            <path d="M9.38852182,368.222512 C9.38852182,368.222512 68.7898198,231.647888 100.584295,231.647888 C132.37877,231.647888 202.435489,368.222512 202.435489,368.222512" id="Line" stroke-width="12" stroke-linecap="square" transform="translate(105.912006, 299.935200) scale(-1, -1) rotate(62.000000) translate(-105.912006, -299.935200) "></path>
            <g id="Group-2" transform="translate(92.145719, 130.709534)" fill="#F6A623">
                <polygon id="Triangle" transform="translate(38.307514, 35.532302) rotate(32.000000) translate(-38.307514, -35.532302) " points="38.3075141 13.7234985 69.8476023 57.3411058 6.76742576 57.3411058"></polygon>
            </g>
        </g>
    </g>
</svg>