<?xml version="1.0" encoding="UTF-8"?>
<svg width="69px" height="45px" viewBox="0 0 69 45" version="1.1" xmlns="http://www.w3.org/2000/svg" xmlns:xlink="http://www.w3.org/1999/xlink">
    <!-- Generator: Sketch 46.2 (44496) - http://www.bohemiancoding.com/sketch -->
    <title>Millenial</title>
    <desc>Created with Sketch.</desc>
    <defs></defs>
    <g id="Page-1" stroke="none" stroke-width="1" fill="none" fill-rule="evenodd">
        <g id="6-Color-Vector-Character-Icons" transform="translate(-33.000000, -59.000000)">
            <g id="Millenial" transform="translate(34.000000, 59.000000)">
                <path d="M51.415,42 C53.352,38.347 54.461,34.193 54.461,29.778 C54.461,15.265 42.614,3.5 28,3.5 C13.386,3.5 1.538,15.265 1.538,29.778 C1.538,34.193 2.647,38.347 4.585,42 L51.415,42 Z" id="Fill-4" fill="#C1F3F8"></path>
                <path d="M2,42 L0,42" id="Stroke-6" stroke="#504B46" stroke-linecap="round"></path>
                <path d="M56,42 L54,42" id="Stroke-8" stroke="#504B46" stroke-linecap="round"></path>
                <path d="M4,42 L52,42" id="Stroke-10" stroke="#504B46" stroke-linecap="round"></path>
                <path d="M45.002,43.5 C44.883,43.5 44.762,43.489 44.641,43.468 L40.209,42.657 C40.116,42.64 40.025,42.616 39.936,42.587 C36.983,41.604 35,38.852 35,35.738 L35,33 C35,31.897 35.898,31 37,31 C38.103,31 39,31.897 39,33 L39,35.738 C39,37.089 39.853,38.305 41.121,38.765 L45.359,39.532 C45.886,39.629 46.342,39.924 46.646,40.363 C46.949,40.803 47.064,41.334 46.968,41.859 C46.793,42.811 45.967,43.5 45.002,43.5 L45.002,43.5 Z" id="Fill-13" fill="#B78B7C"></path>
                <path d="M45.002,43.5 C44.883,43.5 44.762,43.489 44.641,43.468 L40.209,42.657 C40.116,42.64 40.025,42.616 39.936,42.587 C36.983,41.604 35,38.852 35,35.738 L35,33 C35,31.897 35.898,31 37,31 C38.103,31 39,31.897 39,33 L39,35.738 C39,37.089 39.853,38.305 41.121,38.765 L45.359,39.532 C45.886,39.629 46.342,39.924 46.646,40.363 C46.949,40.803 47.064,41.334 46.968,41.859 C46.793,42.811 45.967,43.5 45.002,43.5 L45.002,43.5 Z" id="Stroke-15" stroke="#504A45"></path>
                <path d="M19,35 L19,42 L35,42 L35,35 L40,35 L40,34.5 C40,28.977 35.523,24.5 30,24.5 L24,24.5 C18.477,24.5 14,28.977 14,34.5 L14,35 L19,35 Z" id="Fill-17" fill="#99D56A"></path>
                <path d="M40,34.5 C40,28.977 35.523,24.5 30,24.5 L24,24.5 C18.477,24.5 14,28.977 14,34.5 L14,35.5 C14,29.977 18.477,28.5 24,28.5 L30,28.5 C35.523,28.5 40,29.977 40,35.5 L40,34.5 Z" id="Fill-19" fill="#B3E090"></path>
                <path d="M27,30.5 C29.761,30.5 32,28.261 32,25.5 L32,24.701 C31.354,24.57 30.685,24.5 30,24.5 L24,24.5 C23.315,24.5 22.646,24.57 22,24.701 L22,25.5 C22,28.261 24.239,30.5 27,30.5" id="Fill-21" fill="#FFE086"></path>
                <path d="M32,25 L32,25.5 C32,28.261 29.761,30.5 27,30.5 C24.239,30.5 22,28.261 22,25.5 L22,25" id="Stroke-23" stroke="#504B46" stroke-linecap="round" stroke-linejoin="round"></path>
                <path d="M35,32.5 L35,32" id="Stroke-25" stroke="#504B46" stroke-linecap="round" stroke-linejoin="round"></path>
                <polyline id="Stroke-27" stroke="#504B46" stroke-linecap="round" stroke-linejoin="round" points="19 34 19 42 35 42 35 34"></polyline>
                <path d="M35,35 L35,35 L40,35 L40,34.5 C40,28.977 35.523,24.5 30,24.5 L24,24.5 C18.477,24.5 14,28.977 14,34.5 L14,35 L19,35" id="Stroke-29" stroke="#504B46" stroke-linecap="round" stroke-linejoin="round"></path>
                <path d="M19,36 L19,35" id="Fill-31" fill="#EDF2F4"></path>
                <path d="M19,36 L19,35" id="Stroke-33" stroke="#504B46" stroke-linecap="round" stroke-linejoin="round"></path>
                <path d="M30,25.3945 C30,26.3975 29.499,27.3345 28.664,27.8905 C27.656,28.5625 26.344,28.5625 25.336,27.8905 C24.501,27.3345 24,26.3975 24,25.3945 L24,21.0005 L30,21.0005 L30,25.3945 Z" id="Fill-35" fill="#B78B7C"></path>
                <path d="M30,25.3945 C30,26.3975 29.499,27.3345 28.664,27.8905 C27.656,28.5625 26.344,28.5625 25.336,27.8905 C24.501,27.3345 24,26.3975 24,25.3945 L24,21.0005 L30,21.0005 L30,25.3945 L30,25.3945 Z" id="Stroke-37" stroke="#504B46" stroke-linecap="round" stroke-linejoin="round"></path>
                <path d="M24,24.3928 C24.076,24.4268 24.147,24.4648 24.227,24.4958 C25.906,25.1678 28.094,25.1678 29.773,24.4958 C29.853,24.4648 29.924,24.4268 30,24.3928 L30,20.9998 L24,20.9998 L24,24.3928 Z" id="Fill-39" fill="#A56F5B"></path>
                <path d="M30,25.3945 C30,26.3975 29.499,27.3345 28.664,27.8905 C27.656,28.5625 26.344,28.5625 25.336,27.8905 C24.501,27.3345 24,26.3975 24,25.3945 L24,21.0005 L30,21.0005 L30,25.3945 L30,25.3945 Z" id="Stroke-41" stroke="#504B46" stroke-linecap="round" stroke-linejoin="round"></path>
                <path d="M19,32.5 L19,32" id="Stroke-43" stroke="#504B46" stroke-linecap="round" stroke-linejoin="round"></path>
                <polygon id="Fill-45" fill="#B78B7C" points="15 42 19 42 19 35 15 35"></polygon>
                <polygon id="Stroke-47" stroke="#504B46" stroke-linecap="round" stroke-linejoin="round" points="15 42 19 42 19 35 15 35"></polygon>
                <path d="M49,43.5 C49,44.052 48.552,44.5 48,44.5 L44,44.5 C43.448,44.5 43,44.052 43,43.5 L43,34.5 C43,33.948 43.448,33.5 44,33.5 L48,33.5 C48.552,33.5 49,33.948 49,34.5 L49,43.5 Z" id="Fill-48" fill="#E3ECF0"></path>
                <path d="M49,43.5 C49,44.052 48.552,44.5 48,44.5 L44,44.5 C43.448,44.5 43,44.052 43,43.5 L43,34.5 C43,33.948 43.448,33.5 44,33.5 L48,33.5 C48.552,33.5 49,33.948 49,34.5 L49,43.5 L49,43.5 Z" id="Stroke-49" stroke="#504B46" stroke-linecap="round" stroke-linejoin="round"></path>
                <path d="M45.5,35.5 C45.5,35.776 45.276,36 45,36 C44.724,36 44.5,35.776 44.5,35.5 C44.5,35.224 44.724,35 45,35 C45.276,35 45.5,35.224 45.5,35.5" id="Fill-50" fill="#504B46"></path>
                <path d="M49.9223,43 L46.9003,43 C45.5743,43 44.5003,41.925 44.5003,40.6 L44.5003,39.4 C44.5003,38.075 45.5743,37 46.9003,37 L49.9223,37 C50.6923,38.926 50.6923,41.074 49.9223,43" id="Fill-51" fill="#B78B7C"></path>
                <path d="M45.5,42.1 L45.5,40.9 C45.5,39.574 46.575,38.5 47.9,38.5 L50.359,38.5 C50.262,37.991 50.117,37.488 49.922,37 L46.9,37 C45.575,37 44.5,38.074 44.5,39.4 L44.5,40.6 C44.5,41.424 44.916,42.15 45.549,42.582 C45.517,42.426 45.5,42.265 45.5,42.1" id="Fill-52" fill="#CCA196"></path>
                <path d="M50.1709,42.2823 C50.0459,42.7073 49.6549,43.0003 49.2119,43.0003 L46.8999,43.0003 C45.5749,43.0003 44.4999,41.9253 44.4999,40.6003 L44.4999,39.4003 C44.4999,38.0743 45.5749,37.0003 46.8999,37.0003 L49.2119,37.0003 C49.6559,37.0003 50.0459,37.2923 50.1709,37.7173 C50.6099,39.2073 50.6099,40.7923 50.1709,42.2823 L50.1709,42.2823 Z" id="Stroke-53" stroke="#504B46" stroke-linecap="round" stroke-linejoin="round"></path>
                <path d="M67.5,21.7774 C67.5,23.0554 66.464,24.0914 65.186,24.0914 L57.386,24.0914 L51.021,29.8774 L51.022,24.0914 L45.814,24.0914 C44.536,24.0914 43.5,23.0554 43.5,21.7774 L43.5,6.8144 C43.5,5.5364 44.536,4.5004 45.814,4.5004 L65.186,4.5004 C66.464,4.5004 67.5,5.5364 67.5,6.8144 L67.5,21.7774 Z" id="Fill-54" fill="#FFFFFF"></path>
                <path d="M67.5,21.7774 C67.5,23.0554 66.464,24.0914 65.186,24.0914 L57.386,24.0914 L51.021,29.8774 L51.022,24.0914 L45.814,24.0914 C44.536,24.0914 43.5,23.0554 43.5,21.7774 L43.5,6.8144 C43.5,5.5364 44.536,4.5004 45.814,4.5004 L65.186,4.5004 C66.464,4.5004 67.5,5.5364 67.5,6.8144 L67.5,21.7774 L67.5,21.7774 Z" id="Stroke-55" stroke="#504B46" stroke-linejoin="round"></path>
                <path d="M55.82,20.9632 C55.82,20.9632 62.593,17.8782 62.593,12.9182 C62.593,7.9562 56.584,7.5742 55.82,12.5362 C55.056,7.5732 49.047,7.9552 49.047,13.2992 C49.047,18.6422 55.82,20.9632 55.82,20.9632" id="Fill-56" fill="#E05C4A"></path>
                <path d="M53.8068,11.5505 C54.5258,11.5505 55.2038,11.7135 55.8198,11.9905 C54.5758,7.8735 49.2288,8.4925 49.2288,13.5355 C49.2288,13.8685 49.2558,14.1905 49.3048,14.5005 C50.0648,12.7655 51.7918,11.5505 53.8068,11.5505" id="Fill-57" fill="#E88074"></path>
                <path d="M57.8331,11.5505 C57.1141,11.5505 56.4361,11.7135 55.8201,11.9905 C57.0641,7.8735 62.4111,8.4925 62.4111,13.5355 C62.4111,13.8685 62.3841,14.1905 62.3351,14.5005 C61.5751,12.7655 59.8481,11.5505 57.8331,11.5505" id="Fill-58" fill="#E88074"></path>
                <path d="M55.82,20.9632 C55.82,20.9632 62.593,17.8782 62.593,12.9182 C62.593,7.9562 56.584,7.5742 55.82,12.5362 C55.056,7.5732 49.047,7.9552 49.047,13.2992 C49.047,18.6422 55.82,20.9632 55.82,20.9632 L55.82,20.9632 Z" id="Stroke-59" stroke="#504B46" stroke-linejoin="round"></path>
                <path d="M36.5,13.0012 C36.5,12.0702 35.861,11.2952 35,11.0722 L35,10.5012 C35,6.0832 31.418,2.5012 27,2.5012 C22.582,2.5012 19,6.0832 19,10.5012 L19,11.0722 C18.139,11.2952 17.5,12.0702 17.5,13.0012 C17.5,13.9402 18.149,14.7222 19.022,14.9372 C19.25,19.1512 22.729,22.5012 27,22.5012 C31.271,22.5012 34.75,19.1512 34.978,14.9372 C35.851,14.7222 36.5,13.9402 36.5,13.0012" id="Fill-60" fill="#B78B7C"></path>
                <path d="M36.5,13.0012 C36.5,12.0702 35.861,11.2952 35,11.0722 L35,10.5012 C35,6.0832 31.418,2.5012 27,2.5012 C22.582,2.5012 19,6.0832 19,10.5012 L19,11.0722 C18.139,11.2952 17.5,12.0702 17.5,13.0012 C17.5,13.9402 18.149,14.7222 19.022,14.9372 C19.25,19.1512 22.729,22.5012 27,22.5012 C31.271,22.5012 34.75,19.1512 34.978,14.9372 C35.851,14.7222 36.5,13.9402 36.5,13.0012 L36.5,13.0012 Z" id="Stroke-61" stroke="#504B46" stroke-linecap="round" stroke-linejoin="round"></path>
                <path d="M31.85,5.7181 L31.85,7.0681 C31.85,8.1861 32.882,9.0931 34,9.0931 L34,11.1181 C34,11.8641 34.604,12.4681 35.35,12.4681 L37,12.4681 L37,6.5751 C37,4.3381 35.408,2.3431 33.171,2.3431 L33.171,2.4961 C33.171,1.3941 32.278,0.5001 31.175,0.5001 L21.978,0.5001 C20.347,0.5001 19.025,1.8221 19.025,3.4531 L19.025,3.8751 C17.907,3.8751 17,4.7821 17,5.9001 L17,12.4681 L19.025,12.4681 C19.771,12.4681 20.5,11.8641 20.5,11.1181 L20.5,9.0931 C24.55,10.4431 31.85,8.4181 31.85,5.7181" id="Fill-62" fill="#775750"></path>
                <path d="M32,5.5 C31.904,6.5 31.368,9.093 34,9.093 L34,11.118 C34,11.864 34.604,12.468 35.35,12.468 L37,12.468 L37,6.5 C37,4.263 35.408,2.343 33.171,2.343 C33.171,3.343 33.458,0.5 31.175,0.5 L21.978,0.5 C20.529,0.5 19.025,1.45 19.025,4 C17.907,4 17,4.782 17,5.9 L17,12.468 L19.025,12.468 C19.771,12.468 20.5,11.864 20.5,11.118 L20.5,9.093 C24.55,10.443 32,8.2 32,5.5 L32,5.5 Z" id="Stroke-63" stroke="#504B46" stroke-linejoin="round"></path>
                <path d="M25.5,13.5012 C25.191,12.9142 24.649,12.5012 24,12.5012 C23.351,12.5012 22.809,12.9142 22.5,13.5012" id="Stroke-64" stroke="#504B46" stroke-linecap="round" stroke-linejoin="round"></path>
                <path d="M31.5,13.5012 C31.191,12.9142 30.649,12.5012 30,12.5012 C29.351,12.5012 28.809,12.9142 28.5,13.5012" id="Stroke-65" stroke="#504B46" stroke-linecap="round" stroke-linejoin="round"></path>
                <path d="M23.925,18.0012 C24.542,18.5882 25.628,19.0012 26.925,19.0012 C28.222,19.0012 29.308,18.5882 29.925,18.0012" id="Stroke-66" stroke="#504B46" stroke-linecap="round" stroke-linejoin="round"></path>
                <path d="M23,16.5012 C23,17.0532 22.552,17.5012 22,17.5012 C21.448,17.5012 21,17.0532 21,16.5012 C21,15.9492 21.448,15.5012 22,15.5012 C22.552,15.5012 23,15.9492 23,16.5012" id="Fill-67" fill="#A56F5B"></path>
                <path d="M33,16.5012 C33,17.0532 32.552,17.5012 32,17.5012 C31.448,17.5012 31,17.0532 31,16.5012 C31,15.9492 31.448,15.5012 32,15.5012 C32.552,15.5012 33,15.9492 33,16.5012" id="Fill-68" fill="#A56F5B"></path>
                <path d="M26.75,3.5012 C31.042,3.5012 34.812,4.7652 37,6.6742 L37,6.5002 C37,4.2632 35.408,2.3432 33.172,2.3432 C33.172,2.3682 33.172,2.3802 33.173,2.4002 C33.12,1.9262 32.794,0.5002 31.175,0.5002 L21.978,0.5002 C20.529,0.5002 19.025,1.4492 19.025,4.0002 C17.907,4.0002 17,4.7812 17,5.9002 L17,6.2762 C19.237,4.5932 22.766,3.5012 26.75,3.5012" id="Fill-69" fill="#87625D"></path>
                <path d="M32,5.5 C31.904,6.5 31.368,9.093 34,9.093 L34,11.118 C34,11.864 34.604,12.468 35.35,12.468 L37,12.468 L37,6.5 C37,4.263 35.408,2.343 33.171,2.343 C33.171,3.343 33.458,0.5 31.175,0.5 L21.978,0.5 C20.529,0.5 19.025,1.45 19.025,4 C17.907,4 17,4.782 17,5.9 L17,12.468 L19.025,12.468 C19.771,12.468 20.5,11.864 20.5,11.118 L20.5,9.093 C24.55,10.443 32,8.2 32,5.5 L32,5.5 Z" id="Stroke-70" stroke="#504B46" stroke-linejoin="round"></path>
            </g>
        </g>
    </g>
</svg>