<?xml version="1.0" encoding="UTF-8" standalone="no"?>
<svg width="260px" height="260px" viewBox="0 0 260 260" version="1.1" xmlns="http://www.w3.org/2000/svg" xmlns:xlink="http://www.w3.org/1999/xlink">
    <!-- Generator: Sketch 43.1 (39012) - http://www.bohemiancoding.com/sketch -->
    <title>Group</title>
    <desc>Created with Sketch.</desc>
    <defs>
        <rect id="path-1" x="0" y="0" width="260" height="260" rx="21"></rect>
    </defs>
    <g id="Page-1" stroke="none" stroke-width="1" fill="none" fill-rule="evenodd">
        <g id="Group">
            <g id="Rectangle">
                <use fill-opacity="0.00775588768" fill="#FFFFFF" fill-rule="evenodd" xlink:href="#path-1"></use>
                <rect stroke="#87ED3C" stroke-width="12" x="6" y="6" width="248" height="248" rx="21"></rect>
            </g>
            <path d="M131.852436,68.5167351 L150.348189,53.9785237 C150.348189,53.9785237 151.546769,47.8417638 152.434661,48.069139 C153.322554,48.2965141 161.98763,56.9591986 161.98763,56.9591986 C161.98763,56.9591986 158.469388,76.4949367 159.180242,76.8090116 C159.891095,77.1230865 173.046634,61.8453737 173.046634,61.8453737 L195.400812,48.069139 L192.355084,76.8090116 L213.758667,89.1541281 L206.383495,97.4046923 L177.649831,115.860062 L224,126.856826 L214.697836,134.345198 L201.432968,134.345198 L210.964284,159.489433 L206.383495,171.285703 L185.290215,166.000194 L192.355084,191.881384 L181.469159,182.172375 L173.046634,206.845022 L167.13329,197.9834 L150.348189,214.711872 L138.41491,215.713653 L131.852436,197.9834 L114.842189,211.731197 L103.783186,206.845022 L93.5769307,220.863096 L84.4747353,191.881384 L47.3521664,214.711872 L59.3473802,187.516954 L64.4156344,173.426378 C64.4156344,173.426378 55.6377181,172.21042 55.4295886,171.285703 C55.2214591,170.360987 51.0194819,159.489433 51.0194819,159.489433 C51.0194819,159.489433 47.5983742,156.168986 47.3521664,152.832061 C47.1059586,149.495136 51.0194819,144.980931 51.0194819,144.980931 C51.0194819,144.980931 46.2974485,146.806561 45.5642854,147.074028 C44.8311222,147.341495 19,150.080279 19,150.080279 L84.4747353,122.151331 L70.4463247,97.4046923 L59.3473802,79.3821056 L101.159614,90.9834673 L93.5769307,68.5167351 L114.842189,76.8090116 L114.842189,56.9591986 L107.817096,38 L131.852436,68.5167351 Z" id="Polygon" stroke-opacity="0.155910326" stroke="#979797" stroke-width="4" fill-opacity="0.0302592844" fill="#D8D8D8"></path>
            <path d="M10.5,114.5 L251.5,114.5" id="Line" stroke="#D7C6EB" stroke-width="5" stroke-linecap="square"></path>
            <path d="M9.5,149.5 L250.5,149.5" id="Line" stroke="#D7C6EB" stroke-width="5" stroke-linecap="square"></path>
            <path d="M9.5,186.5 L250.5,186.5" id="Line" stroke="#D7C6EB" stroke-width="5" stroke-linecap="square"></path>
            <path d="M9.5,223.5 L250.5,223.5" id="Line" stroke="#D7C6EB" stroke-width="5" stroke-linecap="square"></path>
            <path d="M9.5,79.5 L250.5,79.5" id="Line" stroke="#D7C6EB" stroke-width="5" stroke-linecap="square"></path>
            <path d="M10.5,44.5 L251.5,44.5" id="Line" stroke="#D7C6EB" stroke-width="5" stroke-linecap="square"></path>
            <path d="M73,251 L73,10" id="Line" stroke="#D7C6EB" stroke-width="5" stroke-linecap="square"></path>
            <path d="M130,251 L130,10" id="Line" stroke="#D7C6EB" stroke-width="5" stroke-linecap="square"></path>
            <path d="M197,251 L197,10" id="Line" stroke="#D7C6EB" stroke-width="5" stroke-linecap="square"></path>
        </g>
    </g>
</svg>