<?xml version="1.0" encoding="UTF-8" standalone="no"?>
<svg width="596px" height="360px" viewBox="0 0 596 360" version="1.1" xmlns="http://www.w3.org/2000/svg" xmlns:xlink="http://www.w3.org/1999/xlink">
    <!-- Generator: Sketch 43.1 (39012) - http://www.bohemiancoding.com/sketch -->
    <title>Group 3</title>
    <desc>Created with Sketch.</desc>
    <defs>
        <rect id="path-1" x="0" y="0" width="273.729579" height="123.487028" rx="21"></rect>
        <radialGradient cx="89.5333426%" cy="43.4814453%" fx="89.5333426%" fy="43.4814453%" r="56.8561781%" gradientTransform="translate(0.895333,0.434814),rotate(166.285127),scale(1.000000,1.842835),translate(-0.895333,-0.434814)" id="radialGradient-2">
            <stop stop-color="#FFFFFF" offset="0%"></stop>
            <stop stop-color="#C3F19C" offset="100%"></stop>
        </radialGradient>
        <radialGradient cx="50%" cy="0%" fx="50%" fy="0%" r="50%" id="radialGradient-3">
            <stop stop-color="#FFFFFF" offset="0%"></stop>
            <stop stop-color="#C3F19C" offset="100%"></stop>
        </radialGradient>
        <path d="M169.330176,0.675235225 C170.459923,0.657302749 171.607601,0.657302749 172.737347,0.675235225 L172.558022,18.6077117 C171.535871,18.5897792 170.531652,18.5897792 169.509501,18.6077117 L169.330176,0.675235225 Z" id="path-4"></path>
        <path d="M187.137126,1.44633171 C188.266872,1.55392657 189.396618,1.66152143 190.526364,1.78704877 L188.482061,19.6119304 C187.477843,19.5043355 186.455692,19.3788082 185.451473,19.2891458 L187.137126,1.44633171 Z" id="path-5"></path>
        <path d="M204.782682,4.0465408 C205.894496,4.279663 207.00631,4.51278519 208.118123,4.76383986 L204.208843,22.2659369 C203.222557,22.0507472 202.236271,21.817625 201.232052,21.6203678 L204.782682,4.0465408 Z" id="path-6"></path>
        <path d="M222.051657,8.49379497 C223.127606,8.83451202 224.221487,9.19316155 225.297436,9.55181108 L219.576976,26.5517988 C218.608622,26.2290142 217.658201,25.9062296 216.689847,25.6013775 L222.051657,8.49379497 Z" id="path-7"></path>
        <path d="M238.764725,14.7163643 C239.804809,15.1646762 240.844893,15.6309206 241.884976,16.097165 L234.425066,32.4157186 C233.492577,31.9853392 232.560089,31.5908247 231.6276,31.1783777 L238.764725,14.7163643 Z" id="path-8"></path>
        <path d="M254.724629,22.6604514 C255.710916,23.2163582 256.697202,23.7901974 257.683488,24.3640367 L248.555858,39.8038989 C247.677166,39.2838571 246.798475,38.7817477 245.919784,38.2796384 L254.724629,22.6604514 Z" id="path-9"></path>
        <path d="M269.78791,32.2184613 C270.720398,32.881963 271.634955,33.5454646 272.549511,34.2268987 L261.861755,48.6266773 C261.036861,48.0169731 260.211967,47.4252014 259.387073,46.8334297 L269.78791,32.2184613 Z" id="path-10"></path>
        <path d="M283.757309,43.3007318 C284.618068,44.0538958 285.442962,44.8070598 286.285788,45.5781563 L274.163434,58.776459 C273.41027,58.0950249 272.657106,57.4315233 271.886009,56.7500892 L283.757309,43.3007318 Z" id="path-11"></path>
        <path d="M296.489367,55.7817354 C297.260464,56.6245618 298.013628,57.4494558 298.766792,58.3102146 L285.317434,70.1815141 C284.636,69.4104176 283.972499,68.6572536 283.291065,67.9040895 L296.489367,55.7817354 Z" id="path-12"></path>
        <path d="M307.840625,69.5180124 C308.522059,70.4325687 309.185561,71.347125 309.849062,72.2796138 L295.234094,82.6804502 C294.642322,81.8555562 294.05055,81.0306623 293.440846,80.2057684 L307.840625,69.5180124 Z" id="path-13"></path>
        <path d="M317.703487,84.3840354 C318.277326,85.3703216 318.851165,86.3566078 319.407072,87.342894 L303.787885,96.14774 C303.285776,95.2690486 302.783666,94.3903573 302.263625,93.5116659 L317.703487,84.3840354 Z" id="path-14"></path>
        <path d="M325.970359,100.182547 C326.436603,101.222631 326.902847,102.262714 327.351159,103.302798 L310.889146,110.439924 C310.476699,109.507435 310.082184,108.574946 309.651805,107.642457 L325.970359,100.182547 Z" id="path-15"></path>
        <path d="M332.515712,116.770088 C332.874362,117.846037 333.233011,118.939918 333.573729,120.015866 L316.466146,125.377677 C316.161294,124.409323 315.838509,123.458902 315.515725,122.490548 L332.515712,116.770088 Z" id="path-16"></path>
        <path d="M337.303684,133.9494 C337.554738,135.061214 337.787861,136.173027 338.020983,137.284841 L320.447156,140.835471 C320.249899,139.831253 320.016776,138.844966 319.801587,137.85868 L337.303684,133.9494 Z" id="path-17"></path>
        <path d="M340.280475,151.54116 C340.406002,152.670906 340.513597,153.800652 340.621192,154.930398 L322.778378,156.616051 C322.688715,155.611832 322.563188,154.589681 322.455593,153.585462 L340.280475,151.54116 Z" id="path-18"></path>
        <path d="M341.392288,169.330176 C341.410221,170.459923 341.410221,171.607601 341.392288,172.737347 L323.459812,172.558022 C323.477744,171.535871 323.477744,170.531652 323.459812,169.509501 L341.392288,169.330176 Z" id="path-19"></path>
        <path d="M340.621192,187.137126 C340.513597,188.266872 340.406002,189.396618 340.280475,190.526364 L322.455593,188.482061 C322.563188,187.477843 322.688715,186.455692 322.778378,185.451473 L340.621192,187.137126 Z" id="path-20"></path>
        <path d="M338.020983,204.782682 C337.787861,205.894496 337.554738,207.00631 337.303684,208.118123 L319.801587,204.208843 C320.016776,203.222557 320.249899,202.236271 320.447156,201.232052 L338.020983,204.782682 Z" id="path-21"></path>
        <path d="M333.573729,222.051657 C333.233011,223.127606 332.874362,224.221487 332.515712,225.297436 L315.515725,219.576976 C315.838509,218.608622 316.161294,217.658201 316.466146,216.689847 L333.573729,222.051657 Z" id="path-22"></path>
        <path d="M327.351159,238.764725 C326.902847,239.804809 326.436603,240.844893 325.970359,241.884976 L309.651805,234.425066 C310.082184,233.492577 310.476699,232.560089 310.889146,231.6276 L327.351159,238.764725 Z" id="path-23"></path>
        <path d="M319.407072,254.724629 C318.851165,255.710916 318.277326,256.697202 317.703487,257.683488 L302.263625,248.555858 C302.783666,247.677166 303.285776,246.798475 303.787885,245.919784 L319.407072,254.724629 Z" id="path-24"></path>
        <path d="M309.849062,269.78791 C309.185561,270.720398 308.522059,271.634955 307.840625,272.549511 L293.440846,261.861755 C294.05055,261.036861 294.642322,260.211967 295.234094,259.387073 L309.849062,269.78791 Z" id="path-25"></path>
        <path d="M298.766792,283.757309 C298.013628,284.618068 297.260464,285.442962 296.489367,286.285788 L283.291065,274.163434 C283.972499,273.41027 284.636,272.657106 285.317434,271.886009 L298.766792,283.757309 Z" id="path-26"></path>
        <path d="M286.285788,296.489367 C285.442962,297.260464 284.618068,298.013628 283.757309,298.766792 L271.886009,285.317434 C272.657106,284.636 273.41027,283.972499 274.163434,283.291065 L286.285788,296.489367 Z" id="path-27"></path>
        <path d="M272.549511,307.840625 C271.634955,308.522059 270.720398,309.185561 269.78791,309.849062 L259.387073,295.234094 C260.211967,294.642322 261.036861,294.05055 261.861755,293.440846 L272.549511,307.840625 Z" id="path-28"></path>
        <path d="M257.683488,317.703487 C256.697202,318.277326 255.710916,318.851165 254.724629,319.407072 L245.919784,303.787885 C246.798475,303.285776 247.677166,302.783666 248.555858,302.263625 L257.683488,317.703487 Z" id="path-29"></path>
        <path d="M241.884976,325.970359 C240.844893,326.436603 239.804809,326.902847 238.764725,327.351159 L231.6276,310.889146 C232.560089,310.476699 233.492577,310.082184 234.425066,309.651805 L241.884976,325.970359 Z" id="path-30"></path>
        <path d="M225.297436,332.515712 C224.221487,332.874362 223.127606,333.233011 222.051657,333.573729 L216.689847,316.466146 C217.658201,316.161294 218.608622,315.838509 219.576976,315.515725 L225.297436,332.515712 Z" id="path-31"></path>
        <path d="M208.118123,337.303684 C207.00631,337.554738 205.894496,337.787861 204.782682,338.020983 L201.232052,320.447156 C202.236271,320.249899 203.222557,320.016776 204.208843,319.801587 L208.118123,337.303684 Z" id="path-32"></path>
        <path d="M190.526364,340.280475 C189.396618,340.406002 188.266872,340.513597 187.137126,340.621192 L185.451473,322.778378 C186.455692,322.688715 187.477843,322.563188 188.482061,322.455593 L190.526364,340.280475 Z" id="path-33"></path>
        <path d="M172.737347,341.392288 C171.607601,341.410221 170.459923,341.410221 169.330176,341.392288 L169.509501,323.459812 C170.531652,323.477744 171.535871,323.477744 172.558022,323.459812 L172.737347,341.392288 Z" id="path-34"></path>
        <path d="M154.930398,340.621192 C153.800652,340.513597 152.670906,340.406002 151.54116,340.280475 L153.585462,322.455593 C154.589681,322.563188 155.611832,322.688715 156.616051,322.778378 L154.930398,340.621192 Z" id="path-35"></path>
        <path d="M137.284841,338.020983 C136.173027,337.787861 135.061214,337.554738 133.9494,337.303684 L137.85868,319.801587 C138.844966,320.016776 139.831253,320.249899 140.835471,320.447156 L137.284841,338.020983 Z" id="path-36"></path>
        <path d="M120.015866,333.573729 C118.939918,333.233011 117.846037,332.874362 116.770088,332.515712 L122.490548,315.515725 C123.458902,315.838509 124.409323,316.161294 125.377677,316.466146 L120.015866,333.573729 Z" id="path-37"></path>
        <path d="M103.302798,327.351159 C102.262714,326.902847 101.222631,326.436603 100.182547,325.970359 L107.642457,309.651805 C108.574946,310.082184 109.507435,310.476699 110.439924,310.889146 L103.302798,327.351159 Z" id="path-38"></path>
        <path d="M87.342894,319.407072 C86.3566078,318.851165 85.3703216,318.277326 84.3840354,317.703487 L93.5116659,302.263625 C94.3903573,302.783666 95.2690486,303.285776 96.14774,303.787885 L87.342894,319.407072 Z" id="path-39"></path>
        <path d="M72.2796138,309.849062 C71.347125,309.185561 70.4325687,308.522059 69.5180124,307.840625 L80.2057684,293.440846 C81.0306623,294.05055 81.8555562,294.642322 82.6804502,295.234094 L72.2796138,309.849062 Z" id="path-40"></path>
        <path d="M58.3102146,298.766792 C57.4494558,298.013628 56.6245618,297.260464 55.7817354,296.489367 L67.9040895,283.291065 C68.6572536,283.972499 69.4104176,284.636 70.1815141,285.317434 L58.3102146,298.766792 Z" id="path-41"></path>
        <path d="M45.5781563,286.285788 C44.8070598,285.442962 44.0538958,284.618068 43.3007318,283.757309 L56.7500892,271.886009 C57.4315233,272.657106 58.0950249,273.41027 58.776459,274.163434 L45.5781563,286.285788 Z" id="path-42"></path>
        <path d="M34.2268987,272.549511 C33.5454646,271.634955 32.881963,270.720398 32.2184613,269.78791 L46.8334297,259.387073 C47.4252014,260.211967 48.0169731,261.036861 48.6266773,261.861755 L34.2268987,272.549511 Z" id="path-43"></path>
        <path d="M24.3640367,257.683488 C23.7901974,256.697202 23.2163582,255.710916 22.6604514,254.724629 L38.2796384,245.919784 C38.7817477,246.798475 39.2838571,247.677166 39.8038989,248.555858 L24.3640367,257.683488 Z" id="path-44"></path>
        <path d="M16.097165,241.884976 C15.6309206,240.844893 15.1646762,239.804809 14.7163643,238.764725 L31.1783777,231.6276 C31.5908247,232.560089 31.9853392,233.492577 32.4157186,234.425066 L16.097165,241.884976 Z" id="path-45"></path>
        <path d="M9.55181108,225.297436 C9.19316155,224.221487 8.83451202,223.127606 8.49379497,222.051657 L25.6013775,216.689847 C25.9062296,217.658201 26.2290142,218.608622 26.5517988,219.576976 L9.55181108,225.297436 Z" id="path-46"></path>
        <path d="M4.76383986,208.118123 C4.51278519,207.00631 4.279663,205.894496 4.0465408,204.782682 L21.6203678,201.232052 C21.817625,202.236271 22.0507472,203.222557 22.2659369,204.208843 L4.76383986,208.118123 Z" id="path-47"></path>
        <path d="M1.78704877,190.526364 C1.66152143,189.396618 1.55392657,188.266872 1.44633171,187.137126 L19.2891458,185.451473 C19.3788082,186.455692 19.5043355,187.477843 19.6119304,188.482061 L1.78704877,190.526364 Z" id="path-48"></path>
        <path d="M0.675235225,172.737347 C0.657302749,171.607601 0.657302749,170.459923 0.675235225,169.330176 L18.6077117,169.509501 C18.5897792,170.531652 18.5897792,171.535871 18.6077117,172.558022 L0.675235225,172.737347 Z" id="path-49"></path>
        <path d="M1.44633171,154.930398 C1.55392657,153.800652 1.66152143,152.670906 1.78704877,151.54116 L19.6119304,153.585462 C19.5043355,154.589681 19.3788082,155.611832 19.2891458,156.616051 L1.44633171,154.930398 Z" id="path-50"></path>
        <path d="M4.0465408,137.284841 C4.279663,136.173027 4.51278519,135.061214 4.76383986,133.9494 L22.2659369,137.85868 C22.0507472,138.844966 21.817625,139.831253 21.6203678,140.835471 L4.0465408,137.284841 Z" id="path-51"></path>
        <path d="M8.49379497,120.015866 C8.83451202,118.939918 9.19316155,117.846037 9.55181108,116.770088 L26.5517988,122.490548 C26.2290142,123.458902 25.9062296,124.409323 25.6013775,125.377677 L8.49379497,120.015866 Z" id="path-52"></path>
        <path d="M14.7163643,103.302798 C15.1646762,102.262714 15.6309206,101.222631 16.097165,100.182547 L32.4157186,107.642457 C31.9853392,108.574946 31.5908247,109.507435 31.1783777,110.439924 L14.7163643,103.302798 Z" id="path-53"></path>
        <path d="M22.6604514,87.342894 C23.2163582,86.3566078 23.7901974,85.3703216 24.3640367,84.3840354 L39.8038989,93.5116659 C39.2838571,94.3903573 38.7817477,95.2690486 38.2796384,96.14774 L22.6604514,87.342894 Z" id="path-54"></path>
        <path d="M32.2184613,72.2796138 C32.881963,71.347125 33.5454646,70.4325687 34.2268987,69.5180124 L48.6266773,80.2057684 C48.0169731,81.0306623 47.4252014,81.8555562 46.8334297,82.6804502 L32.2184613,72.2796138 Z" id="path-55"></path>
        <path d="M43.3007318,58.3102146 C44.0538958,57.4494558 44.8070598,56.6245618 45.5781563,55.7817354 L58.776459,67.9040895 C58.0950249,68.6572536 57.4315233,69.4104176 56.7500892,70.1815141 L43.3007318,58.3102146 Z" id="path-56"></path>
        <path d="M55.7817354,45.5781563 C56.6245618,44.8070598 57.4494558,44.0538958 58.3102146,43.3007318 L70.1815141,56.7500892 C69.4104176,57.4315233 68.6572536,58.0950249 67.9040895,58.776459 L55.7817354,45.5781563 Z" id="path-57"></path>
        <path d="M69.5180124,34.2268987 C70.4325687,33.5454646 71.347125,32.881963 72.2796138,32.2184613 L82.6804502,46.8334297 C81.8555562,47.4252014 81.0306623,48.0169731 80.2057684,48.6266773 L69.5180124,34.2268987 Z" id="path-58"></path>
        <path d="M84.3840354,24.3640367 C85.3703216,23.7901974 86.3566078,23.2163582 87.342894,22.6604514 L96.14774,38.2796384 C95.2690486,38.7817477 94.3903573,39.2838571 93.5116659,39.8038989 L84.3840354,24.3640367 Z" id="path-59"></path>
        <path d="M84.3840354,24.3640367 C85.3703216,23.7901974 86.3566078,23.2163582 87.342894,22.6604514 L96.14774,38.2796384 C95.2690486,38.7817477 94.3903573,39.2838571 93.5116659,39.8038989 L84.3840354,24.3640367 Z" id="path-60"></path>
        <path d="M100.182547,16.097165 C101.222631,15.6309206 102.262714,15.1646762 103.302798,14.7163643 L110.439924,31.1783777 C109.507435,31.5908247 108.574946,31.9853392 107.642457,32.4157186 L100.182547,16.097165 Z" id="path-61"></path>
        <path d="M116.770088,9.55181108 C117.846037,9.19316155 118.939918,8.83451202 120.015866,8.49379497 L125.377677,25.6013775 C124.409323,25.9062296 123.458902,26.2290142 122.490548,26.5517988 L116.770088,9.55181108 Z" id="path-62"></path>
        <path d="M133.9494,4.76383986 C135.061214,4.51278519 136.173027,4.279663 137.284841,4.0465408 L140.835471,21.6203678 C139.831253,21.817625 138.844966,22.0507472 137.85868,22.2659369 L133.9494,4.76383986 Z" id="path-63"></path>
        <path d="M151.54116,1.78704877 C152.670906,1.66152143 153.800652,1.55392657 154.930398,1.44633171 L156.616051,19.2891458 C155.611832,19.3788082 154.589681,19.5043355 153.585462,19.6119304 L151.54116,1.78704877 Z" id="path-64"></path>
        <path d="M176.413505,0.711100178 C178.798524,0.657302749 181.201476,0.657302749 183.586495,0.711100178 L182.869196,36.5760531 C180.950421,36.5401882 179.049579,36.5401882 177.130804,36.5760531 L176.413505,0.711100178 Z" id="path-65"></path>
        <path d="M266.542131,22.9294385 C268.640231,24.077117 270.702466,25.2965254 272.746768,26.5338663 L254.204588,57.2163336 C252.572732,56.2300474 250.905012,55.2796261 249.237292,54.3471373 L266.542131,22.9294385 Z" id="path-66"></path>
        <path d="M333.466134,87.2532317 C334.703475,89.297534 335.922883,91.3597688 337.070561,93.4578685 L305.652863,110.762708 C304.720374,109.094988 303.769953,107.427268 302.783666,105.795412 L333.466134,87.2532317 Z" id="path-67"></path>
        <path d="M359.2889,176.413505 C359.342697,178.798524 359.342697,181.201476 359.2889,183.586495 L323.423947,182.869196 C323.459812,180.950421 323.459812,179.049579 323.423947,177.130804 L359.2889,176.413505 Z" id="path-68"></path>
        <path d="M337.070561,266.542131 C335.922883,268.640231 334.703475,270.702466 333.466134,272.746768 L302.783666,254.204588 C303.769953,252.572732 304.720374,250.905012 305.652863,249.237292 L337.070561,266.542131 Z" id="path-69"></path>
        <path d="M272.746768,333.466134 C270.702466,334.703475 268.640231,335.922883 266.542131,337.070561 L249.237292,305.652863 C250.905012,304.720374 252.572732,303.769953 254.204588,302.783666 L272.746768,333.466134 Z" id="path-70"></path>
        <path d="M183.586495,359.2889 C181.201476,359.342697 178.798524,359.342697 176.413505,359.2889 L177.130804,323.423947 C179.049579,323.459812 180.950421,323.459812 182.869196,323.423947 L183.586495,359.2889 Z" id="path-71"></path>
        <path d="M93.4578685,337.070561 C91.3597688,335.922883 89.297534,334.703475 87.2532317,333.466134 L105.795412,302.783666 C107.427268,303.769953 109.094988,304.720374 110.762708,305.652863 L93.4578685,337.070561 Z" id="path-72"></path>
        <path d="M26.5338663,272.746768 C25.2965254,270.702466 24.077117,268.640231 22.9294385,266.542131 L54.3471373,249.237292 C55.2796261,250.905012 56.2300474,252.572732 57.2163336,254.204588 L26.5338663,272.746768 Z" id="path-73"></path>
        <path d="M0.711100178,183.586495 C0.657302749,181.201476 0.657302749,178.798524 0.711100178,176.413505 L36.5760531,177.130804 C36.5401882,179.049579 36.5401882,180.950421 36.5760531,182.869196 L0.711100178,183.586495 Z" id="path-74"></path>
        <path d="M22.9294385,93.4578685 C24.077117,91.3597688 25.2965254,89.297534 26.5338663,87.2532317 L57.2163336,105.795412 C56.2300474,107.427268 55.2796261,109.094988 54.3471373,110.762708 L22.9294385,93.4578685 Z" id="path-75"></path>
        <path d="M87.2532317,26.5338663 C89.297534,25.2965254 91.3597688,24.077117 93.4578685,22.9294385 L110.762708,54.3471373 C109.094988,55.2796261 107.427268,56.2300474 105.795412,57.2163336 L87.2532317,26.5338663 Z" id="path-76"></path>
        <linearGradient x1="72.1842448%" y1="0%" x2="0%" y2="100%" id="linearGradient-77">
            <stop stop-color="#F8F8F8" offset="0%"></stop>
            <stop stop-color="#93EE6E" offset="100%"></stop>
        </linearGradient>
        <path d="M182.515528,34.0993789 C232.333439,34.0993789 278.358886,60.4696584 303.26087,103.276398 L182.515528,172.453416 L182.515528,172.453416 L182.515528,34.0993789 Z" id="path-78"></path>
    </defs>
    <g id="Page-1" stroke="none" stroke-width="1" fill="none" fill-rule="evenodd">
        <g id="Group-3">
            <g id="Group-2" transform="translate(322.000000, 119.000000)">
                <g id="Rectangle">
                    <use fill-opacity="0" fill="#FFFFFF" fill-rule="evenodd" xlink:href="#path-1"></use>
                    <rect stroke="#138E01" stroke-width="6" x="3" y="3" width="267.729579" height="117.487028" rx="21"></rect>
                </g>
                <text id="SCANNED" font-family="Menlo-Bold, Menlo" font-size="48" font-weight="bold" fill="#138E01">
                    <tspan x="39" y="77">SCANNED</tspan>
                </text>
            </g>
            <g id="Group">
                <ellipse id="Oval" fill="url(#radialGradient-2)" cx="88.1832298" cy="130.947205" rx="26.4130435" ry="26.4130435"></ellipse>
                <ellipse id="Oval" fill="url(#radialGradient-2)" cx="188.804348" cy="279.363354" rx="26.4130435" ry="26.4130435"></ellipse>
                <ellipse id="Oval-2" stroke="#08BD0B" stroke-width="3" fill-opacity="0.0818331069" fill="#D8D8D8" cx="181.257764" cy="173.71118" rx="139.611801" ry="139.611801"></ellipse>
                <ellipse id="Oval-2" stroke="#08BD0B" stroke-width="3" fill-opacity="0.0818331069" fill="#D8D8D8" cx="182.515528" cy="174.968944" rx="95.5900621" ry="95.5900621"></ellipse>
                <circle id="Oval" fill="url(#radialGradient-3)" cx="218.990683" cy="203.897516" r="23.8975155"></circle>
                <circle id="Oval-2" stroke="#08BD0B" stroke-width="3" fill-opacity="0.0818331069" fill="#D8D8D8" cx="182.515528" cy="174.968944" r="50.310559"></circle>
                <g id="Tickmarks-circle" transform="translate(0.000000, 0.000000)">
                    <g id="Minor-tickmarks" transform="translate(8.966238, 8.966238)">
                        <path d="M171.033762,0.675235225 C231.896587,0.675235225 288.132833,33.1509501 318.564246,85.8544985 C348.995658,138.558047 348.995658,203.509477 318.564246,256.213025 C288.132833,308.916573 231.896587,341.392288 171.033762,341.392288 C110.170937,341.392288 53.9346904,308.916573 23.5032778,256.213025 C-6.9281348,203.509477 -6.9281348,138.558047 23.5032778,85.8544985 C53.9346904,33.1509501 110.170937,0.675235225 171.033762,0.675235225 L171.033762,18.6077117 C116.572831,18.6077117 66.2543017,47.6583236 39.0328024,94.8207367 C11.8113031,141.98315 11.8113031,200.084374 39.0328024,247.246787 C66.2543017,294.4092 116.572831,323.459812 171.033762,323.459812 C225.494693,323.459812 275.813222,294.4092 303.034721,247.246787 C330.25622,200.084374 330.25622,141.98315 303.034721,94.8207367 C275.813222,47.6583236 225.494693,18.6077117 171.033762,18.6077117 L171.033762,0.675235225 Z" id="Base-plate" fill-opacity="0.002" fill="#455A64"></path>
                        <g id="Tick-minor-0">
                            <use fill="#455A64" fill-rule="evenodd" xlink:href="#path-4"></use>
                            <path stroke="#FFFFFF" stroke-width="0.25" d="M169.456414,0.798320637 C170.503223,0.782940945 171.5643,0.782940945 172.61111,0.798320637 L172.434287,18.4806109 C171.49598,18.4654795 170.571543,18.4654795 169.633237,18.4806109 L169.456414,0.798320637 Z"></path>
                        </g>
                        <g id="Tick-minor-1">
                            <use fill="#455A64" fill-rule="evenodd" xlink:href="#path-5"></use>
                            <path stroke="#FFFFFF" stroke-width="0.25" d="M187.23369,1.4811386 L187.125275,1.57076865 L187.012126,1.44633171 C187.087799,1.45829827 187.161623,1.46989467 187.23369,1.4811386 Z M187.259021,1.48508748 C188.813883,1.72728092 189.54617,1.80449174 190.38788,1.89747514 L188.372019,19.4743666 C188.151566,19.4505228 187.942087,19.4271781 187.487132,19.37613 C187.23396,19.3477323 187.23396,19.3477323 186.980511,19.3195713 C186.425876,19.2582179 185.996004,19.2135083 185.587721,19.1759789 L187.259021,1.48508748 Z"></path>
                        </g>
                        <g id="Tick-minor-2">
                            <use fill="#455A64" fill-rule="evenodd" xlink:href="#path-6"></use>
                            <path stroke="#FFFFFF" stroke-width="0.25" d="M204.880269,4.1947264 C206.389645,4.51135257 207.120448,4.66751189 207.968933,4.85835206 L204.113977,22.1172374 C203.906243,22.0716869 203.717675,22.0296216 203.249191,21.9247795 C202.368838,21.7277648 201.893197,21.6243441 201.379435,21.5220873 L204.880269,4.1947264 Z"></path>
                        </g>
                        <g id="Tick-minor-3">
                            <use fill="#455A64" fill-rule="evenodd" xlink:href="#path-7"></use>
                            <path stroke="#FFFFFF" stroke-width="0.25" d="M222.133427,8.65085592 C223.060927,8.94532931 224.045718,9.26681316 225.138976,9.63077753 L219.498284,26.3937143 C219.196733,26.2929214 218.428438,26.0360462 218.172773,25.9512227 C217.671899,25.7850448 217.250102,25.64759 216.84643,25.5197382 L222.133427,8.65085592 Z"></path>
                        </g>
                        <g id="Tick-minor-4">
                            <use fill="#455A64" fill-rule="evenodd" xlink:href="#path-8"></use>
                            <path stroke="#FFFFFF" stroke-width="0.25" d="M238.829774,14.8805741 C239.623324,15.2233789 240.307071,15.5269622 241.718936,16.1597237 L234.363489,32.2497642 C233.893966,32.0341947 233.474168,31.8489254 232.610037,31.4722527 C232.213597,31.2994456 232.004543,31.2080793 231.791669,31.1141952 L238.829774,14.8805741 Z"></path>
                        </g>
                        <g id="Tick-minor-5">
                            <use fill="#455A64" fill-rule="evenodd" xlink:href="#path-9"></use>
                            <path stroke="#FFFFFF" stroke-width="0.25" d="M254.77211,22.8307722 C255.196798,23.0706947 255.642284,23.3255551 256.141565,23.6137762 C256.531642,23.8389569 256.847682,24.0224084 257.511827,24.4087816 L248.511868,39.6326808 C247.846813,39.2399136 247.269805,38.9072768 246.089697,38.2327702 L254.77211,22.8307722 Z"></path>
                        </g>
                        <g id="Tick-minor-6">
                            <use fill="#455A64" fill-rule="evenodd" xlink:href="#path-10"></use>
                            <path stroke="#FFFFFF" stroke-width="0.25" d="M269.817257,32.3928078 C270.714124,33.0318659 271.556657,33.644242 272.374742,34.2526332 L261.835701,48.4520469 C261.21109,47.9912104 260.669427,47.5997065 259.561116,46.8044544 L269.817257,32.3928078 Z"></path>
                        </g>
                        <g id="Tick-minor-7">
                            <use fill="#455A64" fill-rule="evenodd" xlink:href="#path-11"></use>
                            <path stroke="#FFFFFF" stroke-width="0.25" d="M283.768612,43.476818 C284.436654,44.062795 285.032852,44.6016338 286.108999,45.5858487 L274.155255,58.600576 C273.83625,58.3125493 273.500889,58.0128041 273.114423,57.6697869 C272.942627,57.5173055 272.76335,57.3585796 272.544039,57.1647094 C272.292271,56.9422287 272.261614,56.9151377 272.062405,56.7391369 L283.768612,43.476818 Z"></path>
                        </g>
                        <g id="Tick-minor-8">
                            <use fill="#455A64" fill-rule="evenodd" xlink:href="#path-12"></use>
                            <path stroke="#FFFFFF" stroke-width="0.25" d="M296.481675,55.9585248 C297.46589,57.0346715 298.004729,57.6308692 298.590706,58.2989114 L285.328387,70.0051182 C285.152386,69.8059093 285.125295,69.7752521 284.902814,69.5234847 C284.708944,69.3041731 284.550218,69.1248961 284.397737,68.9531003 C284.054719,68.5666343 283.754974,68.2312734 283.466948,67.912269 L296.481675,55.9585248 Z"></path>
                        </g>
                        <g id="Tick-minor-9">
                            <use fill="#455A64" fill-rule="evenodd" xlink:href="#path-13"></use>
                            <path stroke="#FFFFFF" stroke-width="0.25" d="M307.81489,69.6927812 C308.423282,70.5108668 309.035658,71.3533991 309.674716,72.2502664 L295.263069,82.5064076 C294.467817,81.3980962 294.076313,80.8564339 293.615477,80.2318229 L307.81489,69.6927812 Z"></path>
                        </g>
                        <g id="Tick-minor-10">
                            <use fill="#455A64" fill-rule="evenodd" xlink:href="#path-14"></use>
                            <path stroke="#FFFFFF" stroke-width="0.25" d="M317.658742,84.5556967 C318.045115,85.2198419 318.228567,85.5358815 318.453747,85.9259584 C318.741968,86.4252391 318.996829,86.8707259 319.236751,87.295414 L303.834753,95.9778262 C303.160247,94.7977183 302.82761,94.220711 302.434844,93.5556551 L317.658742,84.5556967 Z"></path>
                        </g>
                        <g id="Tick-minor-11">
                            <use fill="#455A64" fill-rule="evenodd" xlink:href="#path-15"></use>
                            <path stroke="#FFFFFF" stroke-width="0.25" d="M325.9078,100.348587 C326.540561,101.760453 326.844145,102.4442 327.186949,103.237749 L310.953328,110.275855 C310.859444,110.062981 310.768078,109.853927 310.595271,109.457487 C310.218598,108.593355 310.033329,108.173557 309.817761,107.704034 L325.9078,100.348587 Z"></path>
                        </g>
                        <g id="Tick-minor-12">
                            <use fill="#455A64" fill-rule="evenodd" xlink:href="#path-16"></use>
                            <path stroke="#FFFFFF" stroke-width="0.25" d="M332.436746,116.928547 C332.80071,118.021805 333.122194,119.006596 333.416668,119.934096 L316.547785,125.221094 C316.419934,124.817422 316.282479,124.395625 316.116301,123.89475 C316.031477,123.639085 315.774602,122.87079 315.673809,122.56924 L332.436746,116.928547 Z"></path>
                        </g>
                        <g id="Tick-minor-13">
                            <use fill="#455A64" fill-rule="evenodd" xlink:href="#path-17"></use>
                            <path stroke="#FFFFFF" stroke-width="0.25" d="M337.209155,134.098594 C337.316769,134.577599 337.42646,135.080057 337.546818,135.643245 C337.640761,136.082827 337.71587,136.439005 337.8728,137.187254 L320.545436,140.688089 C320.443179,140.174327 320.339759,139.698686 320.142744,138.818332 C320.037902,138.349848 319.995837,138.161281 319.950286,137.953547 L337.209155,134.098594 Z"></path>
                        </g>
                        <g id="Tick-minor-14">
                            <use fill="#455A64" fill-rule="evenodd" xlink:href="#path-18"></use>
                            <path stroke="#FFFFFF" stroke-width="0.25" d="M340.170039,151.679645 C340.265038,152.541474 340.338694,153.284171 340.484889,154.817718 L322.891545,156.479803 C322.854015,156.07152 322.809306,155.641647 322.747952,155.087013 C322.719791,154.833564 322.719791,154.833564 322.691393,154.580392 C322.640345,154.125437 322.617001,153.915957 322.593158,153.695505 L340.170039,151.679645 Z"></path>
                        </g>
                        <g id="Tick-minor-15">
                            <use fill="#455A64" fill-rule="evenodd" xlink:href="#path-19"></use>
                            <path stroke="#FFFFFF" stroke-width="0.25" d="M341.269203,169.456414 C341.284583,170.503223 341.284583,171.5643 341.269203,172.61111 L323.586913,172.434287 C323.602044,171.49598 323.602044,170.571543 323.586913,169.633237 L341.269203,169.456414 Z"></path>
                        </g>
                        <g id="Tick-minor-16">
                            <use fill="#455A64" fill-rule="evenodd" xlink:href="#path-20"></use>
                            <path stroke="#FFFFFF" stroke-width="0.25" d="M340.484889,187.249805 C340.338694,188.783353 340.265038,189.526049 340.170039,190.387879 L322.593157,188.372019 C322.617001,188.151566 322.640345,187.942087 322.691393,187.487132 C322.719791,187.23396 322.719791,187.23396 322.747952,186.980511 C322.809306,186.425876 322.854015,185.996004 322.891545,185.587721 L340.484889,187.249805 Z"></path>
                        </g>
                        <g id="Tick-minor-17">
                            <use fill="#455A64" fill-rule="evenodd" xlink:href="#path-21"></use>
                            <path stroke="#FFFFFF" stroke-width="0.25" d="M337.872797,204.880269 C337.556171,206.389645 337.400012,207.120448 337.209171,207.968933 L319.950286,204.113977 C319.995837,203.906243 320.037902,203.717675 320.142744,203.249191 C320.339759,202.368838 320.443179,201.893197 320.545436,201.379435 L337.872797,204.880269 Z"></path>
                        </g>
                        <g id="Tick-minor-18">
                            <use fill="#455A64" fill-rule="evenodd" xlink:href="#path-22"></use>
                            <path stroke="#FFFFFF" stroke-width="0.25" d="M333.416668,222.133427 C333.122194,223.060927 332.80071,224.045718 332.436746,225.138976 L315.673809,219.498284 C315.774602,219.196733 316.031477,218.428438 316.116301,218.172773 C316.282479,217.671899 316.419934,217.250102 316.547785,216.84643 L333.416668,222.133427 Z"></path>
                        </g>
                        <g id="Tick-minor-19">
                            <use fill="#455A64" fill-rule="evenodd" xlink:href="#path-23"></use>
                            <path stroke="#FFFFFF" stroke-width="0.25" d="M327.186949,238.829774 C326.844145,239.623324 326.540561,240.307071 325.9078,241.718936 L309.817759,234.363489 C310.033329,233.893966 310.218598,233.474168 310.595271,232.610037 C310.768078,232.213597 310.859444,232.004543 310.953328,231.791669 L327.186949,238.829774 Z"></path>
                        </g>
                        <g id="Tick-minor-20">
                            <use fill="#455A64" fill-rule="evenodd" xlink:href="#path-24"></use>
                            <path stroke="#FFFFFF" stroke-width="0.25" d="M319.236764,254.772117 C318.811892,255.524575 318.437549,256.173001 317.65874,257.511826 L302.434843,248.511868 C302.82761,247.846813 303.160247,247.269805 303.834753,246.089697 L319.236764,254.772117 Z"></path>
                        </g>
                        <g id="Tick-minor-21">
                            <use fill="#455A64" fill-rule="evenodd" xlink:href="#path-25"></use>
                            <path stroke="#FFFFFF" stroke-width="0.25" d="M309.674716,269.817257 C309.035658,270.714124 308.423282,271.556657 307.81489,272.374742 L293.615477,261.835701 C294.076313,261.21109 294.467817,260.669427 295.263069,259.561116 L309.674716,269.817257 Z"></path>
                        </g>
                        <g id="Tick-minor-22">
                            <use fill="#455A64" fill-rule="evenodd" xlink:href="#path-26"></use>
                            <path stroke="#FFFFFF" stroke-width="0.25" d="M298.590703,283.768615 C298.004727,284.436656 297.465889,285.032853 296.481675,286.108999 L283.466948,274.155255 C283.754974,273.83625 284.054719,273.500889 284.397737,273.114423 C284.550218,272.942627 284.708944,272.76335 284.902814,272.544039 C285.125295,272.292271 285.152386,272.261614 285.328387,272.062405 L298.590706,283.768612 L298.590703,283.768615 Z"></path>
                        </g>
                        <g id="Tick-minor-23">
                            <use fill="#455A64" fill-rule="evenodd" xlink:href="#path-27"></use>
                            <path stroke="#FFFFFF" stroke-width="0.25" d="M286.108999,296.481675 C285.032852,297.46589 284.436654,298.004729 283.768612,298.590706 L272.062405,285.328387 C272.261614,285.152386 272.292271,285.125295 272.544039,284.902814 C272.76335,284.708944 272.942627,284.550218 273.114423,284.397737 C273.500889,284.054719 273.83625,283.754974 274.155255,283.466948 L286.108999,296.481675 Z"></path>
                        </g>
                        <g id="Tick-minor-24">
                            <use fill="#455A64" fill-rule="evenodd" xlink:href="#path-28"></use>
                            <path stroke="#FFFFFF" stroke-width="0.25" d="M272.374742,307.81489 C271.556657,308.423282 270.714124,309.035658 269.817257,309.674716 L259.561116,295.263069 C260.669427,294.467817 261.21109,294.076313 261.835701,293.615477 L272.374742,307.81489 Z"></path>
                        </g>
                        <g id="Tick-minor-25">
                            <use fill="#455A64" fill-rule="evenodd" xlink:href="#path-29"></use>
                            <path stroke="#FFFFFF" stroke-width="0.25" d="M257.511827,317.658742 C256.847682,318.045115 256.531642,318.228567 256.141565,318.453747 C255.642284,318.741968 255.196798,318.996829 254.77211,319.236751 L246.089697,303.834753 C247.269805,303.160247 247.846813,302.82761 248.511868,302.434844 L257.511827,317.658742 Z"></path>
                        </g>
                        <g id="Tick-minor-26">
                            <use fill="#455A64" fill-rule="evenodd" xlink:href="#path-30"></use>
                            <path stroke="#FFFFFF" stroke-width="0.25" d="M241.718936,325.9078 C240.307071,326.540561 239.623324,326.844145 238.829774,327.186949 L231.791668,310.953328 C232.004543,310.859444 232.213597,310.768078 232.610037,310.595271 C233.474168,310.218598 233.893966,310.033329 234.36349,309.817761 L241.718936,325.9078 Z"></path>
                        </g>
                        <g id="Tick-minor-27">
                            <use fill="#455A64" fill-rule="evenodd" xlink:href="#path-31"></use>
                            <path stroke="#FFFFFF" stroke-width="0.25" d="M225.138976,332.436746 C224.045718,332.80071 223.060927,333.122194 222.133427,333.416668 L216.84643,316.547785 C217.250102,316.419934 217.671899,316.282479 218.172773,316.116301 C218.428438,316.031477 219.196734,315.774602 219.498284,315.673809 L225.138976,332.436746 Z"></path>
                        </g>
                        <g id="Tick-minor-28">
                            <use fill="#455A64" fill-rule="evenodd" xlink:href="#path-32"></use>
                            <path stroke="#FFFFFF" stroke-width="0.25" d="M207.968933,337.209171 C207.120448,337.400012 206.389645,337.556171 204.880269,337.872797 L201.379434,320.545434 C201.893197,320.443179 202.368838,320.339759 203.249191,320.142744 C203.717675,320.037902 203.906243,319.995837 204.113977,319.950286 L207.968933,337.209171 Z"></path>
                        </g>
                        <g id="Tick-minor-29">
                            <use fill="#455A64" fill-rule="evenodd" xlink:href="#path-33"></use>
                            <path stroke="#FFFFFF" stroke-width="0.25" d="M190.387879,340.170039 C189.526049,340.265038 188.783353,340.338694 187.249805,340.484889 L185.587721,322.891545 C185.996004,322.854015 186.425876,322.809306 186.980511,322.747952 C187.23396,322.719791 187.23396,322.719791 187.487132,322.691393 C187.942087,322.640345 188.151566,322.617001 188.372019,322.593158 L190.387879,340.170039 Z"></path>
                        </g>
                        <g id="Tick-minor-30">
                            <use fill="#455A64" fill-rule="evenodd" xlink:href="#path-34"></use>
                            <path stroke="#FFFFFF" stroke-width="0.25" d="M172.61111,341.269203 C171.5643,341.284583 170.503223,341.284583 169.456414,341.269203 L169.633237,323.586913 C170.571543,323.602044 171.49598,323.602044 172.434287,323.586913 L172.61111,341.269203 Z"></path>
                        </g>
                        <g id="Tick-minor-31">
                            <use fill="#455A64" fill-rule="evenodd" xlink:href="#path-35"></use>
                            <path stroke="#FFFFFF" stroke-width="0.25" d="M154.817718,340.484889 C153.284171,340.338694 152.541474,340.265038 151.679645,340.170039 L153.695505,322.593157 C153.915957,322.617001 154.125437,322.640345 154.580392,322.691393 C154.833564,322.719791 154.833564,322.719791 155.087013,322.747952 C155.641647,322.809306 156.071519,322.854015 156.479803,322.891545 L154.817718,340.484889 Z"></path>
                        </g>
                        <g id="Tick-minor-32">
                            <use fill="#455A64" fill-rule="evenodd" xlink:href="#path-36"></use>
                            <path stroke="#FFFFFF" stroke-width="0.25" d="M137.187254,337.8728 C136.439005,337.71587 136.082827,337.640761 135.643245,337.546818 C135.080057,337.42646 134.577599,337.316769 134.098594,337.209155 L137.953547,319.950286 C138.161281,319.995837 138.349848,320.037902 138.818332,320.142744 C139.698686,320.339759 140.174327,320.443179 140.688089,320.545436 L137.187254,337.8728 Z"></path>
                        </g>
                        <g id="Tick-minor-33">
                            <use fill="#455A64" fill-rule="evenodd" xlink:href="#path-37"></use>
                            <path stroke="#FFFFFF" stroke-width="0.25" d="M119.934096,333.416668 C119.006596,333.122194 118.021805,332.80071 116.928547,332.436746 L122.56924,315.673809 C122.87079,315.774602 123.639085,316.031477 123.89475,316.116301 C124.395625,316.282479 124.817422,316.419934 125.221094,316.547785 L119.934096,333.416668 Z"></path>
                        </g>
                        <g id="Tick-minor-34">
                            <use fill="#455A64" fill-rule="evenodd" xlink:href="#path-38"></use>
                            <path stroke="#FFFFFF" stroke-width="0.25" d="M103.237749,327.186949 C102.4442,326.844145 101.760453,326.540561 100.348587,325.9078 L107.704034,309.817761 C108.173557,310.033329 108.593355,310.218598 109.457487,310.595271 C109.853927,310.768078 110.062981,310.859444 110.275855,310.953328 L103.237749,327.186949 Z"></path>
                        </g>
                        <g id="Tick-minor-35">
                            <use fill="#455A64" fill-rule="evenodd" xlink:href="#path-39"></use>
                            <path stroke="#FFFFFF" stroke-width="0.25" d="M87.295414,319.236751 C86.8707259,318.996829 86.4252391,318.741968 85.9259584,318.453747 C85.5358815,318.228567 85.2198419,318.045115 84.5556967,317.658742 L93.5556556,302.434843 C94.220711,302.82761 94.7977183,303.160247 95.9778262,303.834753 L87.295414,319.236751 Z"></path>
                        </g>
                        <g id="Tick-minor-36">
                            <use fill="#455A64" fill-rule="evenodd" xlink:href="#path-40"></use>
                            <path stroke="#FFFFFF" stroke-width="0.25" d="M72.2502664,309.674716 C71.3533991,309.035658 70.5108668,308.423282 69.6927812,307.81489 L80.2318319,293.615465 C80.6966498,293.958247 81.1837844,294.312127 81.7825311,294.743109 C81.9920962,294.893955 82.1633225,295.016928 82.5064055,295.263072 L72.2502664,309.674716 Z"></path>
                        </g>
                        <g id="Tick-minor-37">
                            <use fill="#455A64" fill-rule="evenodd" xlink:href="#path-41"></use>
                            <path stroke="#FFFFFF" stroke-width="0.25" d="M58.2989114,298.590706 C57.6308692,298.004729 57.0346715,297.46589 55.9585248,296.481675 L67.9122689,283.466948 C68.2312734,283.754974 68.5666342,284.054719 68.9531003,284.397737 C69.1248961,284.550218 69.3041731,284.708944 69.5234847,284.902814 C69.7752521,285.125295 69.8059093,285.152386 70.0051182,285.328387 L58.2989114,298.590706 Z"></path>
                        </g>
                        <g id="Tick-minor-38">
                            <use fill="#455A64" fill-rule="evenodd" xlink:href="#path-42"></use>
                            <path stroke="#FFFFFF" stroke-width="0.25" d="M45.5858487,286.108999 C44.6016338,285.032852 44.062795,284.436654 43.476818,283.768612 L56.7391369,272.062405 C56.9151377,272.261614 56.9422287,272.292271 57.1647094,272.544039 C57.3585796,272.76335 57.5173055,272.942627 57.6697869,273.114423 C58.0128041,273.500889 58.3125492,273.83625 58.600576,274.155255 L45.5858487,286.108999 Z"></path>
                        </g>
                        <g id="Tick-minor-39">
                            <use fill="#455A64" fill-rule="evenodd" xlink:href="#path-43"></use>
                            <path stroke="#FFFFFF" stroke-width="0.25" d="M34.2526332,272.374742 C33.644242,271.556657 33.0318659,270.714124 32.3928078,269.817257 L46.8044545,259.561116 C47.5997065,260.669427 47.9912104,261.21109 48.4520469,261.835701 L34.2526332,272.374742 Z"></path>
                        </g>
                        <g id="Tick-minor-40">
                            <use fill="#455A64" fill-rule="evenodd" xlink:href="#path-44"></use>
                            <path stroke="#FFFFFF" stroke-width="0.25" d="M24.4087836,257.511826 C23.6299747,256.173001 23.2556317,255.524575 22.8307592,254.772117 L38.2327707,246.089697 C38.907323,247.269885 39.2399454,247.846866 39.6326799,248.511868 L24.4087836,257.511826 Z"></path>
                        </g>
                        <g id="Tick-minor-41">
                            <use fill="#455A64" fill-rule="evenodd" xlink:href="#path-45"></use>
                            <path stroke="#FFFFFF" stroke-width="0.25" d="M16.1597237,241.718936 C15.5269622,240.307071 15.2233789,239.623324 14.8805741,238.829774 L31.1141952,231.791669 C31.2080793,232.004543 31.2994456,232.213597 31.4722527,232.610037 C31.8489254,233.474168 32.0341947,233.893966 32.2497622,234.36349 L16.1597237,241.718936 Z"></path>
                        </g>
                        <g id="Tick-minor-42">
                            <use fill="#455A64" fill-rule="evenodd" xlink:href="#path-46"></use>
                            <path stroke="#FFFFFF" stroke-width="0.25" d="M9.63077753,225.138976 C9.26681316,224.045718 8.94532931,223.060927 8.65085592,222.133427 L25.519738,216.84643 C25.6475899,217.250102 25.7850448,217.671899 25.9512227,218.172773 C26.0360462,218.428438 26.2929216,219.196734 26.3937144,219.498284 L9.63077753,225.138976 Z"></path>
                        </g>
                        <g id="Tick-minor-43">
                            <use fill="#455A64" fill-rule="evenodd" xlink:href="#path-47"></use>
                            <path stroke="#FFFFFF" stroke-width="0.25" d="M4.85835206,207.968933 C4.66751189,207.120448 4.51135257,206.389645 4.1947264,204.880269 L21.5220891,201.379434 C21.6243441,201.893197 21.7277648,202.368838 21.9247795,203.249191 C22.0296216,203.717675 22.0716869,203.906243 22.1172374,204.113977 L4.85835206,207.968933 Z"></path>
                        </g>
                        <g id="Tick-minor-44">
                            <use fill="#455A64" fill-rule="evenodd" xlink:href="#path-48"></use>
                            <path stroke="#FFFFFF" stroke-width="0.25" d="M1.89748491,190.387879 C1.8024856,189.526049 1.72882978,188.783353 1.5826344,187.249805 L19.1759786,185.587721 C19.2135083,185.996004 19.2582179,186.425876 19.3195713,186.980511 C19.3477323,187.23396 19.3477323,187.23396 19.37613,187.487132 C19.4271781,187.942087 19.4505228,188.151566 19.4743658,188.372019 L1.89748491,190.387879 Z"></path>
                        </g>
                        <g id="Tick-minor-45">
                            <use fill="#455A64" fill-rule="evenodd" xlink:href="#path-49"></use>
                            <path stroke="#FFFFFF" stroke-width="0.25" d="M0.798320637,172.61111 C0.782940945,171.5643 0.782940945,170.503223 0.798320637,169.456414 L18.4806109,169.633237 C18.4654795,170.571543 18.4654795,171.49598 18.4806109,172.434287 L0.798320637,172.61111 Z"></path>
                        </g>
                        <g id="Tick-minor-46">
                            <use fill="#455A64" fill-rule="evenodd" xlink:href="#path-50"></use>
                            <path stroke="#FFFFFF" stroke-width="0.25" d="M1.5826344,154.817718 C1.72882978,153.284171 1.8024856,152.541474 1.89748491,151.679645 L19.4743666,153.695505 C19.4505228,153.915957 19.4271781,154.125437 19.37613,154.580392 C19.3477323,154.833564 19.3477323,154.833564 19.3195713,155.087013 C19.2582179,155.641647 19.2135083,156.071519 19.1759789,156.479803 L1.5826344,154.817718 Z"></path>
                        </g>
                        <g id="Tick-minor-47">
                            <use fill="#455A64" fill-rule="evenodd" xlink:href="#path-51"></use>
                            <path stroke="#FFFFFF" stroke-width="0.25" d="M4.1947264,137.187255 C4.51135257,135.677879 4.66751189,134.947075 4.85835206,134.098591 L22.1172374,137.953547 C22.0716869,138.161281 22.0296216,138.349848 21.9247795,138.818332 C21.7277648,139.698686 21.6243441,140.174327 21.5220873,140.688089 L4.1947264,137.187255 Z"></path>
                        </g>
                        <g id="Tick-minor-48">
                            <use fill="#455A64" fill-rule="evenodd" xlink:href="#path-52"></use>
                            <path stroke="#FFFFFF" stroke-width="0.25" d="M8.65085592,119.934096 C8.94532931,119.006596 9.26681316,118.021805 9.63077753,116.928547 L26.3937143,122.56924 C26.2929214,122.87079 26.0360462,123.639085 25.9512227,123.89475 C25.7850448,124.395625 25.64759,124.817422 25.5197382,125.221094 L8.65085592,119.934096 Z"></path>
                        </g>
                        <g id="Tick-minor-49">
                            <use fill="#455A64" fill-rule="evenodd" xlink:href="#path-53"></use>
                            <path stroke="#FFFFFF" stroke-width="0.25" d="M14.8805741,103.237749 C15.2233789,102.4442 15.5269622,101.760453 16.1597237,100.348587 L32.2497642,107.704035 C32.0341947,108.173557 31.8489254,108.593355 31.4722527,109.457487 C31.2994456,109.853927 31.2080793,110.062981 31.1141952,110.275855 L14.8805741,103.237749 Z"></path>
                        </g>
                        <g id="Tick-minor-50">
                            <use fill="#455A64" fill-rule="evenodd" xlink:href="#path-54"></use>
                            <path stroke="#FFFFFF" stroke-width="0.25" d="M22.8307592,87.2954067 C23.2556317,86.5429484 23.6299747,85.8945221 24.4087836,84.5556978 L39.6326798,93.5556551 C39.2399136,94.220711 38.9072768,94.7977183 38.2327702,95.9778262 L22.8307592,87.2954067 Z"></path>
                        </g>
                        <g id="Tick-minor-51">
                            <use fill="#455A64" fill-rule="evenodd" xlink:href="#path-55"></use>
                            <path stroke="#FFFFFF" stroke-width="0.25" d="M32.3928078,72.2502664 C33.0318659,71.3533991 33.644242,70.5108668 34.2526332,69.6927812 L48.4520469,80.2318229 C47.9912104,80.8564339 47.5997065,81.3980962 46.8044544,82.5064076 L32.3928078,72.2502664 Z"></path>
                        </g>
                        <g id="Tick-minor-52">
                            <use fill="#455A64" fill-rule="evenodd" xlink:href="#path-56"></use>
                            <path stroke="#FFFFFF" stroke-width="0.25" d="M43.476818,58.2989114 C44.062795,57.6308692 44.6016338,57.0346715 45.5858487,55.9585248 L58.600576,67.9122689 C58.3125493,68.2312734 58.0128041,68.5666342 57.6697869,68.9531003 C57.5173055,69.1248961 57.3585796,69.3041731 57.1647094,69.5234847 C56.9422287,69.7752521 56.9151377,69.8059093 56.7391369,70.0051182 L43.476818,58.2989114 Z"></path>
                        </g>
                        <g id="Tick-minor-53">
                            <use fill="#455A64" fill-rule="evenodd" xlink:href="#path-57"></use>
                            <path stroke="#FFFFFF" stroke-width="0.25" d="M55.9585248,45.5858487 C57.0346715,44.6016338 57.6308692,44.062795 58.2989114,43.476818 L70.0051182,56.7391369 C69.8059093,56.9151377 69.7752521,56.9422287 69.5234847,57.1647094 C69.3041731,57.3585796 69.1248961,57.5173055 68.9531003,57.6697869 C68.5666343,58.0128041 68.2312734,58.3125492 67.912269,58.600576 L55.9585248,45.5858487 L55.9585248,45.5858487 Z"></path>
                        </g>
                        <g id="Tick-minor-54">
                            <use fill="#455A64" fill-rule="evenodd" xlink:href="#path-58"></use>
                            <path stroke="#FFFFFF" stroke-width="0.25" d="M69.6927812,34.2526332 C70.5108668,33.644242 71.3533991,33.0318659 72.2502664,32.3928078 L82.5064076,46.8044544 C81.3980962,47.5997065 80.8564339,47.9912104 80.2318229,48.4520469 L69.6927812,34.2526332 Z"></path>
                        </g>
                        <g id="Tick-minor-55">
                            <use fill="#455A64" fill-rule="evenodd" xlink:href="#path-59"></use>
                            <path stroke="#FFFFFF" stroke-width="0.25" d="M84.5556978,24.4087836 C85.8945221,23.6299747 86.5429484,23.2556317 87.2954067,22.8307592 L95.9778262,38.2327702 C94.7977183,38.9072768 94.220711,39.2399136 93.5556551,39.6326798 L84.5556978,24.4087836 Z"></path>
                        </g>
                        <g id="Tick-minor-55">
                            <use fill="#455A64" fill-rule="evenodd" xlink:href="#path-60"></use>
                            <path stroke="#FFFFFF" stroke-width="0.25" d="M84.5556978,24.4087836 C85.8945221,23.6299747 86.5429484,23.2556317 87.2954067,22.8307592 L95.9778262,38.2327702 C94.7977183,38.9072768 94.220711,39.2399136 93.5556551,39.6326798 L84.5556978,24.4087836 Z"></path>
                        </g>
                        <g id="Tick-minor-56">
                            <use fill="#455A64" fill-rule="evenodd" xlink:href="#path-61"></use>
                            <path stroke="#FFFFFF" stroke-width="0.25" d="M100.348587,16.1597237 C101.760453,15.5269622 102.4442,15.2233789 103.237749,14.8805741 L110.275855,31.1141958 C110.062981,31.2080793 109.853927,31.2994456 109.457487,31.4722527 C108.593355,31.8489254 108.173557,32.0341947 107.704034,32.2497622 L100.348587,16.1597237 Z"></path>
                        </g>
                        <g id="Tick-minor-57">
                            <use fill="#455A64" fill-rule="evenodd" xlink:href="#path-62"></use>
                            <path stroke="#FFFFFF" stroke-width="0.25" d="M116.928547,9.63077753 C118.021805,9.26681316 119.006596,8.94532931 119.934096,8.65085592 L125.221094,25.519738 C124.817422,25.6475899 124.395625,25.7850448 123.89475,25.9512227 C123.639085,26.0360462 122.87079,26.2929216 122.56924,26.3937144 L116.928547,9.63077753 Z"></path>
                        </g>
                        <g id="Tick-minor-58">
                            <use fill="#455A64" fill-rule="evenodd" xlink:href="#path-63"></use>
                            <path stroke="#FFFFFF" stroke-width="0.25" d="M134.098591,4.85835206 C134.947075,4.66751189 135.677879,4.51135257 137.187255,4.1947264 L140.688089,21.5220873 C140.174327,21.6243441 139.698686,21.7277648 138.818332,21.9247795 C138.349848,22.0296216 138.161281,22.0716869 137.953547,22.1172374 L134.098591,4.85835206 Z"></path>
                        </g>
                        <g id="Tick-minor-59">
                            <use fill="#455A64" fill-rule="evenodd" xlink:href="#path-64"></use>
                            <path stroke="#FFFFFF" stroke-width="0.25" d="M151.679645,1.89748491 C152.541474,1.8024856 153.284171,1.72882978 154.817718,1.5826344 L156.479803,19.1759786 C156.07152,19.2135083 155.641647,19.2582179 155.087013,19.3195713 C154.833564,19.3477323 154.833564,19.3477323 154.580392,19.37613 C154.125437,19.4271781 153.915957,19.4505228 153.695505,19.4743658 L151.679645,1.89748491 Z"></path>
                        </g>
                    </g>
                    <g id="Major-tickmarks">
                        <path d="M180,0.675235225 C244.072738,0.675235225 303.267843,34.8545354 335.295246,90.3376176 C367.322649,145.8207 367.322649,214.1793 335.295246,269.662382 C303.267843,325.145465 244.072738,359.324765 180,359.324765 C115.927262,359.324765 56.7321567,325.145465 24.7047537,269.662382 C-7.32264928,214.1793 -7.32264928,145.8207 24.7047537,90.3376176 C56.7321567,34.8545354 115.927262,0.675235225 180,0.675235225 L180,36.5401882 C128.748982,36.5401882 81.3893119,63.8872148 55.763803,108.270094 C30.1382941,152.652973 30.1382941,207.347027 55.763803,251.729906 C81.3893119,296.112785 128.748982,323.459812 180,323.459812 C231.251018,323.459812 278.610688,296.112785 304.236197,251.729906 C329.861706,207.347027 329.861706,152.652973 304.236197,108.270094 C278.610688,63.8872148 231.251018,36.5401882 180,36.5401882 L180,0.675235225 Z" id="Base-plate" fill-opacity="0.002" fill="#455A64"></path>
                        <g id="Tick-major-0">
                            <use fill="#F57C00" fill-rule="evenodd" xlink:href="#path-65"></use>
                            <path stroke="#FFFFFF" stroke-width="0.25" d="M176.540974,0.833306104 C178.841618,0.783234107 181.158382,0.783234107 183.459026,0.833306104 L182.746716,36.4487921 C180.910339,36.4159419 179.089661,36.4159419 177.253284,36.4487921 L176.540974,0.833306104 Z"></path>
                        </g>
                        <g id="Tick-major-5">
                            <use fill="#F57C00" fill-rule="evenodd" xlink:href="#path-66"></use>
                            <path stroke="#FFFFFF" stroke-width="0.25" d="M266.591457,23.0989777 C268.404936,24.0935836 270.25975,25.1759019 272.575167,26.576143 L254.162226,57.0447517 C252.75572,56.1967311 251.268634,55.3406648 249.406694,54.2986704 L266.591457,23.0989777 Z"></path>
                        </g>
                        <g id="Tick-major-10">
                            <use fill="#F57C00" fill-rule="evenodd" xlink:href="#path-67"></use>
                            <path stroke="#FFFFFF" stroke-width="0.25" d="M333.423857,87.4248332 C334.824098,89.7402496 335.906416,91.5950636 336.901022,93.4085435 L305.70133,110.593306 C304.659335,108.731366 303.803269,107.24428 302.955248,105.837774 L333.423857,87.4248332 Z"></path>
                        </g>
                        <g id="Tick-major-15">
                            <use fill="#F57C00" fill-rule="evenodd" xlink:href="#path-68"></use>
                            <path stroke="#FFFFFF" stroke-width="0.25" d="M359.166694,176.540974 C359.216766,178.841618 359.216766,181.158382 359.166694,183.459026 L323.551208,182.746716 C323.584058,180.910339 323.584058,179.089661 323.551208,177.253284 L359.166694,176.540974 Z"></path>
                        </g>
                        <g id="Tick-major-20">
                            <use fill="#F57C00" fill-rule="evenodd" xlink:href="#path-69"></use>
                            <path stroke="#FFFFFF" stroke-width="0.25" d="M336.901022,266.591457 C335.906416,268.404936 334.824098,270.25975 333.423857,272.575167 L302.955248,254.162226 C303.803269,252.75572 304.659335,251.268634 305.70133,249.406694 L336.901022,266.591457 Z"></path>
                        </g>
                        <g id="Tick-major-25">
                            <use fill="#F57C00" fill-rule="evenodd" xlink:href="#path-70"></use>
                            <path stroke="#FFFFFF" stroke-width="0.25" d="M272.575167,333.423857 C270.25975,334.824098 268.404936,335.906416 266.591457,336.901022 L249.406694,305.70133 C251.268634,304.659335 252.75572,303.803269 254.162226,302.955248 L272.575167,333.423857 Z"></path>
                        </g>
                        <g id="Tick-major-30">
                            <use fill="#F57C00" fill-rule="evenodd" xlink:href="#path-71"></use>
                            <path stroke="#FFFFFF" stroke-width="0.25" d="M183.459026,359.166694 C181.158382,359.216766 178.841618,359.216766 176.540974,359.166694 L177.253284,323.551208 C179.089661,323.584058 180.910339,323.584058 182.746716,323.551208 L183.459026,359.166694 Z"></path>
                        </g>
                        <g id="Tick-major-35">
                            <use fill="#F57C00" fill-rule="evenodd" xlink:href="#path-72"></use>
                            <path stroke="#FFFFFF" stroke-width="0.25" d="M93.4085435,336.901022 C91.5950636,335.906416 89.7402496,334.824098 87.4248332,333.423857 L105.837774,302.955248 C107.24428,303.803269 108.731366,304.659335 110.593306,305.70133 L93.4085435,336.901022 Z"></path>
                        </g>
                        <g id="Tick-major-40">
                            <use fill="#F57C00" fill-rule="evenodd" xlink:href="#path-73"></use>
                            <path stroke="#FFFFFF" stroke-width="0.25" d="M26.576143,272.575167 C25.1759019,270.25975 24.0935836,268.404936 23.0989777,266.591457 L54.2986703,249.406694 C55.3406649,251.268634 56.1967311,252.75572 57.0447518,254.162226 L26.576143,272.575167 Z"></path>
                        </g>
                        <g id="Tick-major-45">
                            <use fill="#F57C00" fill-rule="evenodd" xlink:href="#path-74"></use>
                            <path stroke="#FFFFFF" stroke-width="0.25" d="M0.833306104,183.459026 C0.783234107,181.158382 0.783234107,178.841618 0.833306104,176.540974 L36.4487921,177.253284 C36.4159419,179.089661 36.4159419,180.910339 36.4487921,182.746716 L0.833306104,183.459026 Z"></path>
                        </g>
                        <g id="Tick-major-50">
                            <use fill="#F57C00" fill-rule="evenodd" xlink:href="#path-75"></use>
                            <path stroke="#FFFFFF" stroke-width="0.25" d="M23.0989777,93.4085435 C24.0935836,91.5950636 25.1759019,89.7402496 26.576143,87.4248332 L57.0447517,105.837774 C56.1967311,107.24428 55.3406648,108.731366 54.2986704,110.593306 L23.0989777,93.4085435 Z"></path>
                        </g>
                        <g id="Tick-major-55">
                            <use fill="#F57C00" fill-rule="evenodd" xlink:href="#path-76"></use>
                            <path stroke="#FFFFFF" stroke-width="0.25" d="M87.4248332,26.576143 C89.7402496,25.1759019 91.5950636,24.0935836 93.4085435,23.0989777 L110.593306,54.2986703 C108.731366,55.3406649 107.24428,56.1967311 105.837774,57.0447518 L87.4248332,26.576143 Z"></path>
                        </g>
                    </g>
                </g>
                <g id="Segment-1">
                    <use fill="url(#linearGradient-77)" fill-rule="evenodd" xlink:href="#path-78"></use>
                    <path stroke="#FFFFFF" stroke-width="0.25" d="M182.640528,34.2244343 C232.32283,34.2684663 278.215667,60.5613577 303.089501,103.230516 L182.640528,172.23774 L182.640528,34.2244343 Z"></path>
                </g>
            </g>
        </g>
    </g>
</svg>