<?xml version="1.0" encoding="UTF-8" standalone="no"?>
<svg width="512px" height="512px" viewBox="0 0 512 512" version="1.1" xmlns="http://www.w3.org/2000/svg" xmlns:xlink="http://www.w3.org/1999/xlink">
    <!-- Generator: Sketch 43.1 (39012) - http://www.bohemiancoding.com/sketch -->
    <title>swift icon</title>
    <desc>Created with Sketch.</desc>
    <defs>
        <linearGradient x1="48.3081043%" y1="100%" x2="48.3081043%" y2="0%" id="linearGradient-1">
            <stop stop-color="#FBAD3F" offset="0%"></stop>
            <stop stop-color="#FF3727" offset="100%"></stop>
        </linearGradient>
        <path d="M174.079997,0 C117.333333,0 99.2,-3.98359892e-08 73.6,8.53333333 C43.434668,19.2 19.2,43.434668 8.53333333,73.6 C0,99.2 0,117.333333 0,174.079997 C0,174.079997 3.16925101e-07,337.919987 0,337.919987 C3.16925101e-07,394.666667 2.54291778e-07,412.8 8.53333333,438.4 C19.2197917,468.565332 43.434668,492.8 73.6,503.466667 C99.2,512 117.333333,512 174.079997,512 L337.919987,512 C394.666667,512 412.8,512 438.4,503.466667 C468.565332,492.8 492.8,468.565332 503.466667,438.4 C512,412.8 512,394.666667 512,337.919987 L512,174.079997 C512,117.333333 512,99.2 503.466667,73.6 C492.8,43.7333333 468.223991,19.2 438.357324,8.53333333 C412.757324,2.39057651e-08 394.666667,9.00544061e-08 337.919987,0 C367.786654,9.00544061e-08 174.079997,0 174.079997,0 Z" id="path-2"></path>
        <linearGradient x1="38.7655566%" y1="7.87218813%" x2="94.1337977%" y2="44.9231225%" id="linearGradient-4">
            <stop stop-color="#FBAD3F" offset="0%"></stop>
            <stop stop-color="#EB652F" offset="60.1368354%"></stop>
            <stop stop-color="#CE4521" offset="100%"></stop>
        </linearGradient>
    </defs>
    <g id="Page-1" stroke="none" stroke-width="1" fill="none" fill-rule="evenodd">
        <g id="512">
            <g id="swift-icon">
                <mask id="mask-3" fill="white">
                    <use xlink:href="#path-2"></use>
                </mask>
                <use id="iconbase" fill="url(#linearGradient-1)" transform="translate(256.000000, 256.000000) scale(-1, -1) translate(-256.000000, -256.000000) " xlink:href="#path-2"></use>
                <rect id="shdw-2" fill="url(#linearGradient-4)" mask="url(#mask-3)" transform="translate(112.104985, 127.522996) rotate(44.000000) translate(-112.104985, -127.522996) " x="-150.51391" y="-34.0770042" width="525.23779" height="323.2" rx="161.6"></rect>
                <path d="M291.5,76 C454.7,181.6 404.799994,314.4 404.799994,314.4 C404.799994,314.4 422.399994,334.4 431.199994,359.2 C439.999994,384 439.90303,414.4 438.30303,415.2 C436.70303,416 416.073341,380.8 379.999994,380.8 C343.926646,380.8 325.599981,415.2 261.599994,415.2 C117.497774,415.2 55,297.000003 55,297.000003 C55,297.000003 118.4,342.4 184.800006,340.8 C251.200012,339.2 269.599994,320 269.599994,320 C269.599994,320 239.910324,295.156721 188.8,245.2 C137.689676,195.243279 89.6,126.4 89.6,126.4 C89.6,126.4 166.645428,187.462295 191.358112,205.424262 C216.070796,223.38623 240.783481,239.664262 240.783481,239.664262 C240.783481,239.664262 216.849558,213.84394 200,193.075415 C183.150442,172.30689 140,109.6 140,109.6 C140,109.6 206.180531,169.35082 236.290265,193.07541 C266.4,216.8 324,256.8 324,256.8 C324,256.8 358.7,177.6 291.5,76 Z" id="countour" fill="#FFFFFF" mask="url(#mask-3)"></path>
            </g>
        </g>
    </g>
</svg>