<?xml version="1.0" encoding="UTF-8" standalone="no"?>
<svg width="485px" height="479px" viewBox="0 0 485 479" version="1.1" xmlns="http://www.w3.org/2000/svg" xmlns:xlink="http://www.w3.org/1999/xlink">
    <!-- Generator: Sketch 43.1 (39012) - http://www.bohemiancoding.com/sketch -->
    <title>Group 2</title>
    <desc>Created with Sketch.</desc>
    <defs>
        <linearGradient x1="50%" y1="0%" x2="50%" y2="100%" id="linearGradient-1">
            <stop stop-color="#57C5FA" offset="0%"></stop>
            <stop stop-color="#0A7BF3" offset="100%"></stop>
        </linearGradient>
        <rect id="path-2" x="0" y="0" width="423" height="340"></rect>
        <filter x="-2.5%" y="-2.8%" width="105.4%" height="106.8%" filterUnits="objectBoundingBox" id="filter-3">
            <feOffset dx="1" dy="2" in="SourceAlpha" result="shadowOffsetOuter1"></feOffset>
            <feGaussianBlur stdDeviation="3.5" in="shadowOffsetOuter1" result="shadowBlurOuter1"></feGaussianBlur>
            <feColorMatrix values="0 0 0 0 0   0 0 0 0 0   0 0 0 0 0  0 0 0 0.5 0" type="matrix" in="shadowBlurOuter1"></feColorMatrix>
        </filter>
        <linearGradient x1="42.6118523%" y1="0%" x2="42.6118523%" y2="237.873573%" id="linearGradient-4">
            <stop stop-color="#FFFFFF" offset="0%"></stop>
            <stop stop-color="#94DDFF" offset="100%"></stop>
        </linearGradient>
        <linearGradient x1="39.942937%" y1="100%" x2="64.3101275%" y2="-8.63996018%" id="linearGradient-5">
            <stop stop-color="#E9F2F8" offset="0%"></stop>
            <stop stop-color="#DFEDF6" offset="100%"></stop>
        </linearGradient>
        <path d="M98.3502364,-0.417531096 L98.3502368,13.8398618 L114.175873,13.9877509 L114.175874,11.849973 L128.345511,11.849973 C127.12115,13.4977937 117.788472,21.8353572 114.175874,23.350671 C109.558135,25.2875936 98.7501334,24.6026963 98.7501334,24.6026963 L98.5637458,59.6121172 C98.5637458,59.6121172 109.858472,59.1334282 114.175874,61.063256 C119.37506,63.387231 127.231166,69.5568657 127.113509,72.3735256 L113.703422,72.3735256 L113.703422,70.4455354 L99.4460516,70.4455384 L99.4460516,85.8984795 L104.601648,85.8984795 C108.725098,85.8984795 112.076727,89.2456218 112.076727,93.3745312 L112.076727,173.494389 C112.076727,178.582513 107.95209,182.711476 102.864094,182.711476 L99.4460516,182.711476 L98.3502364,402.751536 L87.9780205,402.751536 L88.4211892,465.774512 L79.7284638,465.774512 L79.7284628,403.37043 L75.1556287,403.37043 C71.3351331,403.37043 68.241811,400.278076 68.241811,396.463465 L68.2418138,182.71147 C68.2418138,182.71147 56.5412059,183.656095 49.7087064,180.114981 C47.3969847,178.916874 41.9283112,171.3551 43.9742806,165.211445 C46.5605778,157.445289 57.1751807,150.913507 57.1751807,150.913507 L56.734279,109.624263 C56.734279,109.624263 18.4526164,101.402815 4.54197476,94.9136433 C0.547365619,93.0501989 2.08259541,84.0655066 2.08259541,84.0655066 L50.5683988,84.0655066 L50.5683988,85.8984795 L68.2418109,85.8984795 L68.2418109,31.1284564 L70.6967491,31.1284564 L70.6967491,23.350671 L68.2418109,23.350671 L51.0202636,23.350671 L51.0202636,26.3132607 L0.00593044753,26.3132607 C0.00593044753,26.3132607 -0.274336247,17.8967133 3.01852509,16.5553075 C21.5984369,8.98644936 65.6242499,-0.417531096 65.6242499,-0.417531096 L98.3502364,-0.417531096 Z M99,92 L99,176 L103,176 C105.209139,176 107,174.206679 107,172.005016 L107,95.9949844 C107,93.7886154 105.204644,92 103,92 L99,92 Z" id="path-6"></path>
        <filter x="-137.0%" y="-3.8%" width="374.4%" height="108.0%" filterUnits="objectBoundingBox" id="filter-7">
            <feMorphology radius="0.6" operator="dilate" in="SourceAlpha" result="shadowSpreadOuter1"></feMorphology>
            <feOffset dx="-1" dy="1" in="shadowSpreadOuter1" result="shadowOffsetOuter1"></feOffset>
            <feGaussianBlur stdDeviation="5.5" in="shadowOffsetOuter1" result="shadowBlurOuter1"></feGaussianBlur>
            <feComposite in="shadowBlurOuter1" in2="SourceAlpha" operator="out" result="shadowBlurOuter1"></feComposite>
            <feColorMatrix values="0 0 0 0 0   0 0 0 0 0   0 0 0 0 0  0 0 0 0.5 0" type="matrix" in="shadowBlurOuter1"></feColorMatrix>
        </filter>
        <linearGradient x1="172.876728%" y1="44.6367764%" x2="-37.6543088%" y2="3.36216078%" id="linearGradient-8">
            <stop stop-color="#E4E6E7" offset="0%"></stop>
            <stop stop-color="#DFEDF6" offset="100%"></stop>
        </linearGradient>
    </defs>
    <g id="Page-1" stroke="none" stroke-width="1" fill="none" fill-rule="evenodd">
        <g id="Group-2" transform="translate(5.000000, -7.000000)">
            <g id="Main-background" transform="translate(235.500000, 258.000000) rotate(-9.000000) translate(-235.500000, -258.000000) translate(24.000000, 88.000000)">
                <g id="Rectangle-1">
                    <use fill="black" fill-opacity="1" filter="url(#filter-3)" xlink:href="#path-2"></use>
                    <use fill="url(#linearGradient-1)" fill-rule="evenodd" xlink:href="#path-2"></use>
                </g>
            </g>
            <g id="Sub-sketches" transform="translate(234.000000, 237.000000) rotate(-9.000000) translate(-234.000000, -237.000000) translate(62.000000, 100.000000)" opacity="0.6">
                <g id="Group" transform="translate(128.000000, 53.000000)">
                    <circle id="Oval-4" stroke="#83D2FC" cx="7.5" cy="13.5" r="4.5"></circle>
                    <circle id="Oval-5" stroke="#83D2FC" cx="35.5" cy="27.5" r="4.5"></circle>
                    <circle id="Oval-6" stroke="#94DDFF" cx="23.5" cy="7.5" r="4.5"></circle>
                    <circle id="Oval-7" stroke="#94DDFF" cx="32.5" cy="12.5" r="4.5"></circle>
                    <path d="M16.5,12.5 L13.5,1.5" id="Line" stroke="#94DDFF" stroke-linecap="square"></path>
                    <path d="M0.5,9.5 L14.5,17.5" id="Line" stroke="#94DDFF" stroke-linecap="square"></path>
                    <path d="M27.5,23.5 L43.5,32.5" id="Line" stroke="#94DDFF" stroke-linecap="square"></path>
                    <path d="M19.5,14.5 L27.5,0.5" id="Line" stroke="#94DDFF" stroke-linecap="square"></path>
                    <path d="M31.5,20.5 L42.5,18.5" id="Line" stroke="#94DDFF" stroke-linecap="square"></path>
                    <path d="M28.5,19.5 L36.5,5.5" id="Final" stroke="#94DDFF" stroke-linecap="square"></path>
                </g>
                <g id="Group" transform="translate(169.000000, 27.500000) rotate(-62.000000) translate(-169.000000, -27.500000) translate(147.000000, 11.000000)">
                    <circle id="Oval-11" stroke="#83D2FC" cx="7.5" cy="13.5" r="4.5"></circle>
                    <circle id="Oval-8" stroke="#83D2FC" cx="35.5" cy="27.5" r="4.5"></circle>
                    <circle id="Oval-9" stroke="#94DDFF" cx="23.5" cy="7.5" r="4.5"></circle>
                    <circle id="Oval-10" stroke="#94DDFF" cx="32.5" cy="12.5" r="4.5"></circle>
                    <path d="M16.5,12.5 L13.5,1.5" id="Line-6" stroke="#94DDFF" stroke-linecap="square"></path>
                    <path d="M0.5,9.5 L14.5,17.5" id="Line-7" stroke="#94DDFF" stroke-linecap="square"></path>
                    <path d="M27.5,23.5 L43.5,32.5" id="Line-8" stroke="#94DDFF" stroke-linecap="square"></path>
                    <path d="M19.5,14.5 L27.5,0.5" id="Line-9" stroke="#94DDFF" stroke-linecap="square"></path>
                    <path d="M31.5,20.5 L42.5,18.5" id="Line-10" stroke="#94DDFF" stroke-linecap="square"></path>
                    <path d="M28.5,19.5 L36.5,5.5" id="Final-2" stroke="#94DDFF" stroke-linecap="square"></path>
                </g>
                <path d="M236.5,183.5 L207.5,133.5" id="Line" stroke="#94DDFF" stroke-linecap="square"></path>
                <path d="M291.5,183.5 L262.5,133.5" id="Line-4" stroke="#94DDFF" stroke-linecap="square"></path>
                <path d="M252.5,211.5 L291.5,187.5" id="Line" stroke="#94DDFF" stroke-linecap="square"></path>
                <path d="M257.5,216.5 L296.5,192.5" id="Line-5" stroke="#94DDFF" stroke-linecap="square"></path>
                <path d="M176.5,8.5 L325.5,253.5" id="Line" stroke="#94DDFF" stroke-linecap="square"></path>
                <path d="M144.5,10.5 L260.5,206.5" id="Line-6" stroke="#94DDFF" stroke-linecap="square"></path>
                <path d="M55.5,182.5 L85.5,133.5" id="Line" stroke="#94DDFF" stroke-linecap="square"></path>
                <path d="M113.5,182.5 L145.5,130.5" id="Line-3" stroke="#94DDFF" stroke-linecap="square"></path>
                <path d="M35.5,207.5 L85.5,236.5" id="Line" stroke="#94DDFF" stroke-linecap="square"></path>
                <path d="M33.5,263.5 L30.5,273.5" id="Line" stroke="#94DDFF" stroke-linecap="square"></path>
                <path d="M25.5,273.5 L38.5,262.5" id="Line" stroke="#94DDFF" stroke-linecap="square"></path>
                <path d="M39.5,199.5 L89.5,228.5" id="Line-2" stroke="#94DDFF" stroke-linecap="square"></path>
                <path d="M20.4128722,128.86988 L20.4128722,185.420328" id="Path-15" stroke="#94DDFF"></path>
                <path d="M326.412872,128.86988 L326.412872,185.420328" id="Path-16" stroke="#94DDFF"></path>
                <path d="M-0.484867255,141.46628 L343.763386,141.152698" id="Path-13" stroke="#94DDFF"></path>
                <path d="M-0.484867255,171.46628 L343.763386,171.152698" id="Path-14" stroke="#94DDFF"></path>
                <path d="M26.5,248.5 L147.5,47.5" id="Path-17" stroke="#94DDFF"></path>
                <path d="M60.5,250.5 L172.5,66.5" id="Path-18" stroke="#94DDFF"></path>
            </g>
            <g id="Main-sketch" transform="translate(235.500000, 238.000000) rotate(-9.000000) translate(-235.500000, -238.000000) translate(82.000000, 108.000000)" stroke="#FFFFFF" stroke-width="3">
                <path d="M191.747836,133 L118.645116,133 L100.426598,164 L210.292057,164 L191.747836,133 Z M247.81468,133 L307,133 L307,164 L265.919464,164 L247.81468,133 Z M60.7679934,133 L0,133 L0,164 L41.696613,164 L60.7679934,133 Z" id="Rectangle-4"></path>
                <rect id="Rectangle-5" transform="translate(80.500000, 147.500000) rotate(31.000000) translate(-80.500000, -147.500000) " x="65" y="78" width="31" height="139"></rect>
                <path d="M125.007591,52 C118.375982,52 113,57.3643972 113,64.0075909 L113,83 L144,83 L144,64.0075909 C144,57.3759816 138.635603,52 131.992409,52 L125.007591,52 Z" id="Rectangle-8" transform="translate(128.500000, 67.500000) rotate(31.000000) translate(-128.500000, -67.500000) "></path>
                <rect id="Rectangle-6" transform="translate(80.750000, 147.500000) rotate(31.000000) translate(-80.750000, -147.500000) " x="65" y="78" width="31.5" height="139"></rect>
                <polygon id="Path-9" points="27.530841 207.182771 53.7540699 221.926078 12.3014769 259.740587"></polygon>
                <path d="M272.997039,240.606855 C265.669052,233.150535 256.381275,231.68584 251.897093,225.17163 C248.000979,219.511714 243.797601,204.182945 243.797601,204.182945 L268.074538,189.784956 C268.074538,189.784956 275.58253,190.950282 282.708331,200.588052 C286.040263,205.094548 292.459884,219.202466 292.350083,233.319455 C292.24645,246.643496 287.173518,258.854092 285.701358,260.141927 C284.229199,261.429762 281.186427,248.939662 272.997039,240.606855 Z" id="Path-10"></path>
                <path d="M215.5,205.5 L184.5,205.5 L184.5,6.00428604 C184.5,0.201021123 189.199735,-4.5 194.999086,-4.5 L205.000914,-4.5 C210.801499,-4.5 215.5,0.201493847 215.5,6.00428604 L215.5,205.5 Z" id="Rectangle-7" transform="translate(200.000000, 100.500000) rotate(-31.000000) translate(-200.000000, -100.500000) "></path>
            </g>
            <g id="Layout" transform="translate(235.500000, 257.500000) rotate(-9.000000) translate(-235.500000, -257.500000) translate(42.000000, 104.000000)" stroke="#FFFFFF" stroke-width="3">
                <rect id="Rectangle-3" x="0" y="276" width="387" height="31"></rect>
                <rect id="Rectangle-2" x="0" y="0" width="387" height="307"></rect>
            </g>
            <g id="Apple-logo" transform="translate(82.500000, 418.000000) rotate(-9.000000) translate(-82.500000, -418.000000) translate(71.000000, 406.000000)">
                <path d="M8.65916345,7.84777971 C8.65193985,7.73530252 8.64826022,7.62166493 8.64826022,7.50702026 C8.64826022,5.04922252 10.9336192,3.0626129 12.9858747,3.04135135 C13.1277042,5.24898006 11.4187532,7.85061584 8.84026622,7.85061584 C8.77962163,7.85061584 8.7192471,7.84966501 8.65916345,7.84777971 Z" id="Oval-2" fill="#FFFFFF"></path>
                <path d="M16.6485398,10.3010064 C16.1244166,9.72835217 15.564982,9.1780212 15.0145785,8.74303652 C14.0923785,8.01422048 12.6059254,8.06252604 12.3741057,8.087428 C10.8197377,8.25439747 9.4579119,9.06576459 8.83757374,9.06576458 C8.28177856,9.06576457 7.04819592,8.41754456 5.83564702,8.21341515 C5.04333232,8.08003106 4.3110463,8.21341515 3.64003145,8.4828422 C1.11855184,9.49527108 -0.348266948,12.101564 0.0680448434,15.7921696 C0.348542268,18.2787803 2.36088162,22.9080985 4.99098203,23.9468647 C5.12696744,24.0005725 5.640425,24.066159 6.34338252,23.8719817 C7.16756728,23.6443179 7.89256647,23.1461105 9.09835396,23.1461105 C10.2615524,23.1461105 11.0350357,23.6435574 11.7813026,23.8719817 C12.3013181,24.0311529 13.1631361,23.9468647 13.1631361,23.9468647 C13.1631361,23.9468647 15.1289107,23.4221913 16.7433735,19.9703612 C16.9924964,19.4377197 17.2244062,18.9177165 17.4384834,18.4191337 C15.7560072,17.8284626 14.5424293,16.1499847 14.5424293,14.1716069 C14.5424293,12.5191191 15.3891217,11.0758664 16.6485398,10.3010064 Z" id="Path-1" fill="url(#linearGradient-4)"></path>
            </g>
            <g id="XCODE" transform="translate(399.500000, 371.000000) rotate(-9.000000) translate(-399.500000, -371.000000) translate(357.000000, 361.000000)" fill="#FFFFFF">
                <path d="M6.2,9.47064926 L0.325,0.180153949 L3.175,0.180153949 L7.625,7.65003347 L12.275,0.180153949 L14.925,0.180153949 L9.025,9.47064926 L15.3,19.2966198 L12.4,19.2966198 L7.6,11.3983601 L2.65,19.2966198 L0,19.2966198 L6.2,9.47064926 Z M29.775,5.93651272 C29.508332,4.57996867 28.9208379,3.5625759 28.0125,2.88430388 C27.1041621,2.20603186 26.0250063,1.86690094 24.775,1.86690094 C23.708328,1.86690094 22.7958371,2.08108889 22.0375,2.50947122 C21.2791629,2.93785355 20.6541691,3.51348367 20.1625,4.23637885 C19.6708309,4.95927403 19.3083345,5.78479009 19.075,6.71295181 C18.8416655,7.64111352 18.725,8.6049593 18.725,9.60451807 C18.725,10.6933232 18.8416655,11.7241027 19.075,12.6968876 C19.3083345,13.6696724 19.6708309,14.5174997 20.1625,15.2403949 C20.6541691,15.9632901 21.2833295,16.5389202 22.05,16.9673025 C22.8166705,17.3956849 23.733328,17.6098728 24.8,17.6098728 C25.5833372,17.6098728 26.2791636,17.4715431 26.8875,17.1948795 C27.4958364,16.9182159 28.0208311,16.5344625 28.4625,16.0436078 C28.9041689,15.552753 29.2499988,14.9681984 29.5,14.2899264 C29.7500012,13.6116544 29.8999998,12.8798455 29.95,12.0944779 L32.325,12.0944779 C32.0916655,14.5041285 31.3166733,16.3782731 30,17.7169679 C28.6833267,19.0556627 26.8833447,19.725 24.6,19.725 C23.2166597,19.725 22.0083385,19.4706518 20.975,18.9619478 C19.9416615,18.4532438 19.0833367,17.7526707 18.4,16.8602075 C17.7166633,15.9677443 17.2041684,14.9146535 16.8625,13.7009036 C16.5208316,12.4871537 16.35,11.184177 16.35,9.7919344 C16.35,8.39969183 16.5333315,7.09225288 16.9,5.86957831 C17.2666685,4.64690375 17.8041631,3.58042624 18.5125,2.67011379 C19.2208369,1.75980134 20.1041614,1.04137925 21.1625,0.514825971 C22.2208386,-0.0117273092 23.4333265,-0.275 24.8,-0.275 C25.733338,-0.275 26.6166625,-0.14113253 27.45,0.126606426 C28.2833375,0.394345382 29.0249968,0.787023293 29.675,1.30465194 C30.3250033,1.82228059 30.8666645,2.46930669 31.3,3.24574967 C31.7333355,4.02219264 32.016666,4.91910469 32.15,5.93651272 L29.775,5.93651272 Z M34.275,9.73838688 C34.275,8.43539063 34.4541649,7.18149866 34.8125,5.97667336 C35.1708351,4.77184806 35.7083297,3.70537055 36.425,2.77720884 C37.1416703,1.84904712 38.033328,1.10831379 39.1,0.554986613 C40.166672,0.00165943775 41.4083262,-0.275 42.825,-0.275 C44.2416738,-0.275 45.483328,0.00165943775 46.55,0.554986613 C47.616672,1.10831379 48.5083298,1.84904712 49.225,2.77720884 C49.9416703,3.70537055 50.4791649,4.77184806 50.8375,5.97667336 C51.1958351,7.18149866 51.375,8.43539063 51.375,9.73838688 C51.375,11.0413831 51.1958351,12.2952751 50.8375,13.5001004 C50.4791649,14.7049257 49.9416703,15.7714032 49.225,16.6995649 C48.5083298,17.6277266 47.616672,18.3639977 46.55,18.9084003 C45.483328,19.4528028 44.2416738,19.725 42.825,19.725 C41.4083262,19.725 40.166672,19.4528028 39.1,18.9084003 C38.033328,18.3639977 37.1416703,17.6277266 36.425,16.6995649 C35.7083297,15.7714032 35.1708351,14.7049257 34.8125,13.5001004 C34.4541649,12.2952751 34.275,11.0413831 34.275,9.73838688 Z M36.65,9.73838688 C36.65,10.7022471 36.7666655,11.6527062 37,12.5897925 C37.2333345,13.5268788 37.5999975,14.3702439 38.1,15.119913 C38.6000025,15.8695821 39.2416628,16.4719857 40.025,16.9271419 C40.8083373,17.3822981 41.7416612,17.6098728 42.825,17.6098728 C43.9083387,17.6098728 44.8416627,17.3822981 45.625,16.9271419 C46.4083373,16.4719857 47.0499975,15.8695821 47.55,15.119913 C48.0500025,14.3702439 48.4166655,13.5268788 48.65,12.5897925 C48.8833345,11.6527062 49,10.7022471 49,9.73838688 C49,8.77452664 48.8833345,7.8240676 48.65,6.88698126 C48.4166655,5.94989491 48.0500025,5.10652985 47.55,4.35686078 C47.0499975,3.6071917 46.4083373,3.00478809 45.625,2.54963186 C44.8416627,2.09447564 43.9083387,1.86690094 42.825,1.86690094 C41.7416612,1.86690094 40.8083373,2.09447564 40.025,2.54963186 C39.2416628,3.00478809 38.6000025,3.6071917 38.1,4.35686078 C37.5999975,5.10652985 37.2333345,5.94989491 37,6.88698126 C36.7666655,7.8240676 36.65,8.77452664 36.65,9.73838688 Z M54.275,0.180153949 L60.4,0.180153949 C63.1500137,0.180153949 65.2666592,0.92981178 66.75,2.42914993 C68.2333408,3.92848809 68.975,6.21315957 68.975,9.28323293 C68.975,10.8896667 68.808335,12.3131241 68.475,13.5536479 C68.141665,14.7941718 67.6250035,15.838338 66.925,16.686178 C66.2249965,17.5340181 65.3333387,18.1810442 64.25,18.6272758 C63.1666613,19.0735074 61.8833408,19.2966198 60.4,19.2966198 L54.275,19.2966198 L54.275,0.180153949 Z M56.65,17.1547189 L60.6,17.1547189 C60.866668,17.1547189 61.199998,17.1324076 61.6,17.0877845 C62.000002,17.0431613 62.4249977,16.9360673 62.875,16.7664993 C63.3250023,16.5969313 63.7708311,16.3515076 64.2125,16.0302209 C64.6541689,15.7089341 65.0499983,15.2716337 65.4,14.7183066 C65.7500018,14.1649794 66.0374989,13.4733308 66.2625,12.64334 C66.4875011,11.8133493 66.6,10.8093432 66.6,9.63129183 C66.6,8.48893896 66.4958344,7.46708394 66.2875,6.56569612 C66.0791656,5.6643083 65.7375024,4.89680147 65.2625,4.26315261 C64.7874976,3.62950375 64.1750037,3.14758086 63.425,2.81736948 C62.6749963,2.4871581 61.7500055,2.32205489 60.65,2.32205489 L56.65,2.32205489 L56.65,17.1547189 Z M71.875,0.180153949 L84.2,0.180153949 L84.2,2.32205489 L74.25,2.32205489 L74.25,8.3996988 L83.525,8.3996988 L83.525,10.5415997 L74.25,10.5415997 L74.25,17.1547189 L84.275,17.1547189 L84.275,19.2966198 L71.875,19.2966198 L71.875,0.180153949 Z"></path>
            </g>
            <g id="Shape" transform="translate(317.056546, 244.234231) rotate(17.000000) translate(-317.056546, -244.234231) translate(253.056546, 11.234231)">
                <g id="Path-49">
                    <use fill="black" fill-opacity="1" filter="url(#filter-7)" xlink:href="#path-6"></use>
                    <use stroke="#979797" stroke-width="0.2" fill="url(#linearGradient-5)" fill-rule="evenodd" xlink:href="#path-6"></use>
                </g>
                <g id="Cm" transform="translate(61.000000, 58.000000)" stroke="#979797" stroke-width="0.6" stroke-linecap="square">
                    <path d="M7.66666667,0.3 L17.6666667,0.3" id="Line"></path>
                    <path d="M7.66666667,4.3 L11.6666667,4.3" id="Line"></path>
                    <path d="M7.66666667,8.3 L11.6666667,8.3" id="Line-2"></path>
                    <path d="M7.66666667,12.3 L11.6666667,12.3" id="Line-3"></path>
                    <path d="M7.66666667,16.3 L11.6666667,16.3" id="Line-4"></path>
                    <path d="M7.66666667,20.3 L17.6666667,20.3" id="Line"></path>
                    <path d="M7.66666667,24.3 L11.6666667,24.3" id="Line"></path>
                    <path d="M7.66666667,28.3 L11.6666667,28.3" id="Line-2"></path>
                    <path d="M7.66666667,32.3 L11.6666667,32.3" id="Line-3"></path>
                    <path d="M7.66666667,36.3 L11.6666667,36.3" id="Line-4"></path>
                    <path d="M7.66666667,40.3 L17.6666667,40.3" id="Line"></path>
                    <path d="M7.66666667,44.3 L11.6666667,44.3" id="Line"></path>
                    <path d="M7.66666667,48.3 L11.6666667,48.3" id="Line-2"></path>
                    <path d="M7.66666667,52.3 L11.6666667,52.3" id="Line-3"></path>
                    <path d="M7.66666667,56.3 L11.6666667,56.3" id="Line-4"></path>
                    <path d="M7.66666667,60.3 L17.6666667,60.3" id="Line"></path>
                    <path d="M7.66666667,64.3 L11.6666667,64.3" id="Line"></path>
                    <path d="M7.66666667,68.3 L11.6666667,68.3" id="Line-2"></path>
                    <path d="M7.66666667,72.3 L11.6666667,72.3" id="Line-3"></path>
                    <path d="M7.66666667,76.3 L11.6666667,76.3" id="Line-4"></path>
                    <path d="M7.66666667,80.3 L17.6666667,80.3" id="Line"></path>
                    <path d="M7.66666667,84.3 L11.6666667,84.3" id="Line"></path>
                    <path d="M7.66666667,88.3 L11.6666667,88.3" id="Line-2"></path>
                    <path d="M7.66666667,92.3 L11.6666667,92.3" id="Line-3"></path>
                    <path d="M7.66666667,96.3 L11.6666667,96.3" id="Line-4"></path>
                    <path d="M7.66666667,100.3 L17.6666667,100.3" id="Line"></path>
                    <path d="M7.66666667,104.3 L11.6666667,104.3" id="Line"></path>
                    <path d="M7.66666667,108.3 L11.6666667,108.3" id="Line-2"></path>
                    <path d="M7.66666667,112.3 L11.6666667,112.3" id="Line-3"></path>
                    <path d="M7.66666667,116.3 L11.6666667,116.3" id="Line-4"></path>
                    <g id="Group" transform="translate(4.666667, 74.500000) scale(-1, 1) translate(-4.666667, -74.500000) translate(-0.666667, 32.000000)">
                        <path d="M0.333333333,0.3 L4.33333333,0.3" id="Line-4"></path>
                        <path d="M0.333333333,4.3 L4.33333333,4.3" id="Line-5"></path>
                        <path d="M0.333333333,8.3 L10.3333333,8.3" id="Line-2"></path>
                        <path d="M0.333333333,12.3 L4.33333333,12.3" id="Line-2"></path>
                        <path d="M0.333333333,16.3 L4.33333333,16.3" id="Line-3"></path>
                        <path d="M0.333333333,20.3 L4.33333333,20.3" id="Line-4"></path>
                        <path d="M0.333333333,24.3 L4.33333333,24.3" id="Line-5"></path>
                        <path d="M0.333333333,28.3 L10.3333333,28.3" id="Line-2"></path>
                        <path d="M0.333333333,32.3 L4.33333333,32.3" id="Line-2"></path>
                        <path d="M0.333333333,36.3 L4.33333333,36.3" id="Line-3"></path>
                        <path d="M0.333333333,40.3 L4.33333333,40.3" id="Line-4"></path>
                        <path d="M0.333333333,44.3 L4.33333333,44.3" id="Line-5"></path>
                        <path d="M0.333333333,48.3 L10.3333333,48.3" id="Line-2"></path>
                        <path d="M0.333333333,52.3 L4.33333333,52.3" id="Line-2"></path>
                        <path d="M0.333333333,56.3 L4.33333333,56.3" id="Line-3"></path>
                        <path d="M0.333333333,60.3 L4.33333333,60.3" id="Line-4"></path>
                        <path d="M0.333333333,64.3 L4.33333333,64.3" id="Line-5"></path>
                        <path d="M0.333333333,68.3 L10.3333333,68.3" id="Line-2"></path>
                        <path d="M0.333333333,72.3 L4.33333333,72.3" id="Line-2"></path>
                        <path d="M0.333333333,76.3 L4.33333333,76.3" id="Line-3"></path>
                        <path d="M0.333333333,80.3 L4.33333333,80.3" id="Line-4"></path>
                        <path d="M0.333333333,84.3 L4.33333333,84.3" id="Line-5"></path>
                    </g>
                    <path d="M7.66666667,120.3 L17.6666667,120.3" id="Line"></path>
                    <path d="M7.66666667,124.3 L11.6666667,124.3" id="Line"></path>
                    <path d="M7.66666667,128.3 L11.6666667,128.3" id="Line-2"></path>
                    <path d="M7.66666667,132.3 L11.6666667,132.3" id="Line-3"></path>
                    <path d="M7.66666667,136.3 L11.6666667,136.3" id="Line-4"></path>
                    <path d="M7.66666667,140.3 L17.6666667,140.3" id="Line"></path>
                    <path d="M7.66666667,144.3 L11.6666667,144.3" id="Line"></path>
                    <path d="M7.66666667,148.3 L11.6666667,148.3" id="Line-2"></path>
                    <path d="M7.66666667,152.3 L11.6666667,152.3" id="Line-3"></path>
                    <path d="M7.66666667,156.3 L11.6666667,156.3" id="Line-4"></path>
                    <path d="M7.66666667,160.3 L17.6666667,160.3" id="Line"></path>
                    <path d="M7.66666667,164.3 L11.6666667,164.3" id="Line"></path>
                    <path d="M7.66666667,168.3 L11.6666667,168.3" id="Line-2"></path>
                    <path d="M7.66666667,172.3 L11.6666667,172.3" id="Line-3"></path>
                    <path d="M7.66666667,176.3 L11.6666667,176.3" id="Line-4"></path>
                    <path d="M7.66666667,180.3 L17.6666667,180.3" id="Line"></path>
                    <path d="M7.66666667,184.3 L11.6666667,184.3" id="Line"></path>
                    <path d="M7.66666667,188.3 L11.6666667,188.3" id="Line-2"></path>
                    <path d="M7.66666667,192.3 L11.6666667,192.3" id="Line-3"></path>
                    <path d="M7.66666667,196.3 L11.6666667,196.3" id="Line-4"></path>
                    <path d="M7.66666667,200.3 L17.6666667,200.3" id="Line"></path>
                    <path d="M7.66666667,204.3 L11.6666667,204.3" id="Line"></path>
                    <path d="M7.66666667,208.3 L11.6666667,208.3" id="Line-2"></path>
                    <path d="M7.66666667,212.3 L11.6666667,212.3" id="Line-3"></path>
                    <path d="M7.66666667,216.3 L11.6666667,216.3" id="Line-4"></path>
                    <path d="M7.66666667,221.3 L17.6666667,221.3" id="Line"></path>
                    <path d="M7.66666667,225.3 L11.6666667,225.3" id="Line"></path>
                    <path d="M7.66666667,229.3 L11.6666667,229.3" id="Line-2"></path>
                    <path d="M7.66666667,233.3 L11.6666667,233.3" id="Line-3"></path>
                    <path d="M7.66666667,237.3 L11.6666667,237.3" id="Line-4"></path>
                    <path d="M7.66666667,241.3 L17.6666667,241.3" id="Line"></path>
                    <path d="M7.66666667,245.3 L11.6666667,245.3" id="Line"></path>
                    <path d="M7.66666667,249.3 L11.6666667,249.3" id="Line-2"></path>
                    <path d="M7.66666667,253.3 L11.6666667,253.3" id="Line-3"></path>
                    <path d="M7.66666667,257.3 L11.6666667,257.3" id="Line-4"></path>
                    <path d="M7.66666667,261.3 L17.6666667,261.3" id="Line"></path>
                    <path d="M7.66666667,265.3 L11.6666667,265.3" id="Line"></path>
                    <path d="M7.66666667,269.3 L11.6666667,269.3" id="Line-2"></path>
                    <path d="M7.66666667,273.3 L11.6666667,273.3" id="Line-3"></path>
                    <path d="M7.66666667,277.3 L11.6666667,277.3" id="Line-4"></path>
                    <path d="M7.66666667,281.3 L17.6666667,281.3" id="Line"></path>
                    <path d="M7.66666667,285.3 L11.6666667,285.3" id="Line"></path>
                    <path d="M7.66666667,289.3 L11.6666667,289.3" id="Line-2"></path>
                    <path d="M7.66666667,293.3 L11.6666667,293.3" id="Line-3"></path>
                    <path d="M7.66666667,297.3 L11.6666667,297.3" id="Line-4"></path>
                    <path d="M7.66666667,301.3 L17.6666667,301.3" id="Line"></path>
                    <path d="M7.66666667,305.3 L11.6666667,305.3" id="Line"></path>
                    <path d="M7.66666667,309.3 L11.6666667,309.3" id="Line-2"></path>
                    <path d="M7.66666667,313.3 L11.6666667,313.3" id="Line-3"></path>
                    <path d="M7.66666667,317.3 L11.6666667,317.3" id="Line-4"></path>
                    <path d="M7.66666667,321.3 L17.6666667,321.3" id="Line"></path>
                    <path d="M7.66666667,325.3 L11.6666667,325.3" id="Line"></path>
                    <path d="M7.66666667,329.3 L11.6666667,329.3" id="Line-2"></path>
                    <path d="M7.66666667,333.3 L11.6666667,333.3" id="Line-3"></path>
                    <path d="M7.66666667,337.3 L11.6666667,337.3" id="Line-4"></path>
                </g>
            </g>
            <g id="Shape-3" transform="translate(318.056546, 242.234231) rotate(17.000000) translate(-318.056546, -242.234231) translate(254.056546, 9.234231)">
                <path d="M98.3502364,-0.417531096 L98.3502368,13.8398618 L114.175873,13.9877509 L114.175874,11.849973 L128.345511,11.849973 C127.12115,13.4977937 117.788472,21.8353572 114.175874,23.350671 C109.558135,25.2875936 98.7501334,24.6026963 98.7501334,24.6026963 L98.5637458,59.6121172 C98.5637458,59.6121172 109.858472,59.1334282 114.175874,61.063256 C119.37506,63.387231 127.231166,69.5568657 127.113509,72.3735256 L113.703422,72.3735256 L113.703422,70.4455354 L99.4460516,70.4455384 L99.4460516,85.8984795 L104.601648,85.8984795 C108.725098,85.8984795 112.076727,89.2456218 112.076727,93.3745312 L112.076727,173.494389 C112.076727,178.582513 107.95209,182.711476 102.864094,182.711476 L99.4460516,182.711476 L98.3502364,402.751536 L87.9780205,402.751536 L88.4211892,465.774512 L79.7284638,465.774512 L79.7284628,403.37043 L75.1556287,403.37043 C71.3351331,403.37043 68.241811,400.278076 68.241811,396.463465 L68.2418138,182.71147 C68.2418138,182.71147 56.5412059,183.656095 49.7087064,180.114981 C47.3969847,178.916874 41.9283112,171.3551 43.9742806,165.211445 C46.5605778,157.445289 57.1751807,150.913507 57.1751807,150.913507 L56.734279,109.624263 C56.734279,109.624263 18.4526164,101.402815 4.54197476,94.9136433 C0.547365619,93.0501989 2.08259541,84.0655066 2.08259541,84.0655066 L50.5683988,84.0655066 L50.5683988,85.8984795 L68.2418109,85.8984795 L68.2418109,31.1284564 L70.6967491,31.1284564 L70.6967491,23.350671 L68.2418109,23.350671 L51.0202636,23.350671 L51.0202636,26.3132607 L0.00593044753,26.3132607 C0.00593044753,26.3132607 -0.274336247,17.8967133 3.01852509,16.5553075 C21.5984369,8.98644936 65.6242499,-0.417531096 65.6242499,-0.417531096 L98.3502364,-0.417531096 Z M99,92 L99,176 L103,176 C105.209139,176 107,174.206679 107,172.005016 L107,95.9949844 C107,93.7886154 105.204644,92 103,92 L99,92 Z" id="Path-49" stroke="#000000" stroke-width="0.2" fill-opacity="0.6" fill="url(#linearGradient-8)"></path>
                <g id="Cm" transform="translate(61.000000, 58.000000)" stroke="#979797" stroke-width="0.6" stroke-linecap="square">
                    <path d="M7.66666667,0.3 L17.6666667,0.3" id="Line"></path>
                    <path d="M7.66666667,4.3 L11.6666667,4.3" id="Line"></path>
                    <path d="M7.66666667,8.3 L11.6666667,8.3" id="Line-2"></path>
                    <path d="M7.66666667,12.3 L11.6666667,12.3" id="Line-3"></path>
                    <path d="M7.66666667,16.3 L11.6666667,16.3" id="Line-4"></path>
                    <path d="M7.66666667,20.3 L17.6666667,20.3" id="Line"></path>
                    <path d="M7.66666667,24.3 L11.6666667,24.3" id="Line"></path>
                    <path d="M7.66666667,28.3 L11.6666667,28.3" id="Line-2"></path>
                    <path d="M7.66666667,32.3 L11.6666667,32.3" id="Line-3"></path>
                    <path d="M7.66666667,36.3 L11.6666667,36.3" id="Line-4"></path>
                    <path d="M7.66666667,40.3 L17.6666667,40.3" id="Line"></path>
                    <path d="M7.66666667,44.3 L11.6666667,44.3" id="Line"></path>
                    <path d="M7.66666667,48.3 L11.6666667,48.3" id="Line-2"></path>
                    <path d="M7.66666667,52.3 L11.6666667,52.3" id="Line-3"></path>
                    <path d="M7.66666667,56.3 L11.6666667,56.3" id="Line-4"></path>
                    <path d="M7.66666667,60.3 L17.6666667,60.3" id="Line"></path>
                    <path d="M7.66666667,64.3 L11.6666667,64.3" id="Line"></path>
                    <path d="M7.66666667,68.3 L11.6666667,68.3" id="Line-2"></path>
                    <path d="M7.66666667,72.3 L11.6666667,72.3" id="Line-3"></path>
                    <path d="M7.66666667,76.3 L11.6666667,76.3" id="Line-4"></path>
                    <path d="M7.66666667,80.3 L17.6666667,80.3" id="Line"></path>
                    <path d="M7.66666667,84.3 L11.6666667,84.3" id="Line"></path>
                    <path d="M7.66666667,88.3 L11.6666667,88.3" id="Line-2"></path>
                    <path d="M7.66666667,92.3 L11.6666667,92.3" id="Line-3"></path>
                    <path d="M7.66666667,96.3 L11.6666667,96.3" id="Line-4"></path>
                    <path d="M7.66666667,100.3 L17.6666667,100.3" id="Line"></path>
                    <path d="M7.66666667,104.3 L11.6666667,104.3" id="Line"></path>
                    <path d="M7.66666667,108.3 L11.6666667,108.3" id="Line-2"></path>
                    <path d="M7.66666667,112.3 L11.6666667,112.3" id="Line-3"></path>
                    <path d="M7.66666667,116.3 L11.6666667,116.3" id="Line-4"></path>
                    <g id="Group" transform="translate(4.666667, 74.500000) scale(-1, 1) translate(-4.666667, -74.500000) translate(-0.666667, 32.000000)">
                        <path d="M0.333333333,0.3 L4.33333333,0.3" id="Line-4"></path>
                        <path d="M0.333333333,4.3 L4.33333333,4.3" id="Line-5"></path>
                        <path d="M0.333333333,8.3 L10.3333333,8.3" id="Line-2"></path>
                        <path d="M0.333333333,12.3 L4.33333333,12.3" id="Line-2"></path>
                        <path d="M0.333333333,16.3 L4.33333333,16.3" id="Line-3"></path>
                        <path d="M0.333333333,20.3 L4.33333333,20.3" id="Line-4"></path>
                        <path d="M0.333333333,24.3 L4.33333333,24.3" id="Line-5"></path>
                        <path d="M0.333333333,28.3 L10.3333333,28.3" id="Line-2"></path>
                        <path d="M0.333333333,32.3 L4.33333333,32.3" id="Line-2"></path>
                        <path d="M0.333333333,36.3 L4.33333333,36.3" id="Line-3"></path>
                        <path d="M0.333333333,40.3 L4.33333333,40.3" id="Line-4"></path>
                        <path d="M0.333333333,44.3 L4.33333333,44.3" id="Line-5"></path>
                        <path d="M0.333333333,48.3 L10.3333333,48.3" id="Line-2"></path>
                        <path d="M0.333333333,52.3 L4.33333333,52.3" id="Line-2"></path>
                        <path d="M0.333333333,56.3 L4.33333333,56.3" id="Line-3"></path>
                        <path d="M0.333333333,60.3 L4.33333333,60.3" id="Line-4"></path>
                        <path d="M0.333333333,64.3 L4.33333333,64.3" id="Line-5"></path>
                        <path d="M0.333333333,68.3 L10.3333333,68.3" id="Line-2"></path>
                        <path d="M0.333333333,72.3 L4.33333333,72.3" id="Line-2"></path>
                        <path d="M0.333333333,76.3 L4.33333333,76.3" id="Line-3"></path>
                        <path d="M0.333333333,80.3 L4.33333333,80.3" id="Line-4"></path>
                        <path d="M0.333333333,84.3 L4.33333333,84.3" id="Line-5"></path>
                    </g>
                    <path d="M7.66666667,120.3 L17.6666667,120.3" id="Line"></path>
                    <path d="M7.66666667,124.3 L11.6666667,124.3" id="Line"></path>
                    <path d="M7.66666667,128.3 L11.6666667,128.3" id="Line-2"></path>
                    <path d="M7.66666667,132.3 L11.6666667,132.3" id="Line-3"></path>
                    <path d="M7.66666667,136.3 L11.6666667,136.3" id="Line-4"></path>
                    <path d="M7.66666667,140.3 L17.6666667,140.3" id="Line"></path>
                    <path d="M7.66666667,144.3 L11.6666667,144.3" id="Line"></path>
                    <path d="M7.66666667,148.3 L11.6666667,148.3" id="Line-2"></path>
                    <path d="M7.66666667,152.3 L11.6666667,152.3" id="Line-3"></path>
                    <path d="M7.66666667,156.3 L11.6666667,156.3" id="Line-4"></path>
                    <path d="M7.66666667,160.3 L17.6666667,160.3" id="Line"></path>
                    <path d="M7.66666667,164.3 L11.6666667,164.3" id="Line"></path>
                    <path d="M7.66666667,168.3 L11.6666667,168.3" id="Line-2"></path>
                    <path d="M7.66666667,172.3 L11.6666667,172.3" id="Line-3"></path>
                    <path d="M7.66666667,176.3 L11.6666667,176.3" id="Line-4"></path>
                    <path d="M7.66666667,180.3 L17.6666667,180.3" id="Line"></path>
                    <path d="M7.66666667,184.3 L11.6666667,184.3" id="Line"></path>
                    <path d="M7.66666667,188.3 L11.6666667,188.3" id="Line-2"></path>
                    <path d="M7.66666667,192.3 L11.6666667,192.3" id="Line-3"></path>
                    <path d="M7.66666667,196.3 L11.6666667,196.3" id="Line-4"></path>
                    <path d="M7.66666667,200.3 L17.6666667,200.3" id="Line"></path>
                    <path d="M7.66666667,204.3 L11.6666667,204.3" id="Line"></path>
                    <path d="M7.66666667,208.3 L11.6666667,208.3" id="Line-2"></path>
                    <path d="M7.66666667,212.3 L11.6666667,212.3" id="Line-3"></path>
                    <path d="M7.66666667,216.3 L11.6666667,216.3" id="Line-4"></path>
                    <path d="M7.66666667,221.3 L17.6666667,221.3" id="Line"></path>
                    <path d="M7.66666667,225.3 L11.6666667,225.3" id="Line"></path>
                    <path d="M7.66666667,229.3 L11.6666667,229.3" id="Line-2"></path>
                    <path d="M7.66666667,233.3 L11.6666667,233.3" id="Line-3"></path>
                    <path d="M7.66666667,237.3 L11.6666667,237.3" id="Line-4"></path>
                    <path d="M7.66666667,241.3 L17.6666667,241.3" id="Line"></path>
                    <path d="M7.66666667,245.3 L11.6666667,245.3" id="Line"></path>
                    <path d="M7.66666667,249.3 L11.6666667,249.3" id="Line-2"></path>
                    <path d="M7.66666667,253.3 L11.6666667,253.3" id="Line-3"></path>
                    <path d="M7.66666667,257.3 L11.6666667,257.3" id="Line-4"></path>
                    <path d="M7.66666667,261.3 L17.6666667,261.3" id="Line"></path>
                    <path d="M7.66666667,265.3 L11.6666667,265.3" id="Line"></path>
                    <path d="M7.66666667,269.3 L11.6666667,269.3" id="Line-2"></path>
                    <path d="M7.66666667,273.3 L11.6666667,273.3" id="Line-3"></path>
                    <path d="M7.66666667,277.3 L11.6666667,277.3" id="Line-4"></path>
                    <path d="M7.66666667,281.3 L17.6666667,281.3" id="Line"></path>
                    <path d="M7.66666667,285.3 L11.6666667,285.3" id="Line"></path>
                    <path d="M7.66666667,289.3 L11.6666667,289.3" id="Line-2"></path>
                    <path d="M7.66666667,293.3 L11.6666667,293.3" id="Line-3"></path>
                    <path d="M7.66666667,297.3 L11.6666667,297.3" id="Line-4"></path>
                    <path d="M7.66666667,301.3 L17.6666667,301.3" id="Line"></path>
                    <path d="M7.66666667,305.3 L11.6666667,305.3" id="Line"></path>
                    <path d="M7.66666667,309.3 L11.6666667,309.3" id="Line-2"></path>
                    <path d="M7.66666667,313.3 L11.6666667,313.3" id="Line-3"></path>
                    <path d="M7.66666667,317.3 L11.6666667,317.3" id="Line-4"></path>
                    <path d="M7.66666667,321.3 L17.6666667,321.3" id="Line"></path>
                    <path d="M7.66666667,325.3 L11.6666667,325.3" id="Line"></path>
                    <path d="M7.66666667,329.3 L11.6666667,329.3" id="Line-2"></path>
                    <path d="M7.66666667,333.3 L11.6666667,333.3" id="Line-3"></path>
                    <path d="M7.66666667,337.3 L11.6666667,337.3" id="Line-4"></path>
                </g>
            </g>
            <g id="Name" transform="translate(183.000000, 183.000000)" font-weight="normal" font-family="Avenir-Book, Avenir" fill="#94DDFF" font-size="5" opacity="0.11">
                <text id="R.G" transform="translate(5.500000, 4.500000) rotate(22.000000) translate(-5.500000, -4.500000) ">
                    <tspan x="1" y="6">R.G</tspan>
                </text>
            </g>
        </g>
    </g>
</svg>